<?xml version="1.0" encoding="UTF-8"?>
<svg width="1200pt" height="600pt" version="1.1" viewBox="0 300 1200 600" xmlns="http://www.w3.org/2000/svg">
 <path d="m600 789.86c10.102 0 19.238 4.1016 25.859 10.719 6.6211 6.6211 10.719 15.762 10.719 25.859 0 10.102-4.1016 19.238-10.719 25.859-6.6211 6.6211-15.762 10.719-25.859 10.719-10.102 0-19.238-4.1016-25.859-10.719-6.6211-6.6211-10.719-15.762-10.719-25.859 0-10.102 4.1016-19.238 10.719-25.859 6.6211-6.6211 15.762-10.719 25.859-10.719zm-168.18-309.22c5.6797 0 10.82-2.3008 14.539-6.0195s6.0195-8.8594 6.0195-14.539c0-5.6797-2.3008-10.82-6.0195-14.539s-8.8594-6.0195-14.539-6.0195c-5.6797 0-10.82 2.3008-14.539 6.0195s-6.0195 8.8594-6.0195 14.539c0 5.6797 2.3008 10.82 6.0195 14.539s8.8594 6.0195 14.539 6.0195zm25.859 5.2812c-6.6211 6.6211-15.762 10.719-25.859 10.719-10.102 0-19.238-4.1016-25.859-10.719-6.6211-6.6211-10.719-15.762-10.719-25.859 0-7.5391 2.2812-14.559 6.1992-20.379-12.879-2.3984-23.859-9.3594-33.199-18.699-10.762-10.781-19.199-24.68-25.738-38.141-25.84-3.2617-55.301 24.5-84.98 52.5-43.539 41.059-87.539 82.559-132.36 42.719-8.1406-7.2383-14-15.762-17.82-25.52-3.7383-9.5586-5.4805-20.18-5.4805-31.801 0-12.621 4.8984-24.102 12.801-32.441 2.6797-2.8203 5.6992-5.2812 8.9805-7.3008h-18.961c-4.4219 0-8-3.5781-8-8s3.5781-8 8-8h105.3c4.4219 0 8 3.5781 8 8s-3.5781 8-8 8h-41.68c3.3008 2.0195 6.3008 4.4805 8.9805 7.3008 7.8984 8.3398 12.801 19.82 12.801 32.441 0 9.1211-3.5391 17.422-9.2812 23.461-5.8203 6.1406-13.879 9.9414-22.801 9.9414-4.4219 0-8-3.5781-8-8s3.5781-8 8-8c4.3789 0 8.3594-1.8789 11.238-4.9414 2.9805-3.1602 4.8398-7.5586 4.8398-12.461 0-8.4219-3.1992-16-8.3594-21.441-5.0781-5.3398-12.059-8.6602-19.762-8.6602-7.6992 0-14.68 3.3008-19.762 8.6602-5.1602 5.4414-8.3594 13.02-8.3594 21.441 0 9.6992 1.3789 18.398 4.3594 26 2.8984 7.3984 7.3594 13.879 13.578 19.398 33.898 30.121 72.539-6.3398 110.8-42.422 16.879-15.922 33.699-31.781 50.621-42.738h-24.238c-4.4219 0-8-3.5781-8-8s3.5781-8 8-8h261.94c4.4219 0 8 3.5781 8 8s-3.5781 8-8 8h-15.719c-40.18 0-60.48 22.602-75.238 39.02-1.3594 1.5195-2.6797 2.9805-3.9805 4.3984 6.8203 1.5586 12.941 5.0195 17.719 9.8008 6.6211 6.6211 10.719 15.762 10.719 25.859 0 10.102-4.1016 19.238-10.719 25.859zm311.14-5.2812c5.6797 0 10.82-2.3008 14.539-6.0195s6.0195-8.8594 6.0195-14.539c0-5.6797-2.3008-10.82-6.0195-14.539s-8.8594-6.0195-14.539-6.0195c-5.6797 0-10.82 2.3008-14.539 6.0195s-6.0195 8.8594-6.0195 14.539c0 5.6797 2.3008 10.82 6.0195 14.539s8.8594 6.0195 14.539 6.0195zm25.859 5.2812c-6.6211 6.6211-15.762 10.719-25.859 10.719-10.102 0-19.238-4.1016-25.859-10.719-6.6211-6.6211-10.719-15.762-10.719-25.859 0-10.102 4.1016-19.238 10.719-25.859 5.3203-5.3203 12.262-9 20.039-10.262-1.1602-1.2812-2.3594-2.6016-3.5781-3.9609-14.762-16.422-35.059-39.02-75.238-39.02h-19.078c-4.4219 0-8-3.5781-8-8 0-4.4219 3.5781-8 8-8h261.94c4.4219 0 8 3.5781 8 8 0 4.4219-3.5781 8-8 8h-20.879c16.922 10.961 33.738 26.801 50.621 42.738 38.262 36.078 76.898 72.539 110.8 42.422 6.2188-5.5195 10.68-12 13.578-19.398 2.9805-7.6016 4.3594-16.281 4.3594-26 0-8.4219-3.1992-16-8.3594-21.441-5.0781-5.3594-12.059-8.6602-19.762-8.6602-7.6992 0-14.68 3.3008-19.762 8.6602-5.1602 5.4414-8.3594 13.02-8.3594 21.441 0 4.8984 1.8398 9.3203 4.8398 12.461 2.8984 3.0586 6.8594 4.9414 11.238 4.9414 4.4219 0 8 3.5781 8 8s-3.5781 8-8 8c-8.9219 0-16.98-3.8008-22.801-9.9414-5.7188-6.0391-9.2812-14.34-9.2812-23.461 0-12.621 4.8984-24.102 12.801-32.441 2.6797-2.8203 5.6992-5.2812 8.9805-7.3008h-45.039c-4.4219 0-8-3.5781-8-8s3.5781-8 8-8h105.3c4.4219 0 8 3.5781 8 8s-3.5781 8-8 8h-15.602c3.3008 2.0195 6.3008 4.4805 8.9805 7.3008 7.8984 8.3398 12.801 19.82 12.801 32.441 0 11.641-1.7383 22.238-5.5 31.801-3.8203 9.7617-9.6797 18.301-17.82 25.52-44.82 39.84-88.82-1.6602-132.36-42.719-29.68-28-59.141-55.762-84.98-52.5-6.5586 13.441-14.98 27.359-25.738 38.141-9.9219 9.9414-21.699 17.18-35.66 19.102 3.7617 5.7383 5.9414 12.621 5.9414 19.98 0 10.102-4.1016 19.238-10.719 25.859zm-54.219-104.94c13.102 8.6211 22.699 19.301 30.82 28.32 7.4805 8.3203 13.398 14.922 17.922 15.219 13.719 0.89844 25.141-5.3398 34.578-14.801 7.9609-7.9805 14.621-18.281 20.078-28.738zm233.3 370.42c4.4219 0 8 3.5781 8 8s-3.5781 8-8 8c-8.9219 0-16.98-3.8008-22.801-9.9414-5.7188-6.0391-9.2812-14.34-9.2812-23.461 0-12.621 4.8984-24.102 12.801-32.441 8-8.4414 19.078-13.66 31.32-13.66 12.238 0 23.32 5.2188 31.32 13.66 7.8984 8.3398 12.801 19.82 12.801 32.441 0 11.66-3.4609 22.078-9.1602 31-6.2383 9.7617-15.16 17.578-25.121 23.102-7.3203 4.0586-16.359 5.9414-26.059 5.8398-13.379-0.14062-28.238-4.0391-41.5-11.16-13.398-7.1992-25.34-17.738-32.738-31.121-1.4609-2.6406-2.7617-5.3984-3.8398-8.2617-10.941 15.121-25.34 26.5-44.301 34.5-25.379 10.699-58.82 15.039-103.04 13.879-4.3984-0.10156-7.8789-3.7617-7.7812-8.1602 0.10156-4.3984 3.7617-7.8789 8.1602-7.7812 41.941 1.1016 73.262-2.8594 96.461-12.641 22.301-9.3984 37.219-24.422 47.18-45.801l0.019531 0.019531c1.2812-2.7383 4.0586-4.6406 7.2812-4.6016 4.3984 0.039062 7.9414 3.6406 7.8984 8.0391-0.078124 8.5391 2.1016 16.262 5.8594 23.059 5.8398 10.52 15.461 18.961 26.379 24.82 11.039 5.9414 23.238 9.1797 34.059 9.3008 7.0391 0.078125 13.359-1.1602 18.18-3.8398 7.8008-4.3203 14.699-10.34 19.441-17.719 4.1016-6.4219 6.5781-13.961 6.5781-22.441 0-8.4219-3.1992-16-8.3594-21.441-5.0781-5.3594-12.059-8.6602-19.762-8.6602-7.6992 0-14.68 3.3008-19.762 8.6602-5.1602 5.4414-8.3594 13.02-8.3594 21.441 0 4.8984 1.8398 9.3203 4.8398 12.461 2.8984 3.0586 6.8594 4.9414 11.238 4.9414zm-372.08-295.78c0.21875-0.039063 0.44141-0.078125 0.67969-0.10156 4.3789-0.46094 8.3203 2.7188 8.7812 7.1016 1.4609 13.539 5.1992 24.121 12.801 32.18 7.8398 8.3008 20.102 14.441 38.461 18.961 4.2812 1.0586 6.8984 5.3789 5.8398 9.6602-0.73828 3.0195-3.1211 5.2188-5.9609 5.8789-18.301 4.5195-30.52 10.641-38.34 18.922-7.6016 8.0586-11.34 18.621-12.801 32.18-0.46094 4.3789-4.3984 7.5586-8.7812 7.1016-0.21875-0.019531-0.46094-0.058594-0.67969-0.10156-0.21875 0.039062-0.44141 0.078125-0.67969 0.10156-4.3789 0.46094-8.3203-2.7188-8.7812-7.1016-1.4609-13.539-5.1992-24.121-12.801-32.18-7.8203-8.3008-20.039-14.422-38.34-18.922-2.8398-0.66016-5.2188-2.8398-5.9609-5.8789-1.0586-4.2812 1.5586-8.6016 5.8398-9.6602 18.359-4.5195 30.621-10.641 38.461-18.961 7.6016-8.0586 11.34-18.621 12.801-32.18 0.46094-4.3789 4.3984-7.5586 8.7812-7.1016 0.21875 0.019531 0.46094 0.058594 0.67969 0.10156zm0 97.578c2.6406-5.8789 6.1406-11.16 10.641-15.941 5.8984-6.2617 13.441-11.461 23.039-15.781-9.6016-4.3008-17.141-9.5195-23.039-15.781-4.5-4.7812-7.9805-10.059-10.641-15.941-2.6406 5.8789-6.1406 11.16-10.641 15.941-5.8984 6.2617-13.441 11.461-23.039 15.781 9.6016 4.3008 17.141 9.5195 23.039 15.781 4.5 4.7812 7.9805 10.059 10.641 15.941zm50.18 203.14c4.2383 1.1992 6.7188 5.6016 5.5391 9.8398-1.1992 4.2383-5.6016 6.7188-9.8398 5.5391-22.539-6.3594-35.422-16.281-42.961-28.441-1.0781-1.7383-2.0391-3.5195-2.8984-5.3398-0.85938 1.8008-1.8203 3.5781-2.8984 5.3398-7.5391 12.16-20.422 22.078-42.961 28.441-4.2383 1.1992-8.6602-1.2812-9.8398-5.5391-1.1992-4.2383 1.2812-8.6602 5.5391-9.8398 18.18-5.1211 28.199-12.539 33.699-21.441 5.6016-9.0195 7.0195-20.262 7.6797-32.301 0.21875-4.3984 3.9805-7.7812 8.3789-7.5586 0.14062 0 0.28125 0.019532 0.42188 0.039063 0.14062-0.019531 0.28125-0.019531 0.42188-0.039063 4.3984-0.21875 8.1602 3.1602 8.3789 7.5586 0.66016 12.039 2.0781 23.262 7.6797 32.301 5.5195 8.8789 15.539 16.32 33.699 21.441zm43.621 25.641c0.30078 4.3984-3.0391 8.1992-7.4414 8.5-4.3984 0.30078-8.1992-3.0391-8.5-7.4414-0.26172-3.7188 0.64062-11.238 1.9219-19.398 1.0586-6.7812 2.4219-14.199 3.5781-20.16-6.3008-2.8008-12.32-6.1992-17.801-10.16-5.5-3.9805-10.5-8.5391-14.699-13.641-16.34-19.762-22.602-43.66-21.719-66.801 1.0195-26.34 11.379-51.801 26.738-69.121 11.422-12.859 26.922-19.941 42.719-21 15.859-1.0586 32.02 3.9414 44.762 15.238 12.719 11.301 19.578 26.762 20.398 42.641 0.82031 15.82-4.3984 32.059-15.82 44.922-8.1016 9.1211-19.078 14.141-30.301 14.898-11.262 0.76172-22.738-2.8008-31.781-10.82-9.0391-8.0195-13.898-19-14.48-30.281-0.57812-11.219 3.1211-22.738 11.219-31.84 2.9414-3.3008 7.9805-3.6016 11.281-0.66016 3.3008 2.9414 3.6016 7.9805 0.66016 11.281-5.1992 5.8594-7.5781 13.238-7.2188 20.422 0.35938 7.1211 3.4609 14.078 9.1602 19.16 5.6992 5.0586 12.961 7.3008 20.102 6.8203 7.1797-0.48047 14.219-3.7188 19.422-9.5781 8.5391-9.6016 12.441-21.699 11.82-33.48-0.60156-11.621-5.5781-22.961-14.84-31.301-0.16016-0.14063-0.32031-0.28125-0.48047-0.42188-9.3594-8.1992-21.199-11.82-32.84-11.039-11.66 0.78125-23.121 6-31.621 15.441-0.14062 0.16016-0.28125 0.32031-0.42188 0.48047-12.961 14.699-21.68 36.359-22.539 58.82-0.76172 19.52 4.4805 39.578 18.078 56.059 3.3398 4.0391 7.3203 7.6797 11.762 10.879 3.8008 2.7383 7.8984 5.1602 12.141 7.2383 2.6406-8.0586 6.3594-15.68 10.801-22.32 5.8984-8.7812 13.16-15.98 21.121-20.461 8.6406-4.8594 18.078-6.6016 27.641-4 3.7188 1.0195 7.3789 2.6797 10.941 5.0586 4.9609 3.3203 8.1992 6.3008 10.461 10.262 2.2617 3.9609 3.1602 8.2812 3.4414 14.281 0.28125 6.0195-0.73828 11.441-2.8398 16.262-3.5 8.0586-9.8398 14.141-17.941 18.238-7.5 3.8203-16.559 5.9414-26.219 6.3789-8.3594 0.37891-17.238-0.5-25.898-2.6406-1 5.2812-2.1211 11.539-3.0391 17.398-1.1211 7.1016-1.8984 13.379-1.7383 15.898zm17.34-67.801c-3.7812 5.6211-6.8984 12.078-9.0781 18.941 7.2812 1.8398 14.719 2.6016 21.738 2.2812 7.3594-0.33984 14.16-1.8984 19.66-4.6992 4.8984-2.4805 8.6406-5.9414 10.559-10.359 1.1406-2.6211 1.6992-5.6797 1.5195-9.1992-0.16016-3.3984-0.51953-5.6016-1.3789-7.0781-0.85938-1.5-2.5781-2.9609-5.4609-4.8789-2.1016-1.4219-4.1992-2.3789-6.2383-2.9414-5.1602-1.3984-10.52-0.32031-15.641 2.5586-5.7812 3.2383-11.18 8.6602-15.699 15.398zm-112.82-320.06c5.6797 0 10.82-2.3008 14.539-6.0195s6.0195-8.8594 6.0195-14.539-2.3008-10.82-6.0195-14.539-8.8594-6.0195-14.539-6.0195c-5.6797 0-10.82 2.3008-14.539 6.0195s-6.0195 8.8594-6.0195 14.539 2.3008 10.82 6.0195 14.539 8.8594 6.0195 14.539 6.0195zm25.859 5.2812c-6.6211 6.6211-15.762 10.719-25.859 10.719-10.102 0-19.238-4.1016-25.859-10.719-6.6211-6.6211-10.719-15.762-10.719-25.859 0-10.102 4.1016-19.238 10.719-25.859 6.6211-6.6211 15.762-10.719 25.859-10.719 10.102 0 19.238 4.1016 25.859 10.719 6.6211 6.6211 10.719 15.762 10.719 25.859 0 10.102-4.1016 19.238-10.719 25.859zm529.68-105.64c4.4219 0 8 3.5781 8 8s-3.5781 8-8 8h-1111.1c-4.4219 0-8-3.5781-8-8s3.5781-8 8-8zm-692.64 87.199h-103.4c5.4609 10.461 12.121 20.762 20.078 28.738 9.4414 9.4609 20.879 15.699 34.578 14.801 4.5195-0.30078 10.441-6.8984 17.922-15.219 8.1211-9.0391 17.719-19.719 30.82-28.32zm-233.3 386.42c-4.4219 0-8-3.5781-8-8 0-4.4219 3.5781-8 8-8 4.3789 0 8.3594-1.8789 11.238-4.9414 2.9805-3.1602 4.8398-7.5586 4.8398-12.461 0-8.4219-3.1992-16-8.3594-21.441-5.0781-5.3398-12.059-8.6602-19.762-8.6602-7.6992 0-14.68 3.3008-19.762 8.6602-5.1602 5.4414-8.3594 13.02-8.3594 21.441 0 8.4805 2.4805 16.02 6.5781 22.441 4.7383 7.3984 11.641 13.422 19.441 17.719 4.8203 2.6797 11.16 3.8984 18.18 3.8398 10.82-0.12109 23.02-3.3594 34.059-9.3008 10.922-5.8594 20.539-14.281 26.379-24.82 3.7617-6.8008 5.9609-14.52 5.8594-23.059-0.039063-4.3984 3.5-8 7.8984-8.0391 3.2188-0.019531 6.0195 1.8594 7.2812 4.6016l0.019531-0.019531c9.9609 21.379 24.859 36.398 47.18 45.801 23.199 9.7812 54.52 13.738 96.461 12.641 4.3984-0.10156 8.0586 3.3789 8.1602 7.7812 0.10156 4.3984-3.3789 8.0586-7.7812 8.1602-44.219 1.1602-77.641-3.1797-103.04-13.879-18.961-7.9805-33.359-19.379-44.301-34.5-1.0781 2.8594-2.3789 5.6016-3.8398 8.2617-7.4219 13.379-19.359 23.922-32.738 31.121-13.262 7.1211-28.121 11.02-41.5 11.16-9.6992 0.10156-18.738-1.7812-26.059-5.8398-9.9609-5.5195-18.879-13.34-25.121-23.102-5.6992-8.8984-9.1602-19.34-9.1602-31 0-12.621 4.8984-24.102 12.801-32.441 8-8.4414 19.078-13.66 31.32-13.66 12.238 0 23.32 5.2188 31.32 13.66 7.8984 8.3398 12.801 19.82 12.801 32.441 0 9.1211-3.5391 17.422-9.2812 23.461-5.8203 6.1406-13.879 9.9414-22.801 9.9414zm294.24 15.641c-0.30078 4.3984-4.1016 7.7383-8.5 7.4414-4.3984-0.30078-7.7383-4.1016-7.4414-8.5 0.17969-2.5195-0.62109-8.8008-1.7383-15.898-0.92188-5.8594-2.0391-12.121-3.0391-17.398-8.6797 2.1406-17.539 3.0195-25.898 2.6406-9.6602-0.44141-18.719-2.5586-26.219-6.3789-8.0781-4.1211-14.422-10.18-17.941-18.238-2.1016-4.8203-3.1211-10.238-2.8398-16.262 0.28125-6 1.1797-10.301 3.4414-14.281 2.2617-3.9609 5.5-6.9414 10.461-10.262 3.5586-2.3789 7.2188-4.0586 10.941-5.0586 9.5586-2.6016 19-0.85938 27.641 4 7.9609 4.4805 15.238 11.68 21.121 20.461 4.4609 6.6406 8.1602 14.262 10.801 22.32 4.2617-2.0781 8.3594-4.5 12.141-7.2383 4.4414-3.2188 8.4414-6.8594 11.762-10.879 13.621-16.48 18.84-36.539 18.078-56.059-0.85938-22.461-9.5781-44.121-22.539-58.82-0.14062-0.16016-0.30078-0.32031-0.42187-0.48047-8.5195-9.4609-19.961-14.66-31.621-15.441-11.641-0.78125-23.48 2.8398-32.84 11.039-0.16016 0.14062-0.32031 0.30078-0.48047 0.42188-9.2383 8.3398-14.238 19.66-14.84 31.301-0.60156 11.781 3.3008 23.859 11.82 33.48 5.2188 5.8594 12.262 9.1016 19.422 9.5781 7.1211 0.48047 14.398-1.7617 20.102-6.8203 5.7188-5.0781 8.8008-12.02 9.1602-19.16 0.35938-7.1797-2-14.539-7.2188-20.422-2.9414-3.3008-2.6406-8.3398 0.66016-11.281s8.3398-2.6406 11.281 0.66016c8.1016 9.1211 11.801 20.621 11.219 31.84-0.57812 11.281-5.4609 22.262-14.48 30.281-9.0391 8.0391-20.52 11.578-31.781 10.82-11.219-0.76172-22.199-5.7812-30.301-14.898-11.422-12.859-16.641-29.078-15.82-44.922 0.82031-15.879 7.6797-31.34 20.398-42.641 12.738-11.301 28.898-16.301 44.762-15.238 15.82 1.0586 31.301 8.1406 42.719 21 15.359 17.301 25.719 42.781 26.738 69.121 0.89844 23.16-5.3789 47.039-21.719 66.801-4.1992 5.1016-9.1992 9.6602-14.699 13.641-5.4805 3.9609-11.5 7.3789-17.801 10.16 1.1602 5.9609 2.5195 13.359 3.5781 20.16 1.2812 8.1602 2.1797 15.66 1.9219 19.398zm-24.199-49.922c-2.1992-6.8398-5.3203-13.32-9.0781-18.941-4.5195-6.7383-9.9219-12.16-15.699-15.398-5.1016-2.8789-10.48-3.9805-15.641-2.5586-2.0391 0.55859-4.1406 1.5195-6.2383 2.9414-2.8789 1.9219-4.6016 3.3789-5.4609 4.8789-0.85938 1.5-1.2188 3.6797-1.3789 7.0781-0.16016 3.5195 0.37891 6.5781 1.5195 9.1992 1.9219 4.4219 5.6602 7.8789 10.559 10.359 5.4805 2.8008 12.301 4.3594 19.66 4.6992 7.0195 0.32031 14.48-0.44141 21.738-2.2812zm114.92 78.762c-3.7188-3.7188-8.8594-6.0195-14.539-6.0195-5.6797 0-10.82 2.3008-14.539 6.0195s-6.0195 8.8594-6.0195 14.539c0 5.6797 2.3008 10.82 6.0195 14.539s8.8594 6.0195 14.539 6.0195c5.6797 0 10.82-2.3008 14.539-6.0195s6.0195-8.8594 6.0195-14.539c0-5.6797-2.3008-10.82-6.0195-14.539zm50.539 23.121c-4.4219 0-8-3.5781-8-8s3.5781-8 8-8h261.94c4.4219 0 8 3.5781 8 8s-3.5781 8-8 8zm324.92 0c-4.4219 0-8-3.5781-8-8s3.5781-8 8-8h105.3c4.4219 0 8 3.5781 8 8s-3.5781 8-8 8zm165.54 55.199c4.4219 0 8 3.5781 8 8s-3.5781 8-8 8h-1111.1c-4.4219 0-8-3.5781-8-8s3.5781-8 8-8zm-620.64-71.199c4.4219 0 8 3.5781 8 8s-3.5781 8-8 8h-261.94c-4.4219 0-8-3.5781-8-8s3.5781-8 8-8zm-324.92 0c4.4219 0 8 3.5781 8 8s-3.5781 8-8 8h-105.3c-4.4219 0-8-3.5781-8-8s3.5781-8 8-8z" fill="#fff"/>
</svg>
