<?xml version="1.0" encoding="UTF-8"?>
<svg width="1200pt" height="1200pt" version="1.1" viewBox="0 0 1200 1200" xmlns="http://www.w3.org/2000/svg">
 <path d="m600 1117.9c-69.223 0-130.99 32.086-171.41 82.105h342.82c-40.422-50.02-102.19-82.105-171.41-82.105z" fill="#fb6b85"/>
 <path d="m266.65 138.44c0-49.391 10.863-96.254 30.191-138.44h-77.684c-15.789 43.199-24.379 89.809-24.379 138.44 0 223.45 181.77 405.09 405.09 405.09v-71.746c-183.79 0-333.35-149.56-333.35-333.35z" fill="#fb6b85"/>
 <path d="m600 635.88v-71.746c-234.7 0-425.68-190.99-425.68-425.68 0-48.504 8.2109-94.988 23.242-138.44h-75.285c-12.758 43.957-19.707 90.441-19.707 138.44 0 274.23 223.2 497.43 497.43 497.43z" fill="#fb6b85"/>
 <path d="m358.99 138.44c0-51.535 16.293-99.285 43.957-138.44h-83.242c-20.715 41.809-32.465 88.801-32.465 138.44 0 172.55 140.34 312.88 312.76 312.88v-71.746c-132.88 0-241.01-108.12-241.01-241.01z" fill="#fb6b85"/>
 <path d="m564.12 138.44c0 19.832 16.168 35.875 35.875 35.875v-71.746c-19.832 0-35.875 16.043-35.875 35.875z" fill="#fb6b85"/>
 <path d="m543.54 138.44c0-31.074 25.262-56.465 56.465-56.465v-71.746c-70.738 0-128.21 57.473-128.21 128.21 0 70.738 57.473 128.21 128.21 128.21v-71.746c-31.074 0-56.465-25.262-56.465-56.465z" fill="#fb6b85"/>
 <path d="m451.33 138.44c0-63.031 39.41-116.84 94.863-138.44h-117.47c-30.695 37.895-49.137 86.02-49.137 138.44 0 121.64 98.906 220.55 220.55 220.55v-71.746c-81.98 0-148.67-66.695-148.67-148.67z" fill="#fb6b85"/>
 <path d="m1098.9 0c12.254 44.086 18.949 90.57 18.949 138.44 0 285.6-232.29 517.89-517.89 517.89-285.61 0-517.9-232.29-517.9-517.89 0-48 6.6953-94.359 18.949-138.44h-101.05v1200h101.05c60.758-218.53 261.35-379.45 498.95-379.45s438.32 160.93 498.95 379.45h101.05v-1200z" fill="#fb6b85"/>
 <path d="m600 1025.7c-122.78 0-229.26 71.117-280.42 174.32h83.242c43.707-62.02 115.71-102.57 197.05-102.57 81.348 0 153.47 40.547 197.05 102.57h83.242c-51.156-103.2-157.64-174.32-280.42-174.32z" fill="#fb6b85"/>
 <path d="m600 841.01c-226.23 0-417.6 151.83-477.73 358.99h75.285c57.602-166.86 216.12-287.24 402.44-287.24s344.84 120.25 402.44 287.24h75.285c-60.125-207.16-251.5-358.99-477.73-358.99z" fill="#fb6b85"/>
 <path d="m600 933.35c-174.82 0-324 111.29-380.71 266.65h77.684c52.672-114.82 168.63-194.91 303.16-194.91 134.53 0 250.36 79.957 303.16 194.91h77.684c-56.715-155.37-206.02-266.65-380.71-266.65z" fill="#fb6b85"/>
 <path d="m1025.7 138.44c0-48.504-8.2109-94.988-23.242-138.44h-21.602c15.789 43.199 24.379 89.809 24.379 138.44 0 223.45-181.77 405.09-405.09 405.09v20.465c234.7 0 425.68-190.99 425.68-425.68z" fill="#fb6b85"/>
 <path d="m933.35 138.44c0-49.391-10.863-96.254-30.191-138.44h-22.738c20.715 41.809 32.465 88.801 32.465 138.44 0 172.55-140.34 312.88-312.76 312.88v20.465c183.79 0 333.35-149.56 333.35-333.35z" fill="#fb6b85"/>
 <path d="m841.01 138.44c0-51.535-16.293-99.285-43.957-138.44h-25.77c30.695 37.895 49.137 86.02 49.137 138.44 0 121.64-98.906 220.55-220.55 220.55v20.465c132.88 0 241.01-108.12 241.01-241.01z" fill="#fb6b85"/>
 <path d="m748.67 138.44c0-63.031-39.41-116.84-94.863-138.44h-53.938l0.003906 10.23c70.738 0 128.21 57.473 128.21 128.21 0 70.738-57.473 128.21-128.21 128.21v20.465c81.98 0 148.67-66.695 148.67-148.67z" fill="#fb6b85"/>
 <path d="m635.88 138.44c0 19.832-16.168 35.875-35.875 35.875v20.465c31.074 0 56.465-25.262 56.465-56.465 0-31.199-25.262-56.465-56.465-56.465v20.465c19.832 0 35.875 16.043 35.875 35.875z" fill="#fb6b85"/>
</svg>
