<?xml version="1.0" encoding="UTF-8"?>
<svg width="1200pt" height="1200pt" version="1.1" viewBox="0 0 1200 1200" xmlns="http://www.w3.org/2000/svg">
 <path d="m101.94 0h-101.94v101.94c39.789-27.664 74.273-62.148 101.94-101.94z" fill="#fb6b85"/>
 <path d="m471.79 600c0 70.738 57.473 128.21 128.21 128.21v-71.746c-31.074 0-56.465-25.262-56.465-56.465 0-31.199 25.262-56.465 56.465-56.465v-71.746c-70.738 0-128.21 57.473-128.21 128.21z" fill="#fb6b85"/>
 <path d="m0 888.12v79.199c100.55 50.273 182.53 132.25 232.67 232.67h79.199c-59.746-139.96-172.04-252.12-311.88-311.88z" fill="#fb6b85"/>
 <path d="m209.68 0h-83.117c-32.715 50.652-75.914 93.852-126.57 126.57v83.117c89.305-46.992 162.7-120.38 209.68-209.69z" fill="#fb6b85"/>
 <path d="m0 1098.1v101.94h101.94c-27.664-39.789-62.148-74.273-101.94-101.94z" fill="#fb6b85"/>
 <path d="m0 990.32v83.117c50.652 32.844 93.852 76.043 126.57 126.57h83.117c-46.988-89.305-120.38-162.7-209.68-209.68z" fill="#fb6b85"/>
 <path d="m564.12 600c0 19.832 16.168 35.875 35.875 35.875v-71.746c-19.832 0-35.875 16.168-35.875 35.875z" fill="#fb6b85"/>
 <path d="m311.88 0h-79.199c-50.148 100.55-132.13 182.53-232.68 232.67v79.199c139.96-59.617 252.12-171.91 311.88-311.87z" fill="#fb6b85"/>
 <path d="m174.32 600c0-234.7 190.99-425.68 425.68-425.68v-71.746c-274.23 0-497.43 223.2-497.43 497.43s223.2 497.43 497.43 497.43v-71.746c-234.7 0-425.68-190.99-425.68-425.68z" fill="#fb6b85"/>
 <path d="m888.12 1200h79.199c50.273-100.55 132.25-182.53 232.67-232.67v-79.199c-139.96 59.746-252.12 172.04-311.88 311.88z" fill="#fb6b85"/>
 <path d="m967.33 0h-79.199c59.746 139.96 172.04 252.25 311.88 311.88v-79.199c-100.55-50.273-182.53-132.25-232.67-232.67z" fill="#fb6b85"/>
 <path d="m1098.1 1200h101.94v-101.94c-39.789 27.664-74.273 62.148-101.94 101.94z" fill="#fb6b85"/>
 <path d="m866.02 0h-532.04c-61.895 151.2-182.78 272.09-333.98 333.98v531.91c151.2 62.02 272.09 182.91 333.98 333.98h531.91c62.02-151.2 182.91-272.09 333.98-333.98v-531.91c-151.2-62.02-272.09-182.91-333.98-333.98zm-266.02 1117.9c-285.6 0-517.89-232.29-517.89-517.89s232.29-517.89 517.89-517.89 517.89 232.29 517.89 517.89-232.29 517.89-517.89 517.89z" fill="#fb6b85"/>
 <path d="m194.91 600c0 223.45 181.77 405.09 405.09 405.09v-71.746c-183.79 0-333.35-149.56-333.35-333.35s149.56-333.35 333.35-333.35v-71.746c-223.33 0-405.09 181.77-405.09 405.09z" fill="#fb6b85"/>
 <path d="m990.32 1200h83.117c32.844-50.652 76.043-93.852 126.57-126.57v-83.117c-89.305 46.988-162.7 120.38-209.68 209.68z" fill="#fb6b85"/>
 <path d="m1073.4 0h-83.117c46.988 89.305 120.38 162.7 209.68 209.68v-83.117c-50.652-32.844-93.852-76.043-126.57-126.57z" fill="#fb6b85"/>
 <path d="m287.24 600c0 172.55 140.34 312.88 312.76 312.88v-71.746c-132.88 0-241.01-108.12-241.01-241.01 0-132.88 108.12-241.01 241.01-241.01v-71.746c-172.55 0-312.76 140.34-312.76 312.76z" fill="#fb6b85"/>
 <path d="m379.45 600c0 121.64 98.906 220.55 220.55 220.55v-71.746c-81.98 0-148.67-66.695-148.67-148.67 0-81.98 66.695-148.67 148.67-148.67v-71.746c-121.64 0-220.55 98.906-220.55 220.55z" fill="#fb6b85"/>
 <path d="m1098.1 0c27.664 39.789 62.148 74.273 101.94 101.94v-101.94z" fill="#fb6b85"/>
 <path d="m600 174.32v20.465c223.33 0 405.09 181.77 405.09 405.09 0 223.33-181.77 405.09-405.09 405.09v20.465c234.7 0 425.68-190.99 425.68-425.68 0-234.7-190.99-425.43-425.68-425.43z" fill="#fb6b85"/>
 <path d="m933.35 600c0-183.79-149.56-333.35-333.35-333.35v20.465c172.55 0 312.76 140.34 312.76 312.76s-140.34 312.88-312.76 312.88v20.465c183.79 0 333.35-149.56 333.35-333.35z" fill="#fb6b85"/>
 <path d="m841.01 600c0-132.88-108.12-241.01-241.01-241.01v20.465c121.64 0 220.55 98.906 220.55 220.55s-98.906 220.55-220.55 220.55v20.465c132.88 0 241.01-108.12 241.01-241.01z" fill="#fb6b85"/>
 <path d="m748.67 600c0-81.98-66.695-148.67-148.67-148.67v20.465c70.738 0 128.21 57.473 128.21 128.21 0 70.738-57.473 128.21-128.21 128.21v20.465c81.98 0 148.67-66.695 148.67-148.67z" fill="#fb6b85"/>
 <path d="m656.46 600c0-31.074-25.262-56.465-56.465-56.465v20.465c19.832 0 35.875 16.168 35.875 35.875s-16.168 35.875-35.875 35.875v20.465c31.074 0 56.465-25.262 56.465-56.465z" fill="#fb6b85"/>
</svg>
