<?xml version="1.0" encoding="UTF-8"?>
<svg width="1200pt" height="1200pt" version="1.1" viewBox="0 0 1200 1200" xmlns="http://www.w3.org/2000/svg">
 <path d="m600 102.57c-274.23 0-497.43 223.2-497.43 497.43s223.2 497.43 497.43 497.43 497.43-223.2 497.43-497.43-223.2-497.43-497.43-497.43zm0 923.12c-234.7 0-425.68-190.99-425.68-425.68 0-234.7 190.99-425.69 425.68-425.69s425.68 190.99 425.68 425.68-190.99 425.68-425.68 425.68z" fill="#fb6b85"/>
 <path d="m1072.5 0h-90.441c44.211 96 121.77 173.56 217.77 217.77v-90.441c-52.422-31.074-96.254-75.031-127.45-127.45z" fill="#fb6b85"/>
 <path d="m0 873.35v86.273c107.24 46.863 193.52 133.01 240.25 240.38h86.273c-54.82-151.45-175.2-271.83-326.65-326.65z" fill="#fb6b85"/>
 <path d="m326.65 0h-86.273c-46.863 107.24-133.14 193.52-240.38 240.25v86.273c151.45-54.695 271.83-175.07 326.65-326.53z" fill="#fb6b85"/>
 <path d="m217.77 0h-90.441c-31.074 52.422-74.906 96.254-127.33 127.45v90.441c96-44.336 173.56-121.89 217.77-217.89z" fill="#fb6b85"/>
 <path d="m851.75 0h-503.49c-56.465 162.7-185.56 291.79-348.25 348.25v503.37c162.7 56.59 291.79 185.56 348.25 348.25h503.37c56.59-162.7 185.56-291.79 348.25-348.25v-503.37c-162.7-56.59-291.79-185.56-348.25-348.25zm-251.75 1117.9c-285.6 0-517.89-232.29-517.89-517.89s232.29-517.89 517.89-517.89 517.89 232.29 517.89 517.89-232.29 517.89-517.89 517.89z" fill="#fb6b85"/>
 <path d="m959.75 0h-86.273c54.82 151.45 175.2 271.83 326.65 326.65v-86.273c-107.24-46.738-193.52-133.01-240.25-240.25z" fill="#fb6b85"/>
 <path d="m600 194.91c-223.33 0-405.09 181.77-405.09 405.09 0 223.33 181.77 405.09 405.09 405.09 223.33 0 405.09-181.77 405.09-405.09 0-223.33-181.77-405.09-405.09-405.09zm0 738.44c-183.79 0-333.35-149.56-333.35-333.35s149.56-333.35 333.35-333.35 333.35 149.56 333.35 333.35-149.56 333.35-333.35 333.35z" fill="#fb6b85"/>
 <path d="m600 471.79c-70.738 0-128.21 57.473-128.21 128.21s57.473 128.21 128.21 128.21 128.21-57.473 128.21-128.21-57.473-128.21-128.21-128.21zm0 184.67c-31.074 0-56.465-25.262-56.465-56.465 0-31.199 25.262-56.465 56.465-56.465 31.199 0 56.465 25.262 56.465 56.465 0 31.199-25.262 56.465-56.465 56.465z" fill="#fb6b85"/>
 <path d="m0 982.23v90.441c52.422 31.074 96.254 75.031 127.45 127.45h90.441c-44.211-96-121.77-173.56-217.77-217.77z" fill="#fb6b85"/>
 <path d="m873.35 1200h86.273c46.738-107.24 133.01-193.52 240.25-240.38v-86.273c-151.45 54.82-271.83 175.2-326.65 326.65z" fill="#fb6b85"/>
 <path d="m600 564.12c-19.832 0-35.875 16.168-35.875 35.875s16.168 35.875 35.875 35.875 35.875-16.168 35.875-35.875-16.168-35.875-35.875-35.875z" fill="#fb6b85"/>
 <path d="m982.23 1200h90.441c31.074-52.422 75.031-96.254 127.45-127.45v-90.441c-96 44.211-173.56 121.77-217.77 217.77z" fill="#fb6b85"/>
 <path d="m600 379.45c-121.64 0-220.55 98.906-220.55 220.55s98.906 220.55 220.55 220.55 220.55-98.906 220.55-220.55-98.906-220.55-220.55-220.55zm0 369.22c-81.98 0-148.67-66.695-148.67-148.67 0-81.98 66.695-148.67 148.67-148.67 81.98 0 148.67 66.695 148.67 148.67 0 81.98-66.695 148.67-148.67 148.67z" fill="#fb6b85"/>
 <path d="m600 287.12c-172.55 0-312.76 140.34-312.76 312.88s140.34 312.76 312.76 312.76 312.76-140.34 312.76-312.76-140.34-312.88-312.76-312.88zm0 553.89c-132.88 0-241.01-108.12-241.01-241.01 0-132.88 108.12-241.01 241.01-241.01 132.88 0 241.01 108.12 241.01 241.01 0 132.88-108.12 241.01-241.01 241.01z" fill="#fb6b85"/>
 <path d="m1096.7 1200h103.33v-103.33c-41.43 26.652-76.672 61.895-103.33 103.33z" fill="#fb6b85"/>
 <path d="m0 1096.7v103.33h103.33c-26.652-41.43-61.895-76.672-103.33-103.33z" fill="#fb6b85"/>
 <path d="m103.33 0h-103.33v103.33c41.43-26.656 76.672-61.898 103.33-103.33z" fill="#fb6b85"/>
 <path d="m1198.9 0h-102.19c26.652 41.43 61.895 76.672 103.33 103.33v-103.33z" fill="#fb6b85"/>
</svg>
