<?xml version="1.0" encoding="UTF-8"?>
<svg width="1200pt" height="1200pt" version="1.1" viewBox="0 0 1200 1200" xmlns="http://www.w3.org/2000/svg">
 <path d="m1199.7 599.75c0 69.414-56.27 125.68-125.68 125.68s-125.68-56.27-125.68-125.68c0-69.414 56.27-125.68 125.68-125.68s125.68 56.27 125.68 125.68z" fill="#c8e464"/>
 <path d="m725.75 125.68c0 69.414-56.27 125.68-125.68 125.68s-125.68-56.27-125.68-125.68c0-69.414 56.27-125.68 125.68-125.68s125.68 56.27 125.68 125.68z" fill="#c8e464"/>
 <path d="m725.75 1074.3c0 69.414-56.27 125.68-125.68 125.68s-125.68-56.27-125.68-125.68c0-69.414 56.27-125.68 125.68-125.68s125.68 56.27 125.68 125.68z" fill="#c8e464"/>
 <path d="m251.68 599.75c0 69.414-56.27 125.68-125.68 125.68s-125.68-56.27-125.68-125.68c0-69.414 56.27-125.68 125.68-125.68s125.68 56.27 125.68 125.68z" fill="#c8e464"/>
 <path d="m600.06 876.76c-152.71 0-277.01-124.29-277.01-277.01 0-152.71 124.29-277.01 277.01-277.01 152.71 0 277.01 124.29 277.01 277.01 0 152.71-124.29 277.01-277.01 277.01zm0-536.97c-143.37 0-259.96 116.59-259.96 259.96 0 143.37 116.59 259.96 259.96 259.96s259.96-116.59 259.96-259.96c0-143.37-116.59-259.96-259.96-259.96z" fill="#c8e464"/>
 <path d="m600.06 800.09c-110.4 0-200.34-89.809-200.34-200.34s89.809-200.34 200.34-200.34 200.34 89.809 200.34 200.34-89.809 200.34-200.34 200.34zm0-383.62c-101.05 0-183.29 82.23-183.29 183.29 0 101.05 82.23 183.29 183.29 183.29 101.05 0 183.29-82.23 183.29-183.29 0-101.05-82.23-183.29-183.29-183.29z" fill="#c8e464"/>
 <path d="m600.06 723.29c-68.211 0-123.54-55.453-123.54-123.54 0-68.086 55.453-123.54 123.54-123.54 68.086 0 123.54 55.453 123.54 123.54 0 68.086-55.453 123.54-123.54 123.54zm0-230.15c-58.738 0-106.61 47.746-106.61 106.61 0 58.863 47.746 106.61 106.61 106.61s106.61-47.746 106.61-106.61c0-58.863-47.746-106.61-106.61-106.61z" fill="#c8e464"/>
 <path d="m600.06 646.61c-25.895 0-46.863-21.094-46.863-46.863 0-25.77 21.094-46.863 46.863-46.863s46.863 21.094 46.863 46.863c0 25.77-21.094 46.863-46.863 46.863zm0-76.672c-16.422 0-29.809 13.391-29.809 29.809 0 16.422 13.391 29.809 29.809 29.809 16.422 0 29.809-13.391 29.809-29.809 0-16.422-13.391-29.809-29.809-29.809z" fill="#c8e464"/>
</svg>
