<?xml version="1.0" encoding="UTF-8"?>
<svg width="512pt" height="512pt" version="1.1" viewBox="0 0 512 512" xmlns="http://www.w3.org/2000/svg">
 <path d="m122.37 203.16-28.621 49.867v0.003906c-2.457 4.2773-2.457 9.543 0 13.824l28.621 49.867c2.4609 4.3125 7.043 6.9727 12.008 6.9727s9.5469-2.6602 12.004-6.9727l28.672-49.867h0.003907c2.457-4.2812 2.457-9.5469 0-13.824l-28.672-49.867-0.003906-0.003906c-2.457-4.3086-7.0391-6.9688-12.004-6.9688s-9.5469 2.6602-12.008 6.9688z" fill="#dfbfb8"/>
 <path d="m188.93 131.89-32.77 57.09c-1.8281 3.168-1.8281 7.0703 0 10.238l32.77 57.09c1.8164 3.207 5.2188 5.1914 8.9062 5.1914s7.0898-1.9844 8.9102-5.1914l32.77-57.09h-0.003906c1.832-3.168 1.832-7.0703 0-10.238l-32.77-57.09h0.003906c-1.8203-3.207-5.2227-5.1914-8.9102-5.1914s-7.0898 1.9844-8.9062 5.1914zm-25.602 57.141 22.887-40.961c1.7344-3.1172 4.9648-5.1055 8.5273-5.2539 3.5664-0.14453 6.9492 1.5742 8.9297 4.5391l27.957 41.32v-0.003906c2.2969 3.2578 2.5 7.5508 0.51172 11.008l-25.602 44.699c-1.8086 3.2344-5.2266 5.2344-8.9336 5.2344s-7.1211-2-8.9336-5.2344l-25.602-45.211c-1.6797-3.207-1.543-7.0586 0.35938-10.137z" fill="#dfbfb8"/>
 <path d="m63.949 119.71-37.07 64.613c-1.1836 2.0039-1.1836 4.4961 0 6.5039l37.07 64.512c1.1523 2.0352 3.3164 3.2969 5.6562 3.2969 2.3438 0 4.5039-1.2617 5.6602-3.2969l37.375-64.566c1.1641-1.9922 1.1641-4.457 0-6.4492l-37.375-64.613c-1.1562-2.0391-3.3164-3.2969-5.6602-3.2969-2.3398 0-4.5039 1.2578-5.6562 3.2969zm-29.953 64.254 29.391-53.656c1.1953-2.1562 3.4961-3.4609 5.9609-3.375 2.4648 0.085937 4.6719 1.5508 5.7109 3.7852l24.473 52.84v-0.003907c0.88672 1.8867 0.79297 4.0859-0.25391 5.8906l-24.523 42.852c-1.1094 1.9453-3.1406 3.1836-5.3789 3.2773-2.2344 0.09375-4.3633-0.96875-5.6328-2.8164l-29.387-41.93c-1.4414-2.0273-1.582-4.6992-0.35938-6.8633z" fill="#dfbfb8"/>
 <path d="m373.2 178.64-37.324 64.973c-1.125 1.9492-1.125 4.3477 0 6.2969l37.324 64.973c1.1211 1.9727 3.2109 3.1914 5.4805 3.1914 2.2656 0 4.3594-1.2188 5.4766-3.1914l37.324-64.973c1.125-1.9492 1.125-4.3477 0-6.2969l-37.477-64.973c-1.1367-1.8984-3.1875-3.0586-5.4023-3.0586-2.2109 0-4.2617 1.1602-5.4023 3.0586zm-24.574 68.504 25.141-55.652c0.96484-2.1836 3.0859-3.6367 5.4727-3.7422 2.3867-0.10938 4.6289 1.1406 5.7891 3.2305l29.543 52.684c1.0742 1.9258 1.0742 4.2695 0 6.1953l-28.57 50.328v0.003906c-1.1094 1.9961-3.2188 3.2344-5.5039 3.2344-2.2852 0-4.3906-1.2383-5.5039-3.2344l-25.957-47.309v-0.003906c-1.0625-1.7305-1.2148-3.8672-0.41016-5.7344z" fill="#dfbfb8"/>
 <path d="m194 274.38-35.84 62.465c-1.332 2.3516-1.332 5.2305 0 7.5781l35.84 62.465c1.3555 2.3359 3.8516 3.7734 6.5547 3.7734 2.6992 0 5.1992-1.4375 6.5547-3.7734l35.84-62.465c1.332-2.3477 1.332-5.2266 0-7.5781l-35.84-62.465c-1.3359-2.3633-3.8398-3.8242-6.5547-3.8242-2.7148 0-5.2188 1.4609-6.5547 3.8242zm-26.266 65.023 25.906-50.637v0.003906c1.2656-2.582 3.8867-4.2148 6.7617-4.2148 2.8711 0 5.4922 1.6328 6.7578 4.2148l23.242 47.664c1.0273 2.082 1.0273 4.5234 0 6.6055l-23.551 48.23c-1.2227 2.5391-3.75 4.1914-6.5664 4.2891-2.8164 0.09375-5.4531-1.3789-6.8477-3.8281l-25.602-45.105c-1.2617-2.2344-1.2969-4.9531-0.10156-7.2188z" fill="#dfbfb8"/>
 <path d="m311.86 266.24-34.098 59.547c-1.6406 2.7969-1.6406 6.2656 0 9.0625l34.098 59.391c1.625 2.8398 4.6406 4.5898 7.9102 4.5898s6.2891-1.75 7.9102-4.5898l34.098-59.391c1.5898-2.8125 1.5898-6.25 0-9.0625l-34.098-59.547c-1.6211-2.8359-4.6406-4.5859-7.9102-4.5859s-6.2852 1.75-7.9102 4.5859zm-21.605 59.238 22.066-47.512c1.4297-3.1172 4.4844-5.168 7.9102-5.3086s6.6406 1.6523 8.3203 4.6445l26.676 47.512c1.6367 2.8359 1.6367 6.3281 0 9.1641l-26.828 44.902c-1.7539 2.8633-4.9297 4.5391-8.2852 4.3672-3.3516-0.17188-6.3398-2.1602-7.793-5.1836l-22.016-44.699c-1.1992-2.4883-1.2148-5.3828-0.050782-7.8867z" fill="#dfbfb8"/>
 <path d="m392.24 153.6 29.492-51.812v-0.003906c2.2422-3.9375 6.3672-6.4336 10.895-6.5898 4.5312-0.15625 8.8164 2.0469 11.328 5.8242l35.273 52.582c2.75 4.1328 2.9297 9.4648 0.46094 13.77l-32.664 56.781c-2.293 4.1289-6.6445 6.6875-11.367 6.6875s-9.0703-2.5586-11.367-6.6875l-32.152-57.957c-2.1484-3.9336-2.1094-8.6953 0.10156-12.594z" fill="#dfbfb8"/>
 <path d="m345.75 172.95-29.797 71.988c-1.1875 2.9102-3.918 4.8984-7.0508 5.1367s-6.1328-1.3164-7.7461-4.0117l-38.398-63.488h-0.003907c-1.3867-2.332-1.5742-5.1836-0.51172-7.6797l25.191-57.496c1.1367-2.5977 3.5195-4.4336 6.3203-4.8672 2.8008-0.4375 5.6289 0.58984 7.5039 2.7148l43.059 49c2.0742 2.4023 2.6289 5.7617 1.4336 8.7031z" fill="#dfbfb8"/>
 <path d="m292.96 256-24.215 63.641c-0.93359 2.5195-3.2148 4.293-5.8867 4.5781-2.6719 0.28125-5.2734-0.97656-6.7109-3.2461l-36.555-56.984c-1.332-2.0938-1.4883-4.7305-0.41016-6.9648l28.621-58.215c1.1484-2.3008 3.4453-3.8008 6.0156-3.9297 2.5664-0.12891 5.0039 1.1406 6.375 3.3164l32.152 51.199c1.2734 1.9688 1.5039 4.4375 0.61328 6.6055z" fill="#dfbfb8"/>
 <path d="m484.81 319.85-34.816 63.59c-1.7539 3.1914-5.1641 5.1211-8.8047 4.9805-3.6445-0.14062-6.8945-2.3281-8.3984-5.6484l-27.75-61.441v0.003906c-1.2773-2.6523-1.2773-5.7461 0-8.3984l31.848-60.52c1.6758-3.1641 4.9648-5.1445 8.5508-5.1445 3.582 0 6.8711 1.9805 8.5508 5.1445l30.719 58.316v0.003906c1.5508 2.8281 1.5898 6.2461 0.10156 9.1133z" fill="#dfbfb8"/>
 <path d="m117.3 344.73-18.996 63.949c-1.2109 4.2461-4.7227 7.4453-9.0664 8.2461-4.3438 0.80469-8.7656-0.92188-11.414-4.457l-41.984-54.992c-2.5312-3.3086-3.1172-7.7148-1.5352-11.57l25.602-61.441-0.003906 0.003906c1.625-3.9922 5.3125-6.7656 9.5977-7.2148 4.2852-0.44922 8.4688 1.4961 10.883 5.0625l35.84 52.328c1.9062 3.0117 2.3047 6.7383 1.0781 10.086z" fill="#dfbfb8"/>
</svg>
