<?xml version="1.0" encoding="UTF-8"?>
<svg width="512pt" height="512pt" version="1.1" viewBox="0 0 512 512" xmlns="http://www.w3.org/2000/svg">
 <path d="m410.83 160.51s-72.293 71.016-72.293 96.613c0 25.602 72.293 96.668 72.293 96.668s72.297-73.32 72.297-96.668-72.297-96.613-72.297-96.613z" fill="#dfbfb8"/>
 <path d="m101.17 151.45s-72.297 70.965-72.297 96.613c0 25.652 72.297 96.617 72.297 96.617s72.293-73.32 72.293-96.617c0-23.293-72.293-96.613-72.293-96.613z" fill="#dfbfb8"/>
 <path d="m256.92 130.2s-72.293 100.2-72.293 125.8 72.293 125.8 72.293 125.8 72.293-102.5 72.293-125.8-72.293-125.8-72.293-125.8z" fill="#dfbfb8"/>
</svg>
