<?xml version="1.0" encoding="UTF-8"?>
<svg width="1200pt" height="1200pt" version="1.1" viewBox="0 0 1200 1200" xmlns="http://www.w3.org/2000/svg">
 <path d="m979.56 658.8v-1.1992c0-9.7188-7.8008-17.52-17.52-17.52l-766.92-0.003906c-9.7188 0-17.52 7.8008-17.52 17.52v1.1992h15.602v300.6h-15.602v1.1992c0 9.7188 7.8008 17.52 17.52 17.52h766.92c9.7188 0 17.52-7.8008 17.52-17.52v-1.1992h-15.602v-300.6h15.602zm-27.602 4.3203v290.28h-271.92c48.84-26.879 82.441-81.719 82.441-145.2s-33.602-118.2-82.441-145.08h271.92zm-333.12 164.88c2.3984 1.3203 5.0391 2.0391 7.9219 2.0391 10.922 0 19.922-10.68 19.922-23.879 0-13.199-8.8789-23.762-19.922-23.762-2.7617 0-5.5195 0.71875-7.9219 2.0391v-121.2h30.48c58.199 17.52 101.04 75.84 101.04 145.08 0 69.238-42.961 127.56-101.16 145.2h-30.48v-125.4zm0-21.84c0-6.3594 3.6016-11.762 7.9219-11.762 4.3203 0 7.9219 5.3984 7.9219 11.762 0 6.3594-3.6016 11.879-7.9219 11.879-4.3203 0-7.9219-5.3984-7.9219-11.879zm-46.199-143.04h34.199v290.28h-34.199zm-12 0v121.2c-2.3984-1.3203-5.0391-1.9219-7.9219-1.9219-10.922 0-19.922 10.68-19.922 23.762 0 13.078 8.8789 23.879 19.922 23.879 2.7617 0 5.5195-0.71875 7.9219-1.9219v125.4h-30.48c-58.199-17.52-101.16-75.961-101.16-145.2 0-69.238 42.961-127.44 101.16-145.08h30.48zm0 143.04c0 6.3594-3.6016 11.879-7.9219 11.879-4.3203 0-7.9219-5.3984-7.9219-11.879 0-6.4805 3.6016-11.762 7.9219-11.762 4.3203 0 7.9219 5.3984 7.9219 11.762zm-355.32-143.04h294.12c-48.84 26.762-82.441 81.719-82.441 145.08s33.602 118.32 82.441 145.2h-294.12v-290.28z" fill="#3e0920"/>
 <path d="m600.6 806.16c0 8.5508-4.8906 15.48-10.922 15.48s-10.918-6.9297-10.918-15.48c0-8.5508 4.8867-15.48 10.918-15.48s10.922 6.9297 10.922 15.48z" fill="#3e0920"/>
 <path d="m771 682.2v55.32c0 4.8008 3.8398 8.6406 8.6406 8.6406h143.16c4.8008 0 8.6406-3.8398 8.6406-8.6406v-55.32c0-4.8008-3.8398-8.6406-8.6406-8.6406h-143.16c-4.8008 0-8.6406 3.8398-8.6406 8.6406zm80.16 50.398c-18.121 0-32.762-7.5586-32.762-16.922 0-9.3594 14.641-16.922 32.762-16.922s32.762 7.5586 32.762 16.922c0 9.3594-14.641 16.922-32.762 16.922z" fill="#3e0920"/>
 <path d="m851.16 726.6c-16.078 0-26.762-6.6016-26.762-10.922 0-4.3203 10.68-10.922 26.762-10.922 16.078 0 26.762 6.6016 26.762 10.922 0 4.3203-10.68 10.922-26.762 10.922z" fill="#3e0920"/>
 <path d="m771 778.44v55.32c0 4.8008 3.8398 8.6406 8.6406 8.6406h143.16c4.8008 0 8.6406-3.8398 8.6406-8.6406v-55.32c0-4.8008-3.8398-8.6406-8.6406-8.6406h-143.16c-4.8008 0-8.6406 3.8398-8.6406 8.6406zm80.16 50.398c-18.121 0-32.762-7.5586-32.762-16.922 0-9.3594 14.641-16.922 32.762-16.922s32.762 7.5586 32.762 16.922c0 9.3594-14.641 16.922-32.762 16.922z" fill="#3e0920"/>
 <path d="m851.16 822.84c-16.078 0-26.762-6.6016-26.762-10.922 0-4.3203 10.68-10.922 26.762-10.922 16.078 0 26.762 6.6016 26.762 10.922 0 4.3203-10.68 10.922-26.762 10.922z" fill="#3e0920"/>
 <path d="m771 874.8v55.32c0 4.8008 3.8398 8.6406 8.6406 8.6406h143.16c4.8008 0 8.6406-3.8398 8.6406-8.6406v-55.32c0-4.8008-3.8398-8.6406-8.6406-8.6406h-143.16c-4.8008 0-8.6406 3.8398-8.6406 8.6406zm80.16 50.398c-18.121 0-32.762-7.5586-32.762-16.922 0-9.3594 14.641-16.922 32.762-16.922s32.762 7.5586 32.762 16.922c0 9.3594-14.641 16.922-32.762 16.922z" fill="#3e0920"/>
 <path d="m851.16 919.2c-16.078 0-26.762-6.6016-26.762-10.922 0-4.3203 10.68-10.922 26.762-10.922 16.078 0 26.762 6.6016 26.762 10.922 0 4.3203-10.68 10.922-26.762 10.922z" fill="#3e0920"/>
 <path d="m401.04 750.12h-169.68c-7.0781 0-12.84-5.7617-12.84-12.84v-56.16h195.48v56.039c0 7.0781-5.7617 12.84-12.84 12.84zm-170.52-57v44.16l170.52 0.83984s0.83984-0.35938 0.83984-0.83984v-44.039h-171.48z" fill="#3e0920"/>
 <path d="m286.56 709.2h53.879v12.84h-53.879z" fill="#3e0920"/>
 <path d="m363.96 727.08h-100.8v-23.039h100.8zm-97.801-3h94.801v-17.039h-94.801z" fill="#3e0920"/>
 <path d="m401.04 846.36h-169.68c-7.0781 0-12.84-5.7617-12.84-12.84v-56.16h195.48v56.039c0 7.0781-5.7617 12.84-12.84 12.84zm-170.52-57v44.16l170.52 0.83984s0.83984-0.35938 0.83984-0.83984v-44.039h-171.48z" fill="#3e0920"/>
 <path d="m286.56 805.44h53.879v12.84h-53.879z" fill="#3e0920"/>
 <path d="m363.96 823.44h-100.8v-23.039h100.8zm-97.801-3h94.801v-17.039h-94.801z" fill="#3e0920"/>
 <path d="m401.04 942.72h-169.68c-7.0781 0-12.84-5.7617-12.84-12.84v-56.16h195.48v56.039c0 7.0781-5.7617 12.84-12.84 12.84zm-170.52-57v44.16l170.52 0.83984s0.83984-0.35938 0.83984-0.83984v-44.039h-171.48z" fill="#3e0920"/>
 <path d="m286.56 901.8h53.879v12.84h-53.879z" fill="#3e0920"/>
 <path d="m363.96 919.68h-100.8v-23.039h100.8zm-97.801-3h94.801v-17.039h-94.801z" fill="#3e0920"/>
 <path d="m848.28 978.12h-539.04l-4.3203 142.08h11.16l11.16-108.96c0.48047-4.3203 4.0781-7.6797 8.3984-7.8008l20.762-0.48047-10.199 9.9609c-10.199 9.9609-17.16 79.078-17.16 79.078h9.1211s3.2383-39.602 15.48-59.762c10.801-17.52 32.641-25.922 37.922-27.719 0.83984-0.23828 1.5586-0.35938 2.3984-0.35938l84.359-1.3203 2.0391-3.1211c2.5195 0 4.9219 0.60156 7.0781 1.9219 14.52 8.8789 73.559 44.641 91.32 44.641 17.762 0 76.801-35.762 91.32-44.641 2.1602-1.3203 4.5586-1.9219 7.0781-1.9219l2.0391 3.1211 84.359 1.3203c0.83984 0 1.5586 0.12109 2.3984 0.35938 5.2812 1.8008 27.121 10.078 37.922 27.719 12.238 20.039 15.48 59.762 15.48 59.762h9.1211s-6.9609-69.121-17.16-79.078c-6.8008-6.6406-10.199-9.9609-10.199-9.9609l20.762 0.48047c4.3203 0 8.0391 3.4805 8.3984 7.8008l11.16 108.96h11.16l-4.3203-142.08z" fill="#3e0920"/>
 <path d="m926.28 483.96v-3.8398c0-1.6797-1.3203-3-3-3.2383l-32.281-125.76-0.23828-1.0781h-0.35938v-4.1992c0-1.3203-1.0781-2.3984-2.3984-2.3984h-81.121c-1.3203 0-2.3984 1.0781-2.3984 2.3984v4.3203h-0.35938l-32.641 126.84c-1.6797 0-3 1.4414-3 3.1211v3.9609h62.762v6.3594s-42.719 17.879-42.719 39.961c0 22.078 25.68 68.398 39.238 77.762v8.1602s-14.281-0.71875-14.16 7.8008c0.12109 8.3984 6 11.281 6 11.281h55.922s5.8789-2.7617 6-11.281c0.12109-8.3984-14.039-7.8008-14.039-7.8008v-8.1602c13.441-9.2383 39.121-55.559 39.121-77.762 0-22.199-42.719-39.961-42.719-39.961v-6.3594h62.762zm-119.88-130.92h81.961l31.199 121.32h-144.24l31.199-121.32z" fill="#3e0920"/>
 <path d="m718.32 207.6h0.12109c-9.6016-14.398-94.68-139.56-134.16-139.56h-5.5195c-39.48 0-124.44 120.72-134.04 134.52-43.68 37.801-71.52 93.48-71.52 155.52 0 113.4 92.281 205.56 205.56 205.56 113.28 0 205.56-92.281 205.56-205.56 0-59.52-25.559-112.92-66-150.48zm-139.56-127.56h5.5195c20.398 0 67.32 55.199 102.72 103.68-31.559-19.68-68.52-31.199-108.36-31.199-37.68 0-72.84 10.32-103.32 28.078 35.52-46.922 82.68-100.56 103.32-100.56zm0 471.72c-106.8 0-193.56-86.879-193.56-193.56s86.879-193.56 193.56-193.56c106.68 0 193.56 86.879 193.56 193.56s-86.879 193.56-193.56 193.56z" fill="#3e0920"/>
 <path d="m594.84 89.762c0 7.2891-5.9102 13.199-13.199 13.199s-13.199-5.9102-13.199-13.199c0-7.293 5.9102-13.203 13.199-13.203s13.199 5.9102 13.199 13.203z" fill="#3e0920"/>
 <path d="m564.36 480.96 13.801-27.84c0.35938-0.83984 0.60156-1.6797 0.60156-2.6406v-258.36c-2.3984-2.2812-3.7188-3.6016-6.1211-6-4.8008 0.23828-9.6016 0.60156-14.398 1.3203-2.8789 0.35938-5.1602 2.8789-5.1602 5.8789v285c0 6.2383 8.3984 8.1602 11.16 2.6406z" fill="#3e0920"/>
 <path d="m599.16 410.88 89.16-179.52c1.1992-2.5195 0.60156-5.5195-1.5586-7.3203-25.68-20.641-57.48-33.961-92.398-37.078-3.4805-0.35938-6.4805 2.5195-6.4805 6v215.4c0 6.2383 8.3984 8.1602 11.16 2.6406z" fill="#3e0920"/>
 <path d="m543.96 520.68v-323.64c0-3.8398-3.6016-6.7188-7.3203-5.8789-7.8008 1.9219-15.359 4.5586-22.68 7.5586-2.2812 0.96094-3.7188 3.1211-3.7188 5.5195v307.68c0 2.3984 1.4414 4.6797 3.7188 5.5195 9 3.7188 18.238 6.7188 27.961 8.7617l2.8789-5.6406h-0.60156z" fill="#3e0920"/>
 <path d="m501 214.68c0-4.4414-4.9219-7.4414-8.7617-5.1602-51.121 29.762-85.559 85.078-85.559 148.56s34.441 119.04 85.559 148.92c3.8398 2.2812 8.7617-0.71875 8.7617-5.1602z" fill="#3e0920"/>
</svg>
