<?xml version="1.0" encoding="UTF-8"?>
<svg width="1200pt" height="1200pt" version="1.1" viewBox="0 0 1200 1200" xmlns="http://www.w3.org/2000/svg">
 <path d="m561.69 357.12c-4.7617-1.3242-13.68-5.5547-18.25-14.551-2.9492-5.7812-4.0078-13.527-1.1328-23.652 3.4766-12.355 12.164-19.801 22.027-23.164 11.184-3.8164 23.918-2.5664 32.457 2.8359 26.223 16.512 37.523 42.812 39.602 75.762 3.5508 55.73-18.895 130.02-42.625 209.61-18.398 61.645-28.223 129.12-28.223 193.6 0.035156 71.504 12.242 139.32 38.312 191.49 0.94531 1.8672 3.2109 2.625 5.0625 1.6953 1.8516-0.93359 2.6445-3.207 1.7031-5.0742-25.582-51.242-37.484-117.88-37.523-188.11 0-63.758 9.7109-130.48 27.887-191.43 24.07-80.586 46.551-155.86 42.961-212.27-2.2656-35.594-14.812-63.82-43.113-81.695-10.277-6.4609-25.504-8.1602-38.918-3.5508-12.055 4.1211-22.633 13.188-26.902 28.227-3.5156 12.508-1.9648 22.027 1.6992 29.172 5.7422 11.297 16.93 16.738 22.938 18.402 2.0391 0.56641 4.1172-0.64453 4.6836-2.6484 0.52734-2-0.64062-4.0781-2.6445-4.6445z" fill="#c8e464" fill-rule="evenodd"/>
 <path d="m603.93 577.14c11.484-11.898 28.602-24.051 46.738-32.73 18.781-8.9922 38.617-14.344 54.262-11.387 12.055 2.2812 24.977 10.242 33.137 21.754 7.293 10.281 10.73 23.453 6.0859 37.977-2.5352 7.9297-6.918 13.793-12.168 17.793-6.1211 4.6562-13.453 6.7969-20.293 6.7969-5.4023 0-11.258-2.4414-15.68-6.2383-4.3086-3.6758-7.332-8.668-6.8008-14.133 0.1875-2.0742-1.3242-3.9219-3.4023-4.1211-2.0781-0.19531-3.9297 1.332-4.1172 3.4102-0.75781 7.8945 3.2109 15.277 9.3711 20.578 5.8164 4.9805 13.562 8.0586 20.629 8.0586 8.3906 0 17.344-2.625 24.863-8.3359 6.3867-4.8438 11.754-11.91 14.812-21.516 5.4414-17.066 1.4375-32.555-7.1406-44.641-9.332-13.152-24.109-22.203-37.863-24.809h-0.035157c-13.906-2.6367-30.984 0.54297-47.914 7.1953-22.898 8.9922-45.605 24.254-59.926 39.102-1.4375 1.5-1.3984 3.8945 0.11328 5.3398 1.4727 1.4531 3.8906 1.4062 5.3281-0.09375z" fill="#c8e464" fill-rule="evenodd"/>
 <path d="m444.14 737.76c-19.727-19.617-15.871-45.594-1.2109-61.27 14.172-15.199 38.504-20.547 61.215-1.2461 13.754 11.691 22.293 24.145 28.188 37.129 7.7852 17.227 10.918 35.359 15.152 53.836 4.1172 17.895 9.1797 36.094 20.027 54.152 1.0547 1.7891 3.3633 2.375 5.1758 1.3008 1.7734-1.0703 2.3789-3.3906 1.2852-5.1797-10.355-17.32-15.191-34.801-19.121-51.965-4.3438-18.969-7.6328-37.574-15.645-55.262-6.3086-13.902-15.453-27.25-30.188-39.77-26.566-22.586-55.02-15.941-71.645 1.8477-17.152 18.367-21.688 48.797 1.4766 71.789 1.4727 1.4688 3.8516 1.457 5.3242-0.019532 1.4766-1.4805 1.4766-3.875-0.035156-5.3438z" fill="#c8e464" fill-rule="evenodd"/>
 <path d="m437.26 741.69c6.2734 7.5312 15.719 7.4609 21.992 3.3828 3.6641-2.3867 6.2344-6.1211 6.6523-10.488 0.33984-3.4727-0.64453-7.4258-3.8164-11.438-6.7656-8.5508-15.871-7.9922-21.957-3.5664-6.4961 4.75-9.5586 14.086-2.8711 22.109zm5.7812-4.8398c-3.3633-4.0508-1.7383-8.7578 1.5508-11.16 3.2109-2.3398 8.0117-2.3828 11.602 2.1484 1.6602 2.125 2.3789 4.1602 2.1914 6.0039-0.19141 2.0664-1.5117 3.7695-3.25 4.8945-3.4414 2.2422-8.6523 2.25-12.094-1.8828z" fill="#c8e464" fill-rule="evenodd"/>
 <path d="m681.88 598.99c0.41797 6.5312 3.0625 10.863 6.6523 13.512 4.043 2.9883 9.4062 3.832 14.699 2.832 10.012-1.9141 19.117-10.508 17.227-21.324-1.9258-10.895-12.316-16.688-21.875-15.863-5.0625 0.4375-9.8633 2.7266-13.039 6.9258-2.4922 3.332-4.043 7.9219-3.6641 13.918zm7.5586-0.47266c-0.26562-3.8125 0.56641-6.7773 2.1523-8.8984 1.8516-2.4453 4.6875-3.6914 7.6328-3.9414 5.9727-0.51562 12.621 2.8594 13.793 9.6406 1.1719 6.6523-5.0273 11.414-11.223 12.59-3.1367 0.59766-6.3867 0.29688-8.7656-1.4805-2.0781-1.5312-3.3633-4.1406-3.5898-7.9102z" fill="#c8e464" fill-rule="evenodd"/>
 <path d="m556.85 362.41c8.3867 7.1016 18.289 4.1172 23.957-2.6836 5.4375-6.5742 6.8008-16.625-1.0234-24.105-8.1602-7.7461-19.117-5.0664-25.203 1.8125-3.1719 3.5898-4.9844 8.2734-4.4961 13.109 0.41797 4.0078 2.418 8.2031 6.7656 11.867zm4.875-5.7422c-2.5703-2.1953-3.8945-4.5352-4.1211-6.918-0.26172-2.6797 0.83203-5.2891 2.6094-7.293 3.5117-3.9297 9.7109-5.7812 14.355-1.3594 4.5 4.2695 3.5547 10.016 0.41797 13.793-3.1367 3.7773-8.6172 5.668-13.262 1.7773z" fill="#c8e464" fill-rule="evenodd"/>
 <path d="m589.69 287.59c-7.6328-2.1523-13-6.1211-16.512-10.805-4.4219-5.9727-5.8945-13-5.1406-18.48 0.41406-3.1367 1.9258-6.2695 4.4961-8.3125 2.1523-1.6992 5.1016-2.457 8.6523-1.625 2.6836 0.64453 4.3086 2.3438 4.2695 4.1562-0.074219 1.6641-1.7383 2.6836-4.457 2.6836-2.0781 0-3.7773 1.6992-3.7773 3.7773s1.6992 3.7812 3.7773 3.7812c8.1602 0 11.828-5.0273 11.977-10.016 0.15234-4.7227-3.0586-10.086-10.051-11.711-6.2344-1.4766-11.297 0.074219-15.074 3.0234-4.082 3.2109-6.6133 8.2344-7.293 13.223-0.98438 7.1055 0.79297 16.285 6.5742 23.996 4.3828 5.8555 11.031 10.918 20.516 13.562 2.043 0.56641 4.1211-0.60547 4.6875-2.6055 0.52734-2.0039-0.64453-4.082-2.6445-4.6484z" fill="#c8e464" fill-rule="evenodd"/>
 <path d="m629.96 322.28c-6.7617-11.109-8.6914-20.668-7.5547-28.188 1.6992-10.809 9.9375-17.117 17.945-16.703 5.2539 0.26562 8.6172 2.6836 10.164 5.8945 1.7773 3.7031 1.3242 8.2773-1.4336 10.617-0.98438 0.87109-2.5312 1.1719-3.6289 0.45703-1.0195-0.68359-1.3594-2.1172-1.1719-4.2344 0.22656-2.0781-1.3203-3.9297-3.3984-4.1172-2.0781-0.19141-3.9297 1.3203-4.1211 3.3984-0.56641 5.9336 1.7383 9.4844 4.6133 11.301 3.8164 2.4531 9.1797 1.8867 12.617-1.0586 5.1016-4.3477 6.6523-12.773 3.3281-19.648-2.5703-5.293-7.8984-9.7109-16.59-10.164-9.4062-0.49219-19.348 5.25-23.805 15.98-4.0039 9.6367-3.6641 23.543 6.5391 40.395 1.0938 1.7773 3.4375 2.3438 5.2109 1.2852 1.7773-1.0977 2.3438-3.4023 1.2852-5.2148z" fill="#c8e464" fill-rule="evenodd"/>
 <path d="m643.42 368.38c0.90625-8.2734 5.4414-16.059 11.375-21.5 6.3477-5.7812 14.355-9.0312 21.309-6.4219 2.457 0.90625 4.4609 2.4922 5.5938 4.6094 1.0195 2.0039 1.2852 4.4219 0.56641 7.1016-0.41406 1.4375-2.0391 2.043-3.4375 2.043-0.56641 0-1.1719-0.078125-1.5508-0.49219-0.33984-0.30078-0.45313-0.83203-0.45313-1.4727 0-2.0781-1.6641-3.7812-3.7773-3.7812-2.0781 0-3.7812 1.7031-3.7812 3.7812 0 3.0977 1.1367 5.3633 2.7227 6.9141 1.7734 1.6992 4.2305 2.6055 6.8398 2.6055 4.6094 0 9.4062-2.8711 10.73-7.5938 1.2852-4.7617 0.67969-9.0664-1.2109-12.621-1.9258-3.7031-5.3281-6.5742-9.5586-8.1992-9.4102-3.5117-20.48 0.11328-29.094 7.9727-7.2578 6.6133-12.695 16.172-13.754 26.262-0.22656 2.0391 1.2461 3.9297 3.3242 4.1562 2.0781 0.22656 3.9297-1.2852 4.1562-3.3633z" fill="#c8e464" fill-rule="evenodd"/>
 <path d="m639.87 435.11c1.2461-8.7305 7.293-15.152 14.355-18.668 7.8594-3.8906 17.117-4.418 22.711 0.078125 2.1914 1.7734 3.1758 4.3438 3.2891 6.8398 0.074219 2.7188-0.83203 5.4414-2.6484 7.1016-1.7734 1.625-3.7031 1.8125-5.0625 0.83203-1.4727-1.0586-2.2266-3.1367-1.4727-5.2148 0.67969-1.9648-0.37891-4.1172-2.3438-4.8359-1.9648-0.67969-4.1172 0.33984-4.7969 2.3438-1.9648 5.5547 0.26172 11.07 4.2695 13.902 3.8555 2.7227 9.4062 3.2148 14.508-1.4336 3.3281-3.0234 5.2539-7.9375 5.0664-12.961-0.15234-4.6094-2.043-9.2188-6.0469-12.434-7.6328-6.1562-20.18-6.2695-30.797-0.98047-9.2188 4.5703-16.891 13.035-18.516 24.332-0.30078 2.0781 1.1367 4.0078 3.2148 4.2734 2.0391 0.30078 3.9648-1.1367 4.2695-3.1758z" fill="#c8e464" fill-rule="evenodd"/>
 <path d="m600.3 451.01c0.60547 1.2852 0.79297 2.3438 0.45312 3.1758-0.37891 0.90625-1.2461 1.3984-2.2305 1.625-2.2656 0.52734-5.1016-0.33984-6.4609-3.0625-1.2461-2.5664-1.4336-6.3086 0.30469-9.5195 1.3945-2.6094 4.043-4.7617 8.2344-5.8945 2.0781-0.60547 4.5742-0.30469 7.0664 0.64062 5.0625 1.8906 10.164 6.5 13.414 13.453 3.3633 7.2539 4.6484 16.965 1.9648 28.941-0.41406 2.043 0.87109 4.082 2.9102 4.5352 2.0039 0.45312 4.043-0.86719 4.4961-2.8711 3.8906-17.723 0.1875-31.137-6.082-39.902-7.293-10.238-18.176-14.168-25.77-12.09-6.6523 1.7734-10.656 5.4766-12.887 9.5977-2.9844 5.5547-2.6055 11.977-0.41406 16.438 3.0977 6.3477 9.7461 8.3477 15 7.0625 3.3984-0.82812 6.1953-2.9844 7.4414-6.082 1.0234-2.457 1.1367-5.5938-0.60156-9.2578-0.87109-1.8906-3.1367-2.6836-5.0273-1.8125-1.8867 0.90625-2.6836 3.1367-1.8125 5.0234z" fill="#c8e464" fill-rule="evenodd"/>
 <path d="m611.68 386.62c0.57031 1.25 0.79688 2.3047 0.41797 3.1758-0.33984 0.86719-1.2461 1.3594-2.2305 1.625-2.2656 0.52734-5.1016-0.33984-6.4219-3.0625-1.2852-2.6055-1.4375-6.3477 0.30078-9.5586 1.3594-2.5703 4.043-4.7617 8.1992-5.8945 6.2344-1.6992 13.074 1.4375 17.797 9.1836 3.4023 5.5156 5.707 13.297 6.1602 23.426 0.11328 2.0781 1.8516 3.7031 3.9297 3.5898 2.1172-0.074219 3.7031-1.8516 3.6289-3.9297-0.68359-14.887-5.0664-25.395-10.809-31.816-6.6133-7.4805-15.074-9.8242-22.707-7.7461-6.6133 1.8125-10.656 5.5156-12.887 9.6367-2.9844 5.5156-2.6055 11.977-0.41406 16.438 3.1328 6.3477 9.7852 8.3477 15.035 7.0625 3.3633-0.82812 6.1602-3.0195 7.4453-6.082 0.98438-2.457 1.0977-5.5938-0.60547-9.2578-0.90625-1.8906-3.1367-2.7188-5.0234-1.8125-1.8906 0.86719-2.7227 3.1367-1.8164 5.0234z" fill="#c8e464" fill-rule="evenodd"/>
 <path d="m683.39 492.12c-2.5312 0.375-4.043-0.22656-4.4219-1.7031-0.48828-1.9648 0.41797-4.457 2.1562-5.8555 2-1.5859 4.6484-2.1172 7.2148-1.8125 2.6094 0.30078 5.1406 1.5117 6.9141 3.5117 5.2148 5.9336 4.6133 13.301 1.0586 20.219-5.0625 9.8594-16.02 18.852-27.316 22.75-1.9648 0.67969-2.9883 2.832-2.3047 4.8047 0.67969 1.9688 2.832 3.0195 4.7969 2.3398 13.074-4.5156 25.695-15.027 31.551-26.457 5.0273-9.7891 5.2891-20.215-2.1172-28.641-2.9453-3.4023-7.2148-5.4805-11.637-6.0078-4.6094-0.57031-9.293 0.52734-12.883 3.3984-4.0078 3.1758-5.8945 9.0312-4.7617 13.566 0.60547 2.3047 1.8867 4.3438 3.8906 5.7422 2.0781 1.3984 4.9883 2.2305 8.9922 1.625 2.043-0.30078 3.4766-2.2305 3.1758-4.3086-0.33984-2.0391-2.2695-3.4766-4.3086-3.1719z" fill="#c8e464" fill-rule="evenodd"/>
 <path d="m739.7 502.1c-1.1328-0.14844-1.9648-0.56641-2.418-1.2812-0.56641-0.91016-0.56641-2.043-0.26562-3.1016 0.56641-2.2266 2.5703-4.2305 5.5547-4.2305 3.1367 0 6.4258 1.0586 8.6914 3.4023 1.8906 1.9258 2.9492 4.7969 2.5703 8.5742-0.67969 6.6523-4.4609 11.414-9.5234 14.805-8.4258 5.6055-20.176 7.5547-28.793 7.5547-2.0781 0-3.7773 1.6953-3.7773 3.7773 0 2.0859 1.6992 3.7812 3.7773 3.7812 9.9023 0 23.316-2.3984 32.988-8.8242 6.9141-4.6133 11.941-11.23 12.848-20.336 0.64062-6.4258-1.3984-11.262-4.6875-14.625-3.6641-3.7773-8.9922-5.668-14.094-5.668-6.9531 0-11.523 4.7227-12.883 9.8242-0.83203 3.1367-0.41797 6.4258 1.1328 8.9961 1.5117 2.4531 4.082 4.3828 7.9727 4.8359 2.0391 0.26172 3.9297-1.2109 4.1953-3.2891 0.26172-2.0391-1.2109-3.9297-3.2891-4.1953z" fill="#c8e464" fill-rule="evenodd"/>
 <path d="m744.95 568.61c4.9883 13.48 13.375 23.352 22.445 28.266 8.4258 4.5547 17.492 4.9844 25.43 0.49219 5.8164-3.2812 8.8398-8.4375 9.5195-13.66 0.83203-5.957-1.3984-12.023-6.0469-15.785-4.8359-3.9297-11.41-2.9922-15.754 0.49219-4.7227 3.7773-6.7656 10.148-2.0039 15.855 1.3242 1.6016 3.7422 1.8125 5.3281 0.47656 1.5859-1.3438 1.8125-3.7266 0.45312-5.3242-1.5508-1.8516-0.60547-3.8828 0.94531-5.1055 1.7383-1.3945 4.3438-2.1016 6.2734-0.53125 2.6055 2.1133 3.7773 5.5547 3.3242 8.9062-0.41797 3.1133-2.3047 6.1367-5.7422 8.0938-7.0312 3.9727-15.191 2.2305-22.332-3.3398-6.0078-4.7109-11.301-12.117-14.773-21.469-0.71875-1.9531-2.9102-2.9531-4.8398-2.2266-1.9648 0.73047-2.9453 2.9062-2.2266 4.8594z" fill="#c8e464" fill-rule="evenodd"/>
 <path d="m586.44 643.87c0-8.9609-0.49219-19.121-3.7422-27.297-2.5703-6.4766-6.7617-11.758-13.488-14.668-5.2148-2.2578-11.223-2.2695-16.211-0.23047-5.2148 2.1289-9.3711 6.4258-10.691 12.699-1.9297 9.2773 1.7383 14.34 6.043 16.418 6.1992 2.9961 14.777-0.27344 16.438-7.5117 0.49219-2.0312-0.79297-4.0625-2.832-4.5312-2.0039-0.46875-4.043 0.80078-4.4961 2.8359-0.60547 2.5156-3.668 3.4414-5.8203 2.3984-2.0391-0.98047-2.8359-3.6602-1.9258-8.0469 0.75391-3.5977 3.1719-6.0469 6.1562-7.2656 3.1758-1.3047 6.9922-1.2695 10.316 0.16797 4.8008 2.0664 7.6719 5.918 9.4844 10.52 2.9102 7.332 3.2109 16.469 3.2109 24.512 0 2.0859 1.7031 3.7773 3.7812 3.7773s3.7773-1.6914 3.7773-3.7773z" fill="#c8e464" fill-rule="evenodd"/>
 <path d="m609.64 556.68c1.7383-11.625 0.90625-23.145-2.5703-32.199-3.0586-7.9141-8.1211-13.996-15.188-17.059-5.2148-2.2266-11.223-2.2656-16.211-0.22656-5.2148 2.1562-9.3711 6.4258-10.695 12.715-1.9258 9.2734 1.7383 14.336 6.0469 16.414 6.1992 3 14.773-0.26953 16.438-7.5117 0.49219-2.0312-0.79297-4.0625-2.832-4.5273-2.0039-0.46875-4.043 0.80078-4.5 2.832-0.60156 2.5156-3.6641 3.4414-5.8164 2.3984-2.043-0.98047-2.8359-3.6602-1.9297-8.0469 0.75781-3.6172 3.1758-6.0352 6.1602-7.2812 3.1758-1.2852 6.9922-1.2461 10.316 0.1875 5.2891 2.2695 8.8789 6.9414 11.145 12.824 3.1016 7.9727 3.7031 18.125 2.1562 28.359-0.30469 2.0625 1.1328 3.9883 3.1719 4.2969 2.0781 0.30859 4.0078-1.1172 4.3086-3.1758z" fill="#c8e464" fill-rule="evenodd"/>
 <path d="m578.43 694.37c1.625-8.4766 5.3281-15.316 9.7852-20.512 6.0117-6.9414 13.266-10.973 18.516-11.848 3.8555-0.64062 7.2578-0.27734 9.75 1.3164 2.3789 1.5195 3.6641 4.2031 3.6641 7.8516 0 2.2109-1.0586 3.9141-2.4922 4.9297-0.79297 0.58203-1.6992 0.95312-2.6094 1.0234-0.60156 0.054688-1.207-0.007812-1.625-0.39844-0.375-0.32422-0.52734-0.82812-0.60156-1.4609-0.30469-2.0664-2.1914-3.5195-4.2695-3.2422-2.043 0.27344-3.5156 2.1758-3.25 4.2422 0.41406 3.0312 1.7734 5.1367 3.5508 6.5078 1.9648 1.5117 4.4961 2.1523 7.1797 1.8516 5.5547-0.63281 11.676-5.5664 11.676-13.453 0-6.6953-2.7969-11.426-7.1406-14.215-3.8555-2.4727-9.1094-3.4062-15.078-2.4062-6.4609 1.0781-15.605 5.8008-22.973 14.371-5.2539 6.0898-9.6367 14.102-11.488 24.039-0.37891 2.0508 0.94531 4.0312 3.0234 4.4141 2.0391 0.38672 4.0039-0.96094 4.3828-3.0117z" fill="#c8e464" fill-rule="evenodd"/>
 <path d="m591.43 622.44c2.6055-7.1133 6.4961-12.586 10.844-16.625 5.5938-5.2383 11.902-8.0703 17.078-8.9297 3.7422-0.625 7.0664-0.074218 9.5234 1.5352 2.457 1.6094 3.8906 4.3008 3.8906 7.625 0 1.9844-1.1719 3.5664-2.6055 4.5664-1.7773 1.2266-4.3828 1.9727-4.7227-0.46484-0.26562-2.0664-2.1953-3.5234-4.2344-3.2461-2.0781 0.27734-3.5117 2.1758-3.25 4.2422 0.41797 3.0898 1.8164 5.1602 3.6289 6.4609 1.9258 1.4102 4.457 1.9453 7.1016 1.5547 5.5938-0.83203 11.641-6.0117 11.641-13.113 0-6.1133-2.7969-10.984-7.293-13.941-3.8555-2.5273-9.0703-3.6523-14.926-2.6758-6.3477 1.0625-14.133 4.4453-21.008 10.871-5.0664 4.7422-9.6758 11.152-12.773 19.508-0.71875 1.9531 0.26563 4.1328 2.2305 4.8555 1.9648 0.73047 4.1172-0.26562 4.875-2.2227z" fill="#c8e464" fill-rule="evenodd"/>
 <path d="m619.39 523.85c3.2109-8.6797 6.9531-15.062 11.184-19.41 3.5898-3.7383 7.5195-5.8945 11.715-6.5742 3.7383-0.60547 7.0664-0.074219 9.5195 1.5508 2.457 1.5859 3.8945 4.3047 3.8945 7.6328 0 1.9648-1.1719 3.5508-2.6094 4.5312-1.7734 1.25-4.418 2.0039-4.7227-0.45312-0.30078-2.0781-2.1914-3.5117-4.2695-3.25-2.0391 0.26562-3.5156 2.1914-3.2109 4.2344 0.37891 3.0977 1.8125 5.1758 3.5898 6.4609 1.9648 1.4297 4.4961 1.9609 7.1406 1.5703 5.5938-0.82812 11.637-6.0273 11.637-13.094 0-6.1211-2.793-10.996-7.3281-13.945-3.8164-2.5312-9.0312-3.6641-14.887-2.6836-5.6328 0.94531-11.035 3.7422-15.91 8.7695-4.7969 4.9492-9.1797 12.164-12.848 22.031-0.71875 1.9531 0.30469 4.1289 2.2305 4.8555 1.9648 0.72656 4.1562-0.27344 4.875-2.2266z" fill="#c8e464" fill-rule="evenodd"/>
 <path d="m586.21 897.18c-1.4727-10.461 0.074218-19.957 3.2852-27.715 4.1953-10.203 11.148-17.438 17.57-19.375 5.5547-1.668 9.7891-1.3516 12.699 0.49609 3.3984 2.1602 4.5312 6.332 3.7383 10.48-0.64062 3.3594-2.6055 5.4219-4.9102 6.1875-2.3828 0.78516-5.1016 0.32422-6.1602-1.7383-0.94531-1.8555-3.25-2.5898-5.1016-1.6367-1.8516 0.95703-2.5703 3.2344-1.625 5.0898 2.6836 5.2227 9.2969 7.4492 15.266 5.4531 4.4961-1.4961 8.6914-5.3125 9.9766-11.914 1.3984-7.3203-1.1328-14.484-7.1406-18.297-4.3086-2.7578-10.656-3.8555-18.934-1.3555-8.0078 2.4102-17.117 11.004-22.367 23.73-3.6641 8.8594-5.4805 19.711-3.7773 31.66 0.30078 2.0664 2.2266 3.5 4.2695 3.207 2.0781-0.29297 3.5117-2.207 3.2109-4.2734z" fill="#c8e464" fill-rule="evenodd"/>
 <path d="m574.88 825.38c-1.4727-10.461 0.074219-19.957 3.2852-27.715 4.1953-10.203 11.148-17.438 17.57-19.375 5.5547-1.668 9.7891-1.3516 12.699 0.49609 3.3984 2.1602 4.5312 6.332 3.7383 10.48-0.64062 3.3594-2.6055 5.4219-4.9102 6.1875-2.3828 0.78516-5.1016 0.32422-6.1602-1.7383-0.94531-1.8555-3.25-2.5898-5.1016-1.6367-1.8516 0.95703-2.5703 3.2344-1.625 5.0898 2.6836 5.2227 9.2969 7.4492 15.266 5.4531 4.4961-1.4961 8.6914-5.3125 9.9766-11.914 1.3984-7.3203-1.1328-14.484-7.1406-18.297-4.3086-2.7578-10.656-3.8555-18.934-1.3555-8.0078 2.4102-17.117 11.004-22.367 23.73-3.6641 8.8594-5.4805 19.711-3.7773 31.66 0.30078 2.0664 2.2266 3.5 4.2695 3.207 2.0781-0.29297 3.5117-2.207 3.2109-4.2734z" fill="#c8e464" fill-rule="evenodd"/>
 <path d="m504.1 665.62c-7.9727-7.4023-13-14.918-14.621-21.43-1.2852-5.2539-0.078125-9.7148 4.3438-12.172 3.8164-2.1445 7.7461-2.3008 10.73-0.95703 2.9844 1.3477 4.875 4.2891 4.2344 7.8867-0.34375 1.9766-1.2109 3.2383-2.4219 3.5078-1.1328 0.25-2.3047-0.46484-2.793-1.7539-0.75781-1.9453-2.9492-2.9102-4.9141-2.1562-1.9258 0.75391-2.9102 2.9453-2.1523 4.8867 2 5.1406 6.9883 7.4023 11.484 6.4023 3.6289-0.80078 7.1797-3.7227 8.2383-9.5625 1.2852-7.3242-2.4922-13.348-8.5781-16.098-4.8359-2.1953-11.258-2.2461-17.531 1.2461-7.5195 4.1992-10.164 11.59-7.9727 20.566 1.8516 7.5977 7.5195 16.531 16.777 25.164 1.5469 1.4219 3.9297 1.3359 5.3633-0.19141 1.3984-1.5273 1.3242-3.918-0.1875-5.3398z" fill="#c8e464" fill-rule="evenodd"/>
 <path d="m573.1 765.27c0.53125-12.16 3.668-21.973 8.0508-29.574 6.2695-10.965 15.074-17.277 21.914-19.16 4.3828-1.2148 8.5391-0.57812 11.562 1.3438 3.0625 1.957 4.8359 5.2969 4.082 9.1016-0.60547 3.1289-2.2695 5.0195-4.2344 5.6055-1.7734 0.51953-3.8164-0.054687-4.1562-1.9414-0.375-2.0547-2.3398-3.4141-4.3828-3.0391-2.0391 0.375-3.3984 2.3438-3.0586 4.3945 1.207 6.5234 7.6328 9.6328 13.715 7.832 4.1562-1.2305 8.2734-4.8047 9.5586-11.414 1.3633-7.0352-1.8125-13.281-7.4414-16.902-4.6094-2.9453-10.922-4.1211-17.648-2.2656-8.1992 2.2539-18.93 9.5547-26.488 22.68-4.8711 8.4883-8.4258 19.434-9.0273 33.008-0.078125 2.0859 1.5469 3.8516 3.625 3.9414s3.8555-1.5273 3.9297-3.6094z" fill="#c8e464" fill-rule="evenodd"/>
 <path d="m592.52 920.66c-6.3477-8.2305-21.234-16.613-35.102-17.695-9.9766-0.77734-19.348 2.1172-25.164 10.664-4.3867 6.4414-4.7617 13.785-2.5352 19.633 2.6836 6.9336 8.957 11.785 16.93 11.18 5.9688-0.45703 9.5234-3.4375 11.223-6.7773 2.457-4.9141 0.90625-10.879-3.5508-13.613-1.7773-1.0859-4.1211-0.52734-5.2148 1.25-1.0977 1.7773-0.53125 4.1055 1.2461 5.1953 1.2109 0.74609 1.4375 2.4336 0.75391 3.7773-0.71484 1.4492-2.4531 2.4336-5.0234 2.6328-4.4219 0.33203-7.8203-2.5039-9.2969-6.3555-1.4336-3.7734-1.0938-8.5078 1.7383-12.672 4.1953-6.1797 11.109-7.9414 18.328-7.3789 11.676 0.91406 24.332 7.8281 29.699 14.773 1.2461 1.6523 3.625 1.9609 5.2891 0.6875 1.6641-1.2734 1.9648-3.6484 0.67969-5.3008z" fill="#c8e464" fill-rule="evenodd"/>
 <path d="m579.64 864.28c-7.1797-18.027-20.52-28.645-33.328-31.695-11.863-2.8359-23.352 0.67969-30.039 10.523-4.5352 6.6602-4.8008 13.484-2.457 18.656 2.6836 5.9141 8.8047 9.9141 16.738 9.3164 7.293-0.55859 11.148-4.4766 12.355-8.3086 1.2852-4.0938-0.1875-8.4805-4.1172-10.891-1.7773-1.0898-4.1172-0.53125-5.1758 1.2461-1.0977 1.7812-0.53125 4.1055 1.2461 5.1953 1.2461 0.77734 1.0977 2.4844-0.15234 3.5703-1.0195 0.91016-2.6055 1.4883-4.7227 1.6523-4.3438 0.32812-7.8203-1.6641-9.293-4.9023-1.3984-3.1406-0.94531-7.2383 1.8125-11.281 6.082-8.9102 17.57-10.297 28.227-5.2344 8.7656 4.1484 16.965 12.559 21.875 24.938 0.75781 1.9414 2.9492 2.8867 4.9141 2.1172 1.9258-0.76953 2.8711-2.9688 2.1172-4.9023z" fill="#c8e464" fill-rule="evenodd"/>
 <path d="m567.17 803.16c-6.9531-17.516-19.535-29.137-31.703-33.48-12.055-4.2891-23.805-1.7344-30.758 8.4492-4.3477 6.3789-5.1406 12.91-3.5508 18.023 2 6.2969 7.5195 10.793 15.641 10.793 6.9922 0 10.43-4.1797 11.262-8.5625 1.0586-5.418-2.1172-11.316-8.1641-12.121-2.0391-0.27344-3.9648 1.1758-4.2305 3.2422-0.26562 2.0664 1.1719 3.9727 3.25 4.25 1.8516 0.24219 2.2656 2.5273 1.4375 4.0352-0.53125 1.0273-1.7773 1.5977-3.5547 1.5977-4.3086 0-7.3672-2.1602-8.4258-5.4961-1.0195-3.2812-0.1875-7.4102 2.6094-11.512 6.082-8.9492 17.457-8.957 27.922-2.7344 8.4648 5.0117 16.359 14.047 21.234 26.305 0.75781 1.9375 2.9883 2.8867 4.9141 2.1172 1.9258-0.77344 2.8711-2.9688 2.1172-4.9062z" fill="#c8e464" fill-rule="evenodd"/>
 <path d="m550.39 745.56c-4.9531-14.031-15.152-24.137-25.203-28.551-10.543-4.6367-20.859-3.0938-26.301 5.25-3.8516 5.9531-3.8164 11.941-1.7734 16.578 2.6445 6.0586 8.8008 9.8008 14.809 8.9336 4.8398-0.69141 7.8984-3.4648 9.2578-6.6055 1.7383-3.9766 0.83203-8.6914-2.8711-11.699-1.625-1.3125-4.0039-1.0664-5.2891 0.55469-1.3242 1.6211-1.0977 4 0.52734 5.3164 0.91016 0.72266 1.1367 1.8555 0.71875 2.8086-0.49219 1.1094-1.6992 1.8984-3.3984 2.1445-2.875 0.40625-5.5938-1.6289-6.8398-4.4883-1.1328-2.6406-0.98438-6.0312 1.207-9.4219 4.3086-6.6094 13.379-5.3125 21.613 0.125 6.7656 4.4766 13.039 11.957 16.438 21.57 0.67969 1.9688 2.8359 3 4.8008 2.3086 1.9648-0.69531 3.0195-2.8594 2.3047-4.8242z" fill="#c8e464" fill-rule="evenodd"/>
 <path d="m536.22 702.56c-4.2695-7.4023-4.457-15.379-2.0781-21.793 2.6836-7.2617 8.5781-12.672 15.379-12.082 2.0039 0.17578 3.5156 1.1016 4.4961 2.3711 1.0977 1.4531 1.5508 3.3164 1.2852 4.9375-0.22656 1.2891-1.3203 2.7109-2.7188 3.3594-0.94531 0.4375-2.043 0.26562-3.0625-0.77734-1.4727-1.4766-3.8516-1.4883-5.3281-0.019531-1.5117 1.4688-1.5117 3.8672-0.035156 5.3438 3.8906 3.9141 8.1211 3.9414 11.637 2.2891 3.6289-1.6992 6.3477-5.5234 6.9531-8.8945 0.60547-3.5469-0.30469-7.6445-2.7227-10.82-2.1523-2.8125-5.4414-4.9336-9.8242-5.3125-10.012-0.875-19.23 6.3398-23.16 16.992-3.0625 8.3008-2.9102 18.617 2.6445 28.191 1.0195 1.8047 3.3633 2.4258 5.1367 1.3789 1.8164-1.043 2.457-3.3594 1.3984-5.1641z" fill="#c8e464" fill-rule="evenodd"/>
 <path d="m442.02 650.1c5.0625-5.2812 4.6875-10.188 2.457-13.453-3.0625-4.5039-11.449-6.5781-18.477-1.8711-4.0078 2.6875-6.3477 7.3398-6.6133 12.281-0.22656 4.582 1.3203 9.3594 4.6836 12.84 4.043 4.1133 9.1445 6.3633 16.703 6.7031 6.0469 0.27734 13.828-0.71875 24.145-2.9375 2.0391-0.4375 3.3633-2.4492 2.9102-4.4883s-2.457-3.3359-4.4961-2.8984c-9.4844 2.0391-16.625 3.0312-22.219 2.7812-5.2148-0.23828-8.8438-1.5898-11.602-4.4375-1.8867-1.9375-2.7188-4.6133-2.5664-7.168 0.14844-2.5391 1.168-5.0117 3.2461-6.3984 2.6094-1.7305 5.5547-1.8945 7.4062-0.74219 1.3633 0.875 0.90625 2.5312-1.0195 4.5625-1.4727 1.5078-1.3984 3.9023 0.11328 5.3438 1.5117 1.4453 3.8945 1.3906 5.3281-0.11719z" fill="#c8e464" fill-rule="evenodd"/>
 <path d="m590.06 326.77c-1.6992 0.60547-2.793 1.625-3.5117 2.7578-1.1328 1.8516-1.2852 4.1562-0.49219 6.2734 1.3594 3.7422 5.3672 6.1211 8.7305 4.875 1.8125-0.67969 3.1719-2.1914 3.8164-4.2344 0.64062-2 0.48828-4.4961-0.37891-6.3828-0.75781-1.5508-1.9648-2.7227-3.4375-3.3281-1.2852-0.52734-2.875-0.64062-4.7266 0.039063zm2.9102 6.8008c-0.26172-0.035157-0.60156-0.074219-0.83203 0-0.074219 0.039062-0.14844 0.078125-0.22656 0.15234l0.078126 0.039063c0.1875 0.074219 0.41406 0.1875 0.67969 0.074219 0.15234-0.039063 0.22656-0.15234 0.30078-0.26562z" fill="#c8e464" fill-rule="evenodd"/>
 <path d="m578.73 315.44c-1.7031 0.60547-2.7969 1.625-3.5156 2.7578-1.1328 1.8516-1.2852 4.1562-0.49219 6.2734 1.3594 3.7422 5.3672 6.1211 8.7305 4.875 1.8125-0.67969 3.1719-2.1914 3.8164-4.2344 0.64062-2 0.48828-4.4961-0.37891-6.3828-0.75781-1.5508-1.9648-2.7227-3.4375-3.3281-1.2852-0.52734-2.8711-0.64063-4.7227 0.039062zm2.9062 6.8008c-0.26172-0.035156-0.60156-0.074219-0.82812 0-0.078125 0.039063-0.15234 0.078125-0.22656 0.15234l0.074219 0.039063c0.1875 0.074218 0.41406 0.1875 0.67969 0.074218 0.15234-0.039062 0.22656-0.15234 0.30078-0.26562z" fill="#c8e464" fill-rule="evenodd"/>
 <path d="m600.19 345.89h-0.039062c-2.5703-1.2852-4.7617-1.2852-6.4219-0.71875-2.5312 0.79297-4.2695 2.8711-4.8359 5.4766-0.87109 3.8555 0.90625 8.7695 5.8945 10.355 2.3398 0.75391 4.3438 0.56641 5.8945 0 2.3398-0.90625 3.8906-2.8711 4.457-5.1758 0.79297-3.3633-0.56641-7.7109-4.9492-9.9375zm-3.8906 6.5742c0.14844 0.035156 0.33984 0.11328 0.48828 0.1875 0.26563 0.11328 0.49219 0.30469 0.64453 0.49219 0.074218 0.039062 0.11328 0.11328 0.1875 0.1875 0.074218 0.15234 0.11328 0.41797 0.15234 0.56641-0.19141 0-0.49219-0.035156-0.67969-0.11328h-0.039062c-0.30078-0.074218-0.49219-0.26172-0.64063-0.48828-0.11328-0.19141-0.15234-0.56641-0.11328-0.83203z" fill="#c8e464" fill-rule="evenodd"/>
 <path d="m674.44 569.13c-1.7031 2.293-1.8906 4.293-1.5898 5.8281 0.33984 1.6758 1.3633 3.0625 2.9102 4.0234 2.2695 1.4297 5.9336 1.7383 8.4258 0.87891 2.3438-0.80859 3.7422-2.4922 4.082-4.4336 0.64062-3.7891-1.0586-7.7656-3.5898-9.3867-2.5312-1.6445-6.4609-2.0625-10.238 3.0898z" fill="#c8e464" fill-rule="evenodd"/>
 <path d="m705.35 558.61c-2.418-0.73828-4.2695-0.56641-5.668-0.070312-1.8125 0.66406-3.0234 1.9375-3.7031 3.5625-0.98047 2.3047-0.71875 5.5859 0.60547 8.0781 1.1719 2.2148 3.0977 3.7031 5.0625 4.0742 4.1562 0.78125 7.332-2.2773 8.125-6.4297 0.45312-2.3555 0.039063-4.8789-1.0195-6.5703-0.79297-1.293-1.9648-2.2109-3.4023-2.6445z" fill="#c8e464" fill-rule="evenodd"/>
 <path d="m720.77 565.69c-3.5156 2.4336-4.1211 6.1914-2.9492 9.2344 1.1719 3.0938 4.2695 5.4727 8.2383 5.043 4.4219-0.48438 6.3125-5.3086 4.7227-9.8594-1.625-4.6133-5.9688-7.207-10.012-4.418z" fill="#c8e464" fill-rule="evenodd"/>
 <path d="m468.92 705.58c-3.7773 0-6.2695 1.3398-7.7812 2.9531-1.7383 1.9141-2.3047 4.3828-1.7031 6.8047 0.83203 3.4219 4.3086 7.1719 10.656 7.3906 2.0781 0.070313 4.1211-0.88281 5.5938-2.6211 1.5117-1.7734 2.457-4.3867 2.3047-6.8555-0.11328-1.9141-0.83203-3.7266-2.2305-5.1406-1.3984-1.4102-3.5508-2.5312-6.8398-2.5312zm1.0234 9.5742c-0.45703-0.039063-0.83203-0.11328-1.2109-0.21484s-0.71875-0.24219-1.0195-0.40625c-0.19141-0.12109-0.41797-0.25781-0.56641-0.41406-0.15234-0.13281-0.26563-0.37891-0.33984-0.51172 0.26172-0.10938 1.2461-0.46875 2.1133-0.46875 0.67969 0 1.1719-0.003907 1.4766 0.28516 0.14844 0.17188 0.074218 0.43359 0.035156 0.66406-0.074219 0.34375-0.33984 0.83203-0.48828 1.0664z" fill="#c8e464" fill-rule="evenodd"/>
 <path d="m468.81 736.12v0.03125c-0.30078 2.1367 0.26562 4.9102 1.3633 7.125 1.0547 2.0508 2.5664 3.5703 4.0039 4.2188 1.7383 0.78516 3.5508 0.71875 5.25-0.44141 1.1719-0.77734 2.5352-2.3945 3.3633-5.5586v-0.078125c0.41797-1.6953 0.11328-3.5469-0.86719-5.2305-1.0195-1.7109-2.7227-3.2383-4.3828-4.0664-2.2305-1.0781-4.4219-0.99609-6.0078-0.12109-1.2461 0.71484-2.3828 1.9492-2.7227 4.1211z" fill="#c8e464" fill-rule="evenodd"/>
 <path d="m462.05 748.95c-2.5703 1.6406-4.4609 5.0586-4.875 8.3945-0.37891 2.8633 0.37891 5.5508 1.9258 7.2422 1.9297 2.1133 5.6328 3.5703 11.527 0.19141 4.5703-2.5977 5.0625-7.6641 3.0586-11.695-2.2656-4.4688-7.293-6.9297-11.637-4.1328zm3.9297 6.4414c0.11328 0.070313 0.30078 0.1875 0.37891 0.27734 0.375 0.39062 0.67969 0.90625 0.79297 1.4453 0.11328 0.39453 0.14844 0.86328-0.26563 1.1016 0 0.003906 0 0.003906-0.039062 0.007812-0.75391 0.44531-1.6602 0.73828-2.1523 0.88281-0.039062-0.28906-0.074218-0.66406-0.039062-0.93359 0.19141-1.0508 0.56641-2.2109 1.3242-2.7812z" fill="#c8e464" fill-rule="evenodd"/>
</svg>
