<?xml version="1.0" encoding="UTF-8"?>
<svg width="512pt" height="512pt" version="1.1" viewBox="0 0 512 512" xmlns="http://www.w3.org/2000/svg">
 <path d="m480.26 248.42c-0.125-0.86328-0.29297-1.7148-0.51562-2.5586-0.35938-1.6367-0.87109-3.125-1.3828-4.7109h0.003906c-1.0156-2.9062-2.1797-5.7617-3.4844-8.5508-2.5078-5.582-5.1211-10.906-8.0898-16.129-5.7852-10.238-11.828-20.48-18.227-30.719-6.3984-10.238-12.852-19.812-19.508-29.594l-10.238-14.539-5.1211-7.168-2.6094-3.5859-1.332-1.793-0.66406-0.92188-0.20703-0.15234-0.46094-0.5625c-0.74219-0.70703-1.6953-1.1562-2.7148-1.2812-1.0273 0.09375-1.9883 0.54688-2.7109 1.2812l-0.46094 0.5625-0.35938 0.46094-0.61328 0.92187-1.2812 1.793-2.5586 3.6367-5.1211 7.2695-10.238 14.645c-6.5859 9.7617-13.023 19.68-19.301 29.746-3.9922-7.168-8.1914-14.234-12.441-21.246-6.0938-10.238-12.441-20.121-18.84-30.055l-9.7266-14.797-5.1211-7.3711-2.5078-3.6875-1.1328-1.7969-0.61328-0.92188-0.35938-0.51172-0.66406-0.76953v0.003906c-1.0703-1.0352-2.4648-1.668-3.9453-1.793-1.5195 0.085937-2.957 0.72266-4.043 1.793l-0.66406 0.76953-0.30859 0.46094-0.61719 0.96875-1.2305 1.8438-2.5586 3.6367-5.1211 7.3711-9.8828 14.746c-6.4531 9.8828-12.852 19.867-19.047 30.004-6.1953 10.137-12.133 20.48-17.664 30.719-0.51172 0.92188-0.97266 1.8945-1.4336 2.8164-3.5859-5.4766-7.168-10.957-10.805-16.383l-9.8828-14.695-5.1211-7.2695-2.5078-3.6367-1.2812-1.8438-0.50391-0.82031-0.35937-0.40625v-0.35937c-0.45703-0.42188-1.0234-0.70703-1.6367-0.82031-0.625 0.078125-1.1992 0.36719-1.6367 0.82031l-0.25781 0.35937-0.30859 0.46094-0.66406 0.87109-1.332 1.793-2.6094 3.5859-5.1211 7.2188-10.238 14.438c-6.707 9.7266-13.363 19.508-19.762 29.441-1.1758 1.793-2.3047 3.6367-3.4297 5.4258l-0.30859-0.5625c-5.582-10.547-11.57-20.48-17.664-30.719-6.0938-10.238-12.492-20.121-18.895-30.055l-9.7266-14.797-5.1211-7.3711-2.457-3.6875-1.2812-1.8438-0.61328-0.92188-0.30859-0.46094-0.66406-0.76953v-0.003907c-1.0664-1.0391-2.4609-1.6758-3.9453-1.793-1.5078 0.066407-2.9375 0.71094-3.9922 1.793-0.25 0.23047-0.47266 0.48828-0.66406 0.76953l-0.35938 0.46094-0.61328 0.92188-1.332 1.793-2.5586 3.6367-5.1211 7.2695-10.238 14.645c-6.5547 9.832-13.004 19.812-19.25 29.848-6.2461 10.035-12.238 20.48-17.816 30.719-2.7656 5.1211-5.4258 10.699-7.832 16.332-1.1758 2.8164-2.2539 5.6836-3.2266 8.7031h-0.003906c-1.0938 3.3086-1.7148 6.7578-1.8438 10.238 0.18359 3.4961 0.875 6.9453 2.0469 10.242 0.99609 2.9219 2.1406 5.793 3.4297 8.6016 2.457 5.582 5.1211 10.855 8.1406 16.078 5.8359 10.238 12.031 20.48 18.535 30.414 12.953 19.867 26.625 39.117 40.961 58.008l1.6914 2.3555 1.7422-2.4062c13.723-19.199 27.086-38.605 39.832-58.523 1.0742-1.6367 2.0977-3.3281 3.1758-5.1211l0.35938 0.76953c5.5312 10.598 11.52 20.891 17.664 31.027 12.34 20.48 25.602 39.938 38.758 59.547l5.1211 7.0156 4.6602-7.0664c6.5039-9.9336 12.852-19.867 19.098-29.902 6.2461-10.035 12.492-20.07 18.535-30.258 6.043-10.188 11.98-20.48 17.461-30.719l1.1758-2.3047c10.238 15.359 20.992 30.719 31.949 45.621l1.6914 2.4062 1.7422-2.4062c13.723-19.199 27.035-38.656 39.781-58.574l0.76953-1.1758c4.3672 7.5078 8.8594 14.934 13.465 22.273 12.645 20.02 25.906 39.527 39.68 58.777l2.457 3.5859 2.6641-3.6367c7.1172-9.4727 13.875-19.098 20.48-28.773 6.6055-9.6758 13.211-19.609 19.609-29.543 6.3984-9.9336 12.492-20.121 18.277-30.719 2.918-5.1211 5.6836-10.238 8.1914-16.027 1.2969-2.7656 2.4766-5.6328 3.5312-8.6016 0.46094-1.5352 0.97266-3.0195 1.3828-4.7109 0-0.82031 0.35938-1.6367 0.51172-2.5586 0.15234-0.92188 0-1.9453 0-2.918-0.007813-0.98047-0.058594-2.3633-0.16016-3.3359zm-129.74 33.18c-2.5586-4.7617-5.1211-9.5742-7.0664-14.488-1.125-2.6094-2.1523-5.1211-3.0195-7.9375-0.82813-2.4727-1.3438-5.0352-1.5352-7.6289 0.19141-2.5859 0.72656-5.1328 1.5859-7.5781 0.87109-2.6641 1.8945-5.1211 3.0195-7.9375 2.3047-5.1211 5.1211-10.238 7.7305-15.359 3.3281-6.1953 6.9102-12.34 10.547-18.379 2.5078 4.5039 5.1211 9.0625 7.0156 13.672 1.2305 2.5586 2.3047 5.1211 3.2773 7.7812v-0.003906c0.85156 2.2266 1.418 4.5469 1.6914 6.9141-0.16406 2.5352-0.67969 5.0352-1.5391 7.4219-0.92188 2.6641-1.9453 5.1211-3.0703 7.9375-2.3047 5.1211-5.1211 10.496-7.6289 15.617-3.4805 6.6562-7.2188 13.207-11.008 19.969zm-207.62 30.617c-11.672 19.199-23.91 38.094-36.504 56.68-6.0781-8.9102-12.066-17.887-17.973-26.934-6.3828-9.8633-12.613-19.746-18.688-29.645-6.043-10.238-11.98-20.48-17.305-30.719-2.7148-5.1211-5.1211-10.238-7.4258-15.668-1.0742-2.6094-2.0469-5.1211-2.918-7.8867-0.66797-2.332-1.043-4.7422-1.125-7.168 0.21875-2.457 0.73437-4.8828 1.5352-7.2188 0.92188-2.5586 1.9453-5.1211 3.125-7.7812 2.3047-5.1211 5.1211-10.238 7.7305-15.359 5.582-10.238 11.777-20.121 18.023-30.004s12.75-19.66 19.355-29.391l9.9336-14.488 5.1211-7.2188 0.66406-0.97266 0.61328 0.92188 5.1211 7.168 9.9844 14.488c6.6055 9.7266 13.105 19.457 19.406 29.336 6.293 9.8828 12.027 19.562 17.863 29.801l2.5586 4.7617c-3.2773 5.4766-6.707 11.16-9.8828 16.844s-5.6836 10.496-8.1406 16.027c-1.2812 2.7578-2.4258 5.5742-3.4297 8.4453-1.168 3.2969-1.8438 6.75-1.9961 10.242 0.14453 3.3555 0.73047 6.6797 1.7422 9.8828 0.97266 3.0195 2.0469 5.8867 3.2266 8.7031 1.1758 2.8164 2.7148 6.1445 4.1484 9.1641-1.6406 2.5078-3.2812 5.2734-4.9688 8.0898zm24.527-76.699c1.1758 2.6094 2.3047 5.1211 3.2266 7.832l-0.003906 0.003907c0.94922 2.4102 1.5508 4.9453 1.793 7.5234-0.1875 2.5352-0.71875 5.0352-1.5859 7.4258-0.89062 2.6797-1.918 5.3086-3.0742 7.8828-2.3047 5.1211-5.1211 10.496-7.6289 15.668-2.5078 5.1719-4.7109 8.7031-7.168 13.055-0.5625-1.125-1.0742-2.2539-1.5859-3.3789-1.1758-2.6094-2.2539-5.1211-3.1758-7.832-0.81641-2.332-1.3477-4.7578-1.5859-7.2188 0.12891-2.543 0.59375-5.0547 1.3828-7.4766 0.82031-2.6094 1.793-5.1211 2.918-7.9375 2.2031-5.1211 4.7617-10.238 7.4258-15.668 2.6641-5.4258 4.7617-8.8594 7.2188-13.211zm98.812 71.68c-5.8008 10.238-11.93 20.223-18.379 29.953-6.4531 9.7773-13.055 19.508-19.762 29.082-5.1875 7.2695-10.41 14.488-15.668 21.656-12.238-16.59-24.012-33.691-35.227-51.199-6.3477-9.832-12.543-19.812-18.176-29.953-0.97266-1.793-1.9453-3.5312-2.8672-5.1211 3.3281-5.4766 6.5547-10.957 9.7266-16.539 3.1758-5.582 5.6836-10.238 8.1914-15.973 1.2969-2.7305 2.4766-5.5469 3.5312-8.4492l0.003906 0.003906c1.2891-3.1172 2.0859-6.418 2.3555-9.7812-0.14062-3.3555-0.79688-6.6719-1.9453-9.8281-1.0234-2.9688-2.0977-5.8359-3.3281-8.6016-1.2305-2.7656-2.7656-5.9922-4.1992-8.9102 1.7422-2.9688 3.4805-5.8867 5.1211-8.8047 6.2109-10.035 12.527-20.004 18.941-29.902l9.7773-14.695 5.1211-7.3203 2.5078-3.6367 0.82031-1.1758 0.82031 1.125 2.5078 3.6367 5.1211 7.2695 9.8828 14.645c4.0625 6.1445 8.0547 12.34 11.98 18.586-1.4336 2.918-2.8164 5.8867-4.0977 8.9609v-0.003906c-1.3047 2.8086-2.4688 5.6797-3.4805 8.6016-1.0469 3.1797-1.6484 6.4883-1.793 9.832 0.11328 3.3984 0.71875 6.7578 1.793 9.9844 0.98047 2.9062 2.1094 5.7578 3.3789 8.5508 2.457 5.5312 5.1211 10.805 8.0898 16.027 5.7852 10.238 11.98 20.48 18.379 30.719l3.9414 5.9375zm-16.691-92.672c6.1953 10.238 12.082 20.172 17.562 30.719 2.7656 5.1211 5.1211 10.238 7.6289 15.668 1.1758 2.6641 2.2031 5.1211 3.125 7.9883 0.89844 2.4727 1.4492 5.0547 1.6367 7.6797-0.28906 2.5938-0.91016 5.1406-1.8438 7.5781-1.0234 2.6094-2.0977 5.1211-3.3789 7.832-0.61328 1.332-1.2812 2.6094-1.8945 3.8906l-1.9961-3.1758c-6.1445-10.238-12.031-20.172-17.461-30.719-2.7148-5.1211-5.1211-10.238-7.4766-15.668l0.003906 0.003907c-1.1094-2.6133-2.082-5.2773-2.918-7.9883-0.80859-2.4336-1.293-4.9648-1.4336-7.5273 0.21875-2.5352 0.76953-5.0312 1.6367-7.4219 0.89844-2.668 1.9414-5.2812 3.125-7.8359 0.54688-1.332 1.1602-2.6641 1.8438-3.9922zm94.566 77.621c-11.672 19.199-23.961 38.094-36.559 56.68-10.582-15.258-20.82-30.738-30.719-46.438 1.2812-2.6641 2.5078-5.1211 3.6875-8.0391 1.1758-2.918 2.3047-5.582 3.2773-8.5v-0.003906c1.0703-3.0156 1.6914-6.1719 1.8438-9.3672-0.20312-3.2656-0.91016-6.4766-2.0977-9.5234-1.0742-2.918-2.2031-5.6836-3.4805-8.3984-2.5586-5.4766-5.1211-10.699-8.1914-15.871-5.7852-10.238-12.031-20.48-18.277-30.414l-3.3789-5.1211c1.1758-2.3047 2.4062-4.6094 3.6875-6.8594 5.6328-10.238 11.777-20.172 18.125-30.004 6.3477-9.832 12.902-19.609 19.559-29.285l10.238-14.387 5.1211-7.168 0.66406-0.92188 0.66406 0.92188 5.1211 7.2188 10.238 14.488c6.6562 9.6758 13.105 19.457 19.457 29.336 5.1211 8.1406 10.238 16.383 15.105 24.73-4.3516 7.2695-8.6523 14.594-12.699 22.117-2.7656 5.1211-5.4766 10.547-7.8867 16.129v0.003906c-2.7656 5.7266-4.5 11.898-5.1211 18.227 0.61328 6.332 2.3477 12.504 5.1211 18.227 2.4062 5.582 5.1211 10.906 7.9883 16.129l1.2812 2.3555c-1.1289 1.0234-1.9492 2.3555-2.7695 3.7383zm126.46-39.32c0 0.5625 0 1.1758-0.35938 1.793-0.35938 0.61328-0.71875 2.5078-1.0742 3.7891-0.92188 2.5586-1.9453 5.1211-3.125 7.7812-2.3047 5.1211-5.1211 10.238-7.6797 15.359-5.4766 10.238-11.52 20.48-17.512 30.363-5.9922 9.8828-12.34 19.969-18.688 29.848-5.4766 8.6523-11.059 17.203-16.691 25.602-12.645-17.922-24.934-36.148-36.609-54.785-5.1211-8.293-10.238-16.691-14.949-25.191 4.7109-7.4766 9.2656-15.055 13.566-22.785 2.918-5.1211 5.6836-10.238 8.2422-15.922 1.2969-2.6953 2.4766-5.5117 3.5312-8.4492h0.007812c1.2188-3.1445 1.9453-6.4609 2.1523-9.832-0.17969-3.3516-0.83203-6.6602-1.9492-9.8281-1.0234-2.9688-2.1523-5.7852-3.3281-8.5508-2.457-5.582-5.1211-10.906-7.8867-16.18l-1.3828-2.5078 2.2031-3.5859c6.2461-9.9336 12.75-19.762 19.301-29.492l10.238-14.539 5.1211-7.168 2.0469-2.8672 1.9453 2.9688 5.1211 7.3711 9.5742 14.797c6.3984 9.832 12.699 19.762 18.789 29.746 6.0938 9.9844 12.082 20.07 17.613 30.309 2.7656 5.1211 5.4258 10.238 7.7305 15.359 1.1758 2.5586 2.2031 5.1211 3.125 7.7305 0.41016 1.2812 0.82031 2.6094 1.0742 3.7891l0.007813 0.007812c0.16797 0.56641 0.28516 1.1523 0.35547 1.7383v1.4844c-0.46094 0.87109-0.51172 1.3828-0.51172 1.8438z" fill="#fb6b85"/>
</svg>
