<?xml version="1.0" encoding="UTF-8"?>
<svg width="100pt" height="100pt" version="1.1" viewBox="0 0 100 100" xmlns="http://www.w3.org/2000/svg">
 <path d="m82.898 22.941c-2.3359 0-4.2266 1.8906-4.2266 4.2305v0.35156l-27.812 17.867 6.4609-28.461c1.8828-0.51172 3.1719-2.2383 3.1328-4.1875-0.039063-1.9492-1.4023-3.6211-3.3047-4.0547-1.8984-0.4375-3.8516 0.48047-4.7344 2.2188-0.88281 1.7383-0.46875 3.8555 1.0078 5.1328l-6.4219 28.102-4.3203-9.2109c1.168-1.5547 1.125-3.707-0.10156-5.2148-1.2266-1.5117-3.3203-1.9922-5.082-1.1719-1.7656 0.82422-2.7422 2.7422-2.3711 4.6484 0.37109 1.9102 1.9922 3.3242 3.9336 3.4297l4.8125 10.18-19.359-6.0625c-0.30078-1.6133-1.5039-2.9062-3.0938-3.3203-1.5859-0.41406-3.2695 0.125-4.3203 1.3867-1.0469 1.2617-1.2734 3.0156-0.57812 4.5 0.69922 1.4844 2.1914 2.4336 3.832 2.4336 1.1211 0.011719 2.2031-0.42578 3-1.2188l19.398 6.0781-23.609 15.164c-0.60938-0.35156-1.2969-0.53906-2-0.55078-1.7148-0.003907-3.2656 1.0273-3.9258 2.6094-0.66016 1.5859-0.29688 3.4102 0.91406 4.625 1.2109 1.2148 3.0352 1.5781 4.6211 0.92188s2.6211-2.2031 2.6211-3.918v-0.32812l23.418-15.121-6.5898 29c-1.8672 0.51953-3.1445 2.2383-3.0977 4.1797 0.046876 1.9375 1.4062 3.5977 3.2969 4.0234 1.8906 0.42578 3.832-0.48828 4.707-2.2188s0.46094-3.8359-1.0039-5.1055l6.2617-27.57 8.3516 17.789-0.003906 0.003906c-1.168 1.5547-1.125 3.707 0.10156 5.2148 1.2227 1.5117 3.3203 1.9922 5.082 1.168 1.7656-0.82031 2.7422-2.7383 2.3711-4.6484-0.37109-1.9102-1.9922-3.3203-3.9375-3.4258l-9-19.148 18.93 5.9297h0.003907c0.36719 1.9023 1.9805 3.3125 3.918 3.4219 1.9336 0.10547 3.6953-1.1172 4.2734-2.9648 0.57422-1.8516-0.17969-3.8594-1.8359-4.8711-1.6523-1.0078-3.7852-0.76562-5.168 0.59375l-19.398-6.0781 28.809-18.5v-0.003907c1.1484 0.63672 2.5273 0.70313 3.7305 0.18359 1.207-0.52344 2.1016-1.5742 2.4219-2.8477 0.32031-1.2734 0.03125-2.625-0.78125-3.6562-0.8125-1.0273-2.0586-1.625-3.3711-1.6094z" fill="#f3e5e3"/>
</svg>
