<?xml version="1.0" encoding="UTF-8"?>
<svg width="512pt" height="512pt" version="1.1" viewBox="0 0 512 512" xmlns="http://www.w3.org/2000/svg">
 <path d="m438.02 143.36-360.96-13.262c-14.34-0.54297-27.949 6.3438-36 18.227-8.0508 11.883-9.4023 27.078-3.5781 40.195l57.855 131.64 0.003907-0.003906c5.2891 11.988 15.91 20.785 28.672 23.758l270.7 62.977h-0.003906c11.102 2.5781 22.77 0.49609 32.293-5.7656 9.5195-6.2578 16.059-16.148 18.09-27.359l32.359-181.3c2.1953-11.891-0.89453-24.152-8.4648-33.582-7.5742-9.4297-18.875-15.094-30.961-15.52zm4.5039 54.477-20.785 142.49c-1.5078 10.543-7.2031 20.035-15.801 26.324-8.5938 6.293-19.363 8.8555-29.871 7.1094l-201.21-33.535v-0.003906c-23.969-4.0117-44.391-19.641-54.527-41.727l-38.094-82.738c-5.6875-12.113-4.8594-26.285 2.1992-37.652 7.0586-11.371 19.391-18.395 32.77-18.668l285.18-6.9648c11.699-0.29688 22.93 4.5977 30.676 13.371 7.7461 8.7734 11.211 20.523 9.4688 32.094z" fill="#dfbfb8"/>
</svg>
