<?xml version="1.0" encoding="UTF-8"?>
<svg width="512pt" height="512pt" version="1.1" viewBox="0 0 512 512" xmlns="http://www.w3.org/2000/svg">
 <path d="m176.07 256c0 25.793 79.934 139.07 79.934 139.07s79.934-110.72 79.934-139.07-79.934-139.07-79.934-139.07-79.934 113.27-79.934 139.07zm80.609 79.609v10.672l7.5117-7.5117 1.1602 1.1289-7.4141 7.4805h10.641v1.6133h-10.641l7.5469 7.5469-1.1602 1.1289-7.5117-7.5117-0.003906 10.605h-1.6133l0.003906-10.609-7.5117 7.5117-1.1602-1.1289 7.5469-7.5469-10.645 0.003907v-1.6133h10.641l-7.5469-7.5469 1.1602-1.1289 7.5156 7.5781v-10.641zm2.5508-131.65c0.003907 1.6758-1.2695 3.0742-2.9375 3.2266 0.64453 7.6406 1.0312 15.285 1.3203 22.957 0.28906 7.6758 0.41797 14.574 0.51562 21.859 3.8711-3.8047 7.7383-7.5469 11.672-11.223 3.9336-3.6758 8.2852-7.5781 12.574-11.223l0.003906 0.003906c-1.0977-1.0898-1.2656-2.8047-0.40234-4.0859 0.86328-1.2852 2.5156-1.7734 3.9414-1.168 1.4219 0.60937 2.2109 2.1406 1.8828 3.6523s-1.6836 2.5742-3.2305 2.5391c-0.50781 0-1.0078-0.13281-1.4492-0.38672-3.6758 4.3008-7.4492 8.5234-11.316 12.672-3.5156 3.8047-7.1562 7.5469-10.801 11.254 8.2227 0 16.445 0.19531 24.668 0.45312 8.8359 0.28906 17.668 0.71094 26.504 1.418l-0.003906-0.003906c0.23047-1.6797 1.7227-2.8945 3.4141-2.7812 1.6914 0.11328 3.0078 1.5195 3.0078 3.2188 0 1.6953-1.3164 3.1016-3.0078 3.2148-1.6914 0.11719-3.1836-1.1016-3.4141-2.7812-8.8359 0.71094-17.668 1.1289-26.504 1.418-8.0938 0.25781-16.121 0.38672-24.312 0.45312 3.5156 3.5781 7.0273 7.1914 10.445 10.898s7.6406 8.3516 11.316 12.672h0.003907c0.44141-0.25781 0.94141-0.39062 1.4492-0.38672 1.5469-0.039063 2.9023 1.0273 3.2305 2.5391 0.32812 1.5117-0.46094 3.043-1.8828 3.6484-1.4258 0.60938-3.0781 0.11719-3.9414-1.1641-0.86328-1.2852-0.69531-3 0.40234-4.0898-4.2891-3.6445-8.4492-7.418-12.574-11.223-4.1289-3.8047-7.7695-7.3828-11.609-11.156v8.5156c0 4.3516 0 8.6719-0.22656 12.898-0.19531 7.6758-0.51562 15.348-1.0977 23.023l0.003906-0.003906c1.6758 0.23828 2.8828 1.7305 2.7656 3.418-0.12109 1.6914-1.5234 3-3.2188 3-1.6914 0-3.0977-1.3086-3.2148-3-0.11719-1.6875 1.0898-3.1797 2.7656-3.418-0.67578-7.6406-1.0977-15.285-1.3867-22.957-0.19531-4.3203-0.22656-8.6719-0.38672-12.898v-8.2227c-3.6445 3.6094-7.2852 7.1562-11.027 10.641-3.7422 3.4805-8.5117 7.7695-12.898 11.48 0.38672 0.53516 0.60156 1.1758 0.61328 1.8359 0.035157 1.5078-0.98047 2.8359-2.4414 3.2031-1.457 0.36328-2.9805-0.32813-3.6602-1.6719s-0.33984-2.9805 0.82031-3.9414c1.1602-0.96094 2.8281-0.98828 4.0234-0.070312 3.707-4.4492 7.5469-8.7383 11.48-12.898 3.418-3.6758 6.8984-7.2539 10.445-10.832h-10.316c-4.9336 0-9.8672 0-14.77-0.35547-8.8359-0.28906-17.668-0.71094-26.504-1.4492v-0.003907c-0.50781 1.3281-1.8281 2.168-3.2461 2.0625-1.4219-0.10156-2.6016-1.125-2.9141-2.5117 0.30078-1.3945 1.4805-2.4219 2.9023-2.5352 1.418-0.11328 2.7422 0.72266 3.2578 2.0508 8.8359-0.74219 17.668-1.1602 26.504-1.4492 4.9023-0.16016 9.6719-0.22656 14.77-0.35547h10.445c-3.6445-3.6758-7.2852-7.418-10.801-11.188-3.5156-3.7734-7.7695-8.5117-11.48-12.898-1.1914 0.91797-2.8633 0.88672-4.0234-0.074218-1.1602-0.96094-1.5-2.5977-0.81641-3.9414 0.67969-1.3438 2.1992-2.0352 3.6602-1.668 1.4609 0.36328 2.4727 1.6953 2.4375 3.1992-0.011719 0.66016-0.22266 1.3008-0.61328 1.8398 4.4062 3.6094 8.7617 7.3945 13.059 11.348 3.7422 3.4805 7.3516 7.0273 10.965 10.574 0-7.0273 0-14.09 0.25781-21.152 0.22656-7.6758 0.51562-15.348 1.0625-23.023v0.003906c-1.2383-0.24219-2.2227-1.1836-2.5156-2.4141-0.29688-1.2266 0.15234-2.5156 1.1484-3.293 0.99609-0.77734 2.3516-0.90234 3.4727-0.32031 1.1211 0.58594 1.7969 1.7656 1.7344 3.0273zm5.2227-49.625 1.1602 1.1289-7.6758 7.5469h10.641v1.6133h-10.641l7.5469 7.543-1.1602 1.1289-7.5156-7.5742v10.641h-1.6133l0.003906-10.641-7.5117 7.5117-1.1602-1.1289 7.5469-7.5117h-10.645v-1.6133h10.641l-7.5469-7.5469 1.1602-1.1289 7.5156 7.5469v-10.609h1.6133l-0.003906 10.609z" fill="#3e0920"/>
</svg>
