<?xml version="1.0" encoding="UTF-8"?>
<svg width="128pt" height="128pt" version="1.1" viewBox="0 0 128 128" xmlns="http://www.w3.org/2000/svg">
 <path d="m96.473 61.582c-1.2422-0.19531-2.4531 0.48828-2.9297 1.6484h-26.598l18.816-18.801c0.17188 0.09375 0.35547 0.16406 0.54688 0.20312 1.1016 0.18359 2.1992-0.31641 2.7891-1.2617 0.58594-0.94531 0.54688-2.1523-0.10156-3.0547-0.64844-0.90625-1.7773-1.332-2.8633-1.0781-1.082 0.25391-1.9062 1.1367-2.0898 2.2344-0.070313 0.49609 0.003906 1 0.20703 1.457l-18.805 18.805v-51.199c0.82813-0.35938 1.418-1.1094 1.5742-1.9961 0.14453-1.4531-0.86719-2.7617-2.3086-2.9883-1.4375-0.22656-2.8047 0.70703-3.1172 2.1289-0.19922 1.2734 0.52734 2.5156 1.7422 2.957v51.098l-18.816-18.805c0.09375-0.17188 0.16406-0.35938 0.21484-0.55078 0.14062-0.72656-0.023437-1.4766-0.44531-2.0859-0.42187-0.60547-1.0742-1.0156-1.8008-1.1367-0.73047-0.125-1.4805 0.054688-2.0781 0.48828-0.59766 0.4375-0.99609 1.0938-1.1016 1.8281-0.12109 0.71875 0.046875 1.4531 0.46875 2.0469 0.42578 0.59375 1.0664 0.99609 1.7852 1.1133 0.49609 0.078126 1.0039 0.003907 1.457-0.20312l18.805 18.801h-27.367c-0.35156-0.85938-1.1172-1.4844-2.0352-1.6484-0.73047-0.14844-1.4922 0.007813-2.1055 0.43359-0.61328 0.42188-1.0312 1.0781-1.1523 1.8164-0.12109 0.73438 0.0625 1.4883 0.50781 2.0898 0.44531 0.59766 1.1133 0.99219 1.8555 1.0859 1.2422 0.19922 2.457-0.48437 2.9297-1.6523h27.367l-18.805 18.805c-0.17188-0.09375-0.35547-0.16406-0.55078-0.20312-1.4805-0.21875-2.8633 0.78906-3.1094 2.2656-0.24609 1.4766 0.73047 2.8828 2.2031 3.1602 0.73047 0.13281 1.4844-0.03125 2.0898-0.45703 0.60938-0.42578 1.0234-1.0781 1.1484-1.8086 0.0625-0.49609-0.007812-1-0.20703-1.4609l18.742-18.801v50.57c-0.89453 0.37891-1.5195 1.2031-1.6406 2.1641-0.125 0.96484 0.27344 1.918 1.043 2.5078 0.76562 0.59375 1.793 0.73047 2.6914 0.36328 0.89453-0.36719 1.5312-1.1797 1.668-2.1406 0.19922-1.2422-0.48438-2.457-1.6523-2.9297v-50.535l18.816 18.805v-0.003906c-0.089844 0.17969-0.16016 0.36328-0.21875 0.55078-0.18359 1.0977 0.30859 2.2031 1.2539 2.793 0.94141 0.59375 2.1484 0.55859 3.0586-0.089844 0.90625-0.64453 1.3359-1.7734 1.082-2.8594-0.25-1.0859-1.1328-1.9141-2.2305-2.0938-0.49609-0.070312-1 0-1.4609 0.20312l-18.801-18.805h26.598c0.34766 0.86719 1.1172 1.4883 2.0352 1.6523 1.4688 0.19141 2.8281-0.81641 3.0664-2.2812 0.24219-1.4609-0.71875-2.8516-2.1719-3.1445z" fill="#c8e464"/>
</svg>
