<?xml version="1.0" encoding="UTF-8"?>
<svg width="1200pt" height="1200pt" version="1.1" viewBox="0 0 1200 1200" xmlns="http://www.w3.org/2000/svg">
 <path d="m70.312 16.535c-32.281 0-58.465 26.184-58.465 58.465s26.184 58.465 58.465 58.465 58.465-26.184 58.465-58.465-26.184-58.465-58.465-58.465zm58.465 58.465c0 32.281 26.184 58.465 58.465 58.465s58.465-26.184 58.465-58.465-26.184-58.465-58.465-58.465-58.465 26.184-58.465 58.465zm116.93 0c0 32.281 26.184 58.465 58.465 58.465s58.465-26.184 58.465-58.465-26.184-58.465-58.465-58.465-58.465 26.184-58.465 58.465zm116.93 0c0 32.281 26.184 58.465 58.465 58.465s58.465-26.184 58.465-58.465-26.184-58.465-58.465-58.465-58.465 26.184-58.465 58.465zm116.93 0c0 32.281 26.184 58.465 58.465 58.465s58.465-26.184 58.465-58.465-26.184-58.465-58.465-58.465-58.465 26.184-58.465 58.465zm116.93 0c0 32.281 26.184 58.465 58.465 58.465s58.465-26.184 58.465-58.465-26.184-58.465-58.465-58.465-58.465 26.184-58.465 58.465zm116.93 0c0 32.281 26.184 58.465 58.465 58.465s58.465-26.184 58.465-58.465-26.184-58.465-58.465-58.465-58.465 26.184-58.465 58.465zm116.93 0c0 32.281 26.184 58.465 58.465 58.465s58.465-26.184 58.465-58.465-26.184-58.465-58.465-58.465-58.465 26.184-58.465 58.465zm116.93 0c0 32.281 26.184 58.465 58.465 58.465s58.465-26.184 58.465-58.465-26.184-58.465-58.465-58.465-58.465 26.184-58.465 58.465zm116.93 0c0 32.281 26.184 58.465 58.465 58.465s58.465-26.184 58.465-58.465-26.184-58.465-58.465-58.465-58.465 26.184-58.465 58.465zm58.465 58.465c-32.281 0-58.465 26.184-58.465 58.465s26.184 58.465 58.465 58.465 58.465-26.184 58.465-58.465-26.184-58.465-58.465-58.465zm0 116.93c-32.281 0-58.465 26.184-58.465 58.465s26.184 58.465 58.465 58.465 58.465-26.184 58.465-58.465-26.184-58.465-58.465-58.465zm0 116.93c-32.281 0-58.465 26.184-58.465 58.465s26.184 58.465 58.465 58.465 58.465-26.184 58.465-58.465-26.184-58.465-58.465-58.465zm0 116.93c-32.281 0-58.465 26.184-58.465 58.465s26.184 58.465 58.465 58.465 58.465-26.184 58.465-58.465-26.184-58.465-58.465-58.465zm0 116.93c-32.281 0-58.465 26.184-58.465 58.465s26.184 58.465 58.465 58.465 58.465-26.184 58.465-58.465-26.184-58.465-58.465-58.465zm0 116.93c-32.281 0-58.465 26.184-58.465 58.465s26.184 58.465 58.465 58.465 58.465-26.184 58.465-58.465-26.184-58.465-58.465-58.465zm0 116.93c-32.281 0-58.465 26.184-58.465 58.465s26.184 58.465 58.465 58.465 58.465-26.184 58.465-58.465-26.184-58.465-58.465-58.465zm0 116.93c-32.281 0-58.465 26.184-58.465 58.465s26.184 58.465 58.465 58.465 58.465-26.184 58.465-58.465-26.184-58.465-58.465-58.465zm0 116.93c-32.281 0-58.465 26.184-58.465 58.465s26.184 58.465 58.465 58.465 58.465-26.184 58.465-58.465-26.184-58.465-58.465-58.465zm-58.465 58.465c0-32.281-26.184-58.465-58.465-58.465s-58.465 26.184-58.465 58.465 26.184 58.465 58.465 58.465 58.465-26.184 58.465-58.465zm-116.93 0c0-32.281-26.184-58.465-58.465-58.465s-58.465 26.184-58.465 58.465 26.184 58.465 58.465 58.465 58.465-26.184 58.465-58.465zm-116.93 0c0-32.281-26.184-58.465-58.465-58.465s-58.465 26.184-58.465 58.465 26.184 58.465 58.465 58.465 58.465-26.184 58.465-58.465zm-116.93 0c0-32.281-26.184-58.465-58.465-58.465s-58.465 26.184-58.465 58.465 26.184 58.465 58.465 58.465 58.465-26.184 58.465-58.465zm-116.93 0c0-32.281-26.184-58.465-58.465-58.465s-58.465 26.184-58.465 58.465 26.184 58.465 58.465 58.465 58.465-26.184 58.465-58.465zm-116.93 0c0-32.281-26.184-58.465-58.465-58.465s-58.465 26.184-58.465 58.465 26.184 58.465 58.465 58.465 58.465-26.184 58.465-58.465zm-116.93 0c0-32.281-26.184-58.465-58.465-58.465s-58.465 26.184-58.465 58.465 26.184 58.465 58.465 58.465 58.465-26.184 58.465-58.465zm-116.93 0c0-32.281-26.184-58.465-58.465-58.465s-58.465 26.184-58.465 58.465 26.184 58.465 58.465 58.465 58.465-26.184 58.465-58.465zm-116.93 0c0-32.281-26.184-58.465-58.465-58.465s-58.465 26.184-58.465 58.465 26.184 58.465 58.465 58.465 58.465-26.184 58.465-58.465zm-58.465-58.453c32.281 0 58.465-26.184 58.465-58.465s-26.184-58.465-58.465-58.465-58.465 26.184-58.465 58.465 26.184 58.465 58.465 58.465zm0-116.93c32.281 0 58.465-26.184 58.465-58.465s-26.184-58.465-58.465-58.465-58.465 26.184-58.465 58.465 26.184 58.465 58.465 58.465zm0-116.93c32.281 0 58.465-26.184 58.465-58.465s-26.184-58.465-58.465-58.465-58.465 26.184-58.465 58.465 26.184 58.465 58.465 58.465zm0-116.93c32.281 0 58.465-26.184 58.465-58.465s-26.184-58.465-58.465-58.465-58.465 26.184-58.465 58.465 26.184 58.465 58.465 58.465zm0-116.93c32.281 0 58.465-26.184 58.465-58.465s-26.184-58.465-58.465-58.465-58.465 26.184-58.465 58.465 26.184 58.465 58.465 58.465zm0-116.93c32.281 0 58.465-26.184 58.465-58.465s-26.184-58.465-58.465-58.465-58.465 26.184-58.465 58.465 26.184 58.465 58.465 58.465zm0-116.93c32.281 0 58.465-26.184 58.465-58.465s-26.184-58.465-58.465-58.465-58.465 26.184-58.465 58.465 26.184 58.465 58.465 58.465zm0-116.93c32.281 0 58.465-26.184 58.465-58.465s-26.184-58.465-58.465-58.465-58.465 26.184-58.465 58.465 26.184 58.465 58.465 58.465zm58.465-58.477c0 32.281 26.184 58.465 58.465 58.465s58.465-26.184 58.465-58.465-26.184-58.465-58.465-58.465-58.465 26.184-58.465 58.465zm116.93 0c0 32.281 26.184 58.465 58.465 58.465s58.465-26.184 58.465-58.465-26.184-58.465-58.465-58.465-58.465 26.184-58.465 58.465zm116.93 0c0 32.281 26.184 58.465 58.465 58.465s58.465-26.184 58.465-58.465-26.184-58.465-58.465-58.465-58.465 26.184-58.465 58.465zm116.93 0c0 32.281 26.184 58.465 58.465 58.465s58.465-26.184 58.465-58.465-26.184-58.465-58.465-58.465-58.465 26.184-58.465 58.465zm116.93 0c0 32.281 26.184 58.465 58.465 58.465s58.465-26.184 58.465-58.465-26.184-58.465-58.465-58.465-58.465 26.184-58.465 58.465zm116.93 0c0 32.281 26.184 58.465 58.465 58.465s58.465-26.184 58.465-58.465-26.184-58.465-58.465-58.465-58.465 26.184-58.465 58.465zm116.93 0c0 32.281 26.184 58.465 58.465 58.465s58.465-26.184 58.465-58.465-26.184-58.465-58.465-58.465-58.465 26.184-58.465 58.465zm116.93 0c0 32.281 26.184 58.465 58.465 58.465s58.465-26.184 58.465-58.465-26.184-58.465-58.465-58.465-58.465 26.184-58.465 58.465zm58.465 58.465c-32.281 0-58.465 26.184-58.465 58.465s26.184 58.465 58.465 58.465 58.465-26.184 58.465-58.465-26.184-58.465-58.465-58.465zm0 116.93c-32.281 0-58.465 26.184-58.465 58.465s26.184 58.465 58.465 58.465 58.465-26.184 58.465-58.465-26.184-58.465-58.465-58.465zm0 116.93c-32.281 0-58.465 26.184-58.465 58.465s26.184 58.465 58.465 58.465 58.465-26.184 58.465-58.465-26.184-58.465-58.465-58.465zm0 116.93c-32.281 0-58.465 26.184-58.465 58.465s26.184 58.465 58.465 58.465 58.465-26.184 58.465-58.465-26.184-58.465-58.465-58.465zm0 116.93c-32.281 0-58.465 26.184-58.465 58.465s26.184 58.465 58.465 58.465 58.465-26.184 58.465-58.465-26.184-58.465-58.465-58.465zm0 116.93c-32.281 0-58.465 26.184-58.465 58.465s26.184 58.465 58.465 58.465 58.465-26.184 58.465-58.465-26.184-58.465-58.465-58.465zm0 116.93c-32.281 0-58.465 26.184-58.465 58.465s26.184 58.465 58.465 58.465 58.465-26.184 58.465-58.465-26.184-58.465-58.465-58.465zm-58.465 58.465c0-32.281-26.184-58.465-58.465-58.465s-58.465 26.184-58.465 58.465 26.184 58.465 58.465 58.465 58.465-26.184 58.465-58.465zm-116.93 0c0-32.281-26.184-58.465-58.465-58.465s-58.465 26.184-58.465 58.465 26.184 58.465 58.465 58.465 58.465-26.184 58.465-58.465zm-116.93 0c0-32.281-26.184-58.465-58.465-58.465s-58.465 26.184-58.465 58.465 26.184 58.465 58.465 58.465 58.465-26.184 58.465-58.465zm-116.93 0c0-32.281-26.184-58.465-58.465-58.465s-58.465 26.184-58.465 58.465 26.184 58.465 58.465 58.465 58.465-26.184 58.465-58.465zm-116.93 0c0-32.281-26.184-58.465-58.465-58.465s-58.465 26.184-58.465 58.465 26.184 58.465 58.465 58.465 58.465-26.184 58.465-58.465zm-116.93 0c0-32.281-26.184-58.465-58.465-58.465s-58.465 26.184-58.465 58.465 26.184 58.465 58.465 58.465 58.465-26.184 58.465-58.465zm-116.93 0c0-32.281-26.184-58.465-58.465-58.465s-58.465 26.184-58.465 58.465 26.184 58.465 58.465 58.465 58.465-26.184 58.465-58.465zm-58.465-58.453c32.281 0 58.465-26.184 58.465-58.465s-26.184-58.465-58.465-58.465-58.465 26.184-58.465 58.465 26.184 58.465 58.465 58.465zm0-116.93c32.281 0 58.465-26.184 58.465-58.465s-26.184-58.465-58.465-58.465-58.465 26.184-58.465 58.465 26.184 58.465 58.465 58.465zm0-116.93c32.281 0 58.465-26.184 58.465-58.465s-26.184-58.465-58.465-58.465-58.465 26.184-58.465 58.465 26.184 58.465 58.465 58.465zm0-116.93c32.281 0 58.465-26.184 58.465-58.465s-26.184-58.465-58.465-58.465-58.465 26.184-58.465 58.465 26.184 58.465 58.465 58.465zm0-116.93c32.281 0 58.465-26.184 58.465-58.465s-26.184-58.465-58.465-58.465-58.465 26.184-58.465 58.465 26.184 58.465 58.465 58.465zm0-116.93c32.281 0 58.465-26.184 58.465-58.465s-26.184-58.465-58.465-58.465-58.465 26.184-58.465 58.465 26.184 58.465 58.465 58.465zm58.469-58.473c0 32.281 26.184 58.465 58.465 58.465s58.465-26.184 58.465-58.465-26.184-58.465-58.465-58.465-58.465 26.184-58.465 58.465zm116.93 0c0 32.281 26.184 58.465 58.465 58.465s58.465-26.184 58.465-58.465-26.184-58.465-58.465-58.465-58.465 26.184-58.465 58.465zm116.93 0c0 32.281 26.184 58.465 58.465 58.465s58.465-26.184 58.465-58.465-26.184-58.465-58.465-58.465-58.465 26.184-58.465 58.465zm116.93 0c0 32.281 26.184 58.465 58.465 58.465s58.465-26.184 58.465-58.465-26.184-58.465-58.465-58.465-58.465 26.184-58.465 58.465zm116.93 0c0 32.281 26.184 58.465 58.465 58.465s58.465-26.184 58.465-58.465-26.184-58.465-58.465-58.465-58.465 26.184-58.465 58.465zm116.93 0c0 32.281 26.184 58.465 58.465 58.465s58.465-26.184 58.465-58.465-26.184-58.465-58.465-58.465-58.465 26.184-58.465 58.465zm58.465 58.465c-32.281 0-58.465 26.184-58.465 58.465s26.184 58.465 58.465 58.465 58.465-26.184 58.465-58.465-26.184-58.465-58.465-58.465zm0 116.93c-32.281 0-58.465 26.184-58.465 58.465s26.184 58.465 58.465 58.465 58.465-26.184 58.465-58.465-26.184-58.465-58.465-58.465zm0 116.93c-32.281 0-58.465 26.184-58.465 58.465s26.184 58.465 58.465 58.465 58.465-26.184 58.465-58.465-26.184-58.465-58.465-58.465zm0 116.93c-32.281 0-58.465 26.184-58.465 58.465s26.184 58.465 58.465 58.465 58.465-26.184 58.465-58.465-26.184-58.465-58.465-58.465zm0 116.93c-32.281 0-58.465 26.184-58.465 58.465s26.184 58.465 58.465 58.465 58.465-26.184 58.465-58.465-26.184-58.465-58.465-58.465zm-58.465 58.465c0-32.281-26.184-58.465-58.465-58.465s-58.465 26.184-58.465 58.465 26.184 58.465 58.465 58.465 58.465-26.184 58.465-58.465zm-116.93 0c0-32.281-26.184-58.465-58.465-58.465s-58.465 26.184-58.465 58.465 26.184 58.465 58.465 58.465 58.465-26.184 58.465-58.465zm-116.93 0c0-32.281-26.184-58.465-58.465-58.465s-58.465 26.184-58.465 58.465 26.184 58.465 58.465 58.465 58.465-26.184 58.465-58.465zm-116.93 0c0-32.281-26.184-58.465-58.465-58.465s-58.465 26.184-58.465 58.465 26.184 58.465 58.465 58.465 58.465-26.184 58.465-58.465zm-116.93 0c0-32.281-26.184-58.465-58.465-58.465s-58.465 26.184-58.465 58.465 26.184 58.465 58.465 58.465 58.465-26.184 58.465-58.465zm-58.465-58.461c32.281 0 58.465-26.184 58.465-58.465s-26.184-58.465-58.465-58.465-58.465 26.184-58.465 58.465 26.184 58.465 58.465 58.465zm0-116.93c32.281 0 58.465-26.184 58.465-58.465s-26.184-58.465-58.465-58.465-58.465 26.184-58.465 58.465 26.184 58.465 58.465 58.465zm0-116.93c32.281 0 58.465-26.184 58.465-58.465s-26.184-58.465-58.465-58.465-58.465 26.184-58.465 58.465 26.184 58.465 58.465 58.465zm0-116.93c32.281 0 58.465-26.184 58.465-58.465s-26.184-58.465-58.465-58.465-58.465 26.184-58.465 58.465 26.184 58.465 58.465 58.465zm58.465-58.469c0 32.281 26.184 58.465 58.465 58.465s58.465-26.184 58.465-58.465-26.184-58.465-58.465-58.465-58.465 26.184-58.465 58.465zm116.93 0c0 32.281 26.184 58.465 58.465 58.465s58.465-26.184 58.465-58.465-26.184-58.465-58.465-58.465-58.465 26.184-58.465 58.465zm116.93 0c0 32.281 26.184 58.465 58.465 58.465s58.465-26.184 58.465-58.465-26.184-58.465-58.465-58.465-58.465 26.184-58.465 58.465zm116.93 0c0 32.281 26.184 58.465 58.465 58.465s58.465-26.184 58.465-58.465-26.184-58.465-58.465-58.465-58.465 26.184-58.465 58.465zm58.465 58.465c-32.281 0-58.465 26.184-58.465 58.465s26.184 58.465 58.465 58.465 58.465-26.184 58.465-58.465-26.184-58.465-58.465-58.465zm0 116.93c-32.281 0-58.465 26.184-58.465 58.465s26.184 58.465 58.465 58.465 58.465-26.184 58.465-58.465-26.184-58.465-58.465-58.465zm0 116.93c-32.281 0-58.465 26.184-58.465 58.465s26.184 58.465 58.465 58.465 58.465-26.184 58.465-58.465-26.184-58.465-58.465-58.465zm-58.465 58.465c0-32.281-26.184-58.465-58.465-58.465s-58.465 26.184-58.465 58.465 26.184 58.465 58.465 58.465 58.465-26.184 58.465-58.465zm-116.93 0c0-32.281-26.184-58.465-58.465-58.465s-58.465 26.184-58.465 58.465 26.184 58.465 58.465 58.465 58.465-26.184 58.465-58.465zm-116.93 0c0-32.281-26.184-58.465-58.465-58.465s-58.465 26.184-58.465 58.465 26.184 58.465 58.465 58.465 58.465-26.184 58.465-58.465zm-58.465-58.461c32.281 0 58.465-26.184 58.465-58.465s-26.184-58.465-58.465-58.465-58.465 26.184-58.465 58.465 26.184 58.465 58.465 58.465zm0-116.93c32.281 0 58.465-26.184 58.465-58.465s-26.184-58.465-58.465-58.465-58.465 26.184-58.465 58.465 26.184 58.465 58.465 58.465zm58.465-58.465c0 32.281 26.184 58.465 58.465 58.465s58.465-26.184 58.465-58.465-26.184-58.465-58.465-58.465-58.465 26.184-58.465 58.465zm116.93 0c0 32.281 26.184 58.465 58.465 58.465s58.465-26.184 58.465-58.465-26.184-58.465-58.465-58.465-58.465 26.184-58.465 58.465zm58.465 58.465c-32.281 0-58.465 26.184-58.465 58.465s26.184 58.465 58.465 58.465 58.465-26.184 58.465-58.465-26.184-58.465-58.465-58.465zm-58.465 58.465c0-32.281-26.184-58.465-58.465-58.465s-58.465 26.184-58.465 58.465 26.184 58.465 58.465 58.465 58.465-26.184 58.465-58.465zm-526.19-641.54c31.426 0 56.887 25.461 56.887 56.887s-25.461 56.887-56.887 56.887-56.887-25.461-56.887-56.887c0-0.98047 0.027344-1.9609 0.074219-2.9297 1.5234-30.062 26.367-53.957 56.812-53.957zm116.93 0c31.43 0 56.887 25.461 56.887 56.887s-25.457 56.887-56.887 56.887c-31.426 0-56.887-25.457-56.887-56.887 0-31.426 25.457-56.887 56.887-56.887zm116.93 0c31.426 0 56.887 25.457 56.887 56.887 0 31.426-25.457 56.887-56.887 56.887-31.426 0-56.887-25.457-56.887-56.887 0-31.426 25.457-56.887 56.887-56.887zm116.93 0c31.43 0 56.891 25.461 56.891 56.887s-25.457 56.887-56.887 56.887c-31.426 0-56.887-25.457-56.887-56.887 0-31.426 25.457-56.887 56.887-56.887zm116.93 0c31.426 0 56.887 25.457 56.887 56.887 0 31.426-25.457 56.887-56.887 56.887-31.426 0-56.887-25.457-56.887-56.887 0-31.426 25.457-56.887 56.887-56.887zm116.93 0c31.426 0 56.887 25.457 56.887 56.887 0 31.426-25.457 56.887-56.887 56.887-31.426 0-56.887-25.457-56.887-56.887 0-31.426 25.457-56.887 56.887-56.887zm116.93 0c31.426 0 56.887 25.457 56.887 56.887 0 31.426-25.457 56.887-56.887 56.887-31.426 0-56.887-25.457-56.887-56.887 0-31.426 25.457-56.887 56.887-56.887zm116.93 0c31.426 0 56.887 25.457 56.887 56.887 0 31.426-25.457 56.887-56.887 56.887-31.426 0-56.887-25.457-56.887-56.887 0-31.426 25.457-56.887 56.887-56.887zm116.93 0c31.426 0 56.887 25.457 56.887 56.887 0 31.426-25.457 56.887-56.887 56.887-31.426 0-56.887-25.457-56.887-56.887 0-31.426 25.457-56.887 56.887-56.887zm116.93 0c31.426 0 56.887 25.457 56.887 56.887 0 31.426-25.457 56.887-56.887 56.887-31.426 0-56.887-25.457-56.887-56.887 0-31.426 25.457-56.887 56.887-56.887zm-1052.4 18.211c-20.684 0-37.59 16.262-38.625 36.688-0.035156 0.66016-0.050781 1.3203-0.050781 1.9883 0 21.352 17.324 38.676 38.676 38.676s38.676-17.324 38.676-38.676-17.324-38.676-38.676-38.676zm116.93 0c-21.348 0-38.676 17.324-38.676 38.676s17.324 38.676 38.676 38.676c21.352 0 38.676-17.324 38.676-38.676s-17.324-38.676-38.676-38.676zm116.93 0c-21.348 0-38.672 17.324-38.672 38.676s17.324 38.676 38.676 38.676c21.352 0 38.676-17.324 38.676-38.676s-17.324-38.676-38.676-38.676zm116.93 0c-21.352 0-38.676 17.324-38.676 38.676s17.324 38.676 38.676 38.676c21.352 0 38.676-17.324 38.676-38.676s-17.324-38.676-38.676-38.676zm116.93 0c-21.352 0-38.676 17.324-38.676 38.676s17.324 38.676 38.676 38.676 38.676-17.324 38.676-38.676-17.324-38.676-38.676-38.676zm116.93 0c-21.352 0-38.676 17.324-38.676 38.676s17.324 38.676 38.676 38.676c21.352 0 38.676-17.324 38.676-38.676s-17.324-38.676-38.676-38.676zm116.93 0c-21.352 0-38.676 17.324-38.676 38.676s17.324 38.676 38.676 38.676 38.676-17.324 38.676-38.676-17.324-38.676-38.676-38.676zm116.93 0c-21.352 0-38.676 17.324-38.676 38.676s17.324 38.676 38.676 38.676c21.352 0 38.676-17.324 38.676-38.676s-17.324-38.676-38.676-38.676zm116.93 0c-21.352 0-38.676 17.324-38.676 38.676s17.324 38.676 38.676 38.676 38.676-17.324 38.676-38.676-17.324-38.676-38.676-38.676zm116.93 0c-21.352 0-38.676 17.324-38.676 38.676s17.324 38.676 38.676 38.676c21.352 0 38.676-17.324 38.676-38.676s-17.324-38.676-38.676-38.676zm-1052.4 1.582c20.496 0 37.094 16.598 37.094 37.094s-16.598 37.094-37.094 37.094-37.094-16.598-37.094-37.094c0-0.64062 0.015625-1.2773 0.050781-1.9102 0.98828-19.609 17.188-35.184 37.043-35.184zm116.93 0c20.496 0 37.094 16.598 37.094 37.094s-16.598 37.094-37.094 37.094c-20.496 0-37.094-16.598-37.094-37.094s16.598-37.094 37.094-37.094zm116.93 0c20.496 0 37.094 16.598 37.094 37.094s-16.598 37.094-37.094 37.094-37.094-16.598-37.094-37.094 16.598-37.094 37.094-37.094zm116.93 0c20.5 0 37.102 16.598 37.102 37.094s-16.598 37.094-37.094 37.094-37.094-16.598-37.094-37.094 16.598-37.094 37.094-37.094zm116.93 0c20.496 0 37.094 16.598 37.094 37.094s-16.598 37.094-37.094 37.094-37.094-16.598-37.094-37.094 16.598-37.094 37.094-37.094zm116.93 0c20.496 0 37.094 16.598 37.094 37.094s-16.598 37.094-37.094 37.094c-20.496 0-37.094-16.598-37.094-37.094s16.598-37.094 37.094-37.094zm116.93 0c20.496 0 37.094 16.598 37.094 37.094s-16.598 37.094-37.094 37.094-37.094-16.598-37.094-37.094 16.598-37.094 37.094-37.094zm116.93 0c20.496 0 37.094 16.598 37.094 37.094s-16.598 37.094-37.094 37.094c-20.496 0-37.094-16.598-37.094-37.094s16.598-37.094 37.094-37.094zm116.93 0c20.496 0 37.094 16.598 37.094 37.094s-16.598 37.094-37.094 37.094-37.094-16.598-37.094-37.094 16.598-37.094 37.094-37.094zm116.93 0c20.496 0 37.094 16.598 37.094 37.094s-16.598 37.094-37.094 37.094c-20.496 0-37.094-16.598-37.094-37.094s16.598-37.094 37.094-37.094zm-1052.4 17.914c-9.9219 0-18.098 7.5547-19.082 17.219-0.066407 0.64453-0.097657 1.2969-0.097657 1.9609 0 10.582 8.5977 19.18 19.18 19.18s19.18-8.5977 19.18-19.18-8.5977-19.18-19.18-19.18zm116.93 0c-10.582 0-19.18 8.5977-19.18 19.18s8.5977 19.18 19.18 19.18c10.582 0 19.18-8.5977 19.18-19.18s-8.5977-19.18-19.18-19.18zm116.93 0c-10.582 0-19.18 8.5977-19.18 19.18s8.5977 19.18 19.18 19.18 19.18-8.5977 19.18-19.18-8.5977-19.18-19.18-19.18zm116.93 0c-10.582 0-19.18 8.5977-19.18 19.18s8.5977 19.18 19.18 19.18c10.582 0 19.18-8.5977 19.18-19.18s-8.5977-19.18-19.18-19.18zm116.93 0c-10.582 0-19.18 8.5977-19.18 19.18s8.5977 19.18 19.18 19.18 19.18-8.5977 19.18-19.18-8.5977-19.18-19.18-19.18zm116.93 0c-10.582 0-19.18 8.5977-19.18 19.18s8.5977 19.18 19.18 19.18c10.582 0 19.18-8.5977 19.18-19.18s-8.5977-19.18-19.18-19.18zm116.93 0c-10.582 0-19.18 8.5977-19.18 19.18s8.5977 19.18 19.18 19.18 19.18-8.5977 19.18-19.18-8.5977-19.18-19.18-19.18zm116.93 0c-10.582 0-19.18 8.5977-19.18 19.18s8.5977 19.18 19.18 19.18c10.582 0 19.18-8.5977 19.18-19.18s-8.5977-19.18-19.18-19.18zm116.93 0c-10.582 0-19.18 8.5977-19.18 19.18s8.5977 19.18 19.18 19.18 19.18-8.5977 19.18-19.18-8.5977-19.18-19.18-19.18zm116.93 0c-10.582 0-19.18 8.5977-19.18 19.18s8.5977 19.18 19.18 19.18c10.582 0 19.18-8.5977 19.18-19.18s-8.5977-19.18-19.18-19.18zm-1052.4 1.582c9.7305 0 17.598 7.8711 17.598 17.598 0 9.7305-7.8711 17.598-17.598 17.598-9.7305 0-17.598-7.8711-17.598-17.598 0-0.60938 0.03125-1.2109 0.089844-1.8008 0.89844-8.8828 8.3867-15.797 17.508-15.797zm116.93 0c9.7305 0 17.598 7.8711 17.598 17.598 0 9.7305-7.8711 17.598-17.598 17.598-9.7305 0-17.598-7.8711-17.598-17.598 0-9.7305 7.8711-17.598 17.598-17.598zm116.93 0c9.7305 0 17.598 7.8711 17.598 17.598 0 9.7305-7.8711 17.598-17.598 17.598-9.7305 0-17.598-7.8711-17.598-17.598 0-9.7305 7.8711-17.598 17.598-17.598zm116.93 0c9.7305 0 17.598 7.8711 17.598 17.598 0 9.7305-7.8711 17.598-17.598 17.598-9.7305 0-17.598-7.8711-17.598-17.598 0-9.7305 7.8711-17.598 17.598-17.598zm116.93 0c9.7305 0 17.598 7.8711 17.598 17.598 0 9.7305-7.8711 17.598-17.598 17.598-9.7305 0-17.598-7.8711-17.598-17.598 0-9.7305 7.8711-17.598 17.598-17.598zm116.93 0c9.7305 0 17.598 7.8711 17.598 17.598 0 9.7305-7.8711 17.598-17.598 17.598-9.7305 0-17.598-7.8711-17.598-17.598 0-9.7305 7.8711-17.598 17.598-17.598zm116.93 0c9.7305 0 17.598 7.8711 17.598 17.598 0 9.7305-7.8711 17.598-17.598 17.598-9.7305 0-17.598-7.8711-17.598-17.598 0-9.7305 7.8711-17.598 17.598-17.598zm116.93 0c9.7305 0 17.598 7.8711 17.598 17.598 0 9.7305-7.8711 17.598-17.598 17.598-9.7305 0-17.598-7.8711-17.598-17.598 0-9.7305 7.8711-17.598 17.598-17.598zm116.93 0c9.7305 0 17.598 7.8711 17.598 17.598 0 9.7305-7.8711 17.598-17.598 17.598-9.7305 0-17.598-7.8711-17.598-17.598 0-9.7305 7.8711-17.598 17.598-17.598zm116.93 0c9.7305 0 17.598 7.8711 17.598 17.598 0 9.7305-7.8711 17.598-17.598 17.598-9.7305 0-17.598-7.8711-17.598-17.598 0-9.7305 7.8711-17.598 17.598-17.598zm-1052.4 77.645c31.426 0 56.887 25.457 56.887 56.887 0 31.426-25.457 56.887-56.887 56.887-31.426 0-56.887-25.457-56.887-56.887 0-31.43 25.461-56.887 56.887-56.887zm116.93 0c31.426 0 56.887 25.457 56.887 56.887 0 31.426-25.457 56.887-56.887 56.887-31.426 0-56.887-25.457-56.887-56.887 0-31.426 25.457-56.887 56.887-56.887zm116.93 0c31.426 0 56.887 25.457 56.887 56.887 0 31.426-25.457 56.887-56.887 56.887-31.426 0-56.887-25.457-56.887-56.887 0-31.426 25.457-56.887 56.887-56.887zm116.93 0c31.426 0 56.887 25.457 56.887 56.887 0 31.426-25.457 56.887-56.887 56.887-31.426 0-56.887-25.457-56.887-56.887 0-31.426 25.457-56.887 56.887-56.887zm116.93 0c31.426 0 56.887 25.457 56.887 56.887 0 31.426-25.457 56.887-56.887 56.887-31.426 0-56.887-25.457-56.887-56.887 0-31.426 25.457-56.887 56.887-56.887zm116.93 0c31.426 0 56.887 25.457 56.887 56.887 0 31.426-25.457 56.887-56.887 56.887-31.426 0-56.887-25.457-56.887-56.887 0-31.426 25.457-56.887 56.887-56.887zm116.93 0c31.426 0 56.887 25.457 56.887 56.887 0 31.426-25.457 56.887-56.887 56.887-31.426 0-56.887-25.457-56.887-56.887 0-31.426 25.457-56.887 56.887-56.887zm116.93 0c31.426 0 56.887 25.457 56.887 56.887 0 31.426-25.457 56.887-56.887 56.887-31.426 0-56.887-25.457-56.887-56.887 0-31.426 25.457-56.887 56.887-56.887zm116.93 0c31.426 0 56.887 25.457 56.887 56.887 0 31.426-25.457 56.887-56.887 56.887-31.426 0-56.887-25.457-56.887-56.887 0-31.426 25.457-56.887 56.887-56.887zm116.93 0c31.426 0 56.887 25.457 56.887 56.887 0 31.426-25.457 56.887-56.887 56.887-31.426 0-56.887-25.457-56.887-56.887 0-31.426 25.457-56.887 56.887-56.887zm-1052.4 18.207c-21.352 0-38.676 17.324-38.676 38.676 0 21.352 17.324 38.676 38.676 38.676s38.676-17.324 38.676-38.676c0-21.352-17.324-38.676-38.676-38.676zm116.93 0c-21.352 0-38.676 17.324-38.676 38.676 0 21.352 17.324 38.676 38.676 38.676 21.352 0 38.676-17.324 38.676-38.676 0-21.352-17.324-38.676-38.676-38.676zm116.93 0c-21.352 0-38.676 17.324-38.676 38.676 0 21.352 17.324 38.676 38.676 38.676s38.676-17.324 38.676-38.676c0-21.352-17.324-38.676-38.676-38.676zm116.93 0c-21.352 0-38.676 17.324-38.676 38.676 0 21.352 17.324 38.676 38.676 38.676 21.352 0 38.676-17.324 38.676-38.676 0-21.352-17.324-38.676-38.676-38.676zm116.93 0c-21.352 0-38.676 17.324-38.676 38.676 0 21.352 17.324 38.676 38.676 38.676s38.676-17.324 38.676-38.676c0-21.352-17.324-38.676-38.676-38.676zm116.93 0c-21.352 0-38.676 17.324-38.676 38.676 0 21.352 17.324 38.676 38.676 38.676 21.352 0 38.676-17.324 38.676-38.676 0-21.352-17.324-38.676-38.676-38.676zm116.93 0c-21.352 0-38.676 17.324-38.676 38.676 0 21.352 17.324 38.676 38.676 38.676s38.676-17.324 38.676-38.676c0-21.352-17.324-38.676-38.676-38.676zm116.93 0c-21.352 0-38.676 17.324-38.676 38.676 0 21.352 17.324 38.676 38.676 38.676 21.352 0 38.676-17.324 38.676-38.676 0-21.352-17.324-38.676-38.676-38.676zm116.93 0c-21.352 0-38.676 17.324-38.676 38.676 0 21.352 17.324 38.676 38.676 38.676s38.676-17.324 38.676-38.676c0-21.352-17.324-38.676-38.676-38.676zm116.93 0c-21.352 0-38.676 17.324-38.676 38.676 0 21.352 17.324 38.676 38.676 38.676 21.352 0 38.676-17.324 38.676-38.676 0-21.352-17.324-38.676-38.676-38.676zm-1052.4 1.582c20.496 0 37.094 16.598 37.094 37.094 0 20.496-16.598 37.094-37.094 37.094s-37.094-16.598-37.094-37.094c0-20.496 16.598-37.094 37.094-37.094zm116.93 0c20.496 0 37.094 16.598 37.094 37.094 0 20.496-16.598 37.094-37.094 37.094-20.496 0-37.094-16.598-37.094-37.094 0-20.496 16.598-37.094 37.094-37.094zm116.93 0c20.496 0 37.094 16.598 37.094 37.094 0 20.496-16.598 37.094-37.094 37.094s-37.094-16.598-37.094-37.094c0-20.496 16.598-37.094 37.094-37.094zm116.93 0c20.496 0 37.094 16.598 37.094 37.094 0 20.496-16.598 37.094-37.094 37.094-20.496 0-37.094-16.598-37.094-37.094 0-20.496 16.598-37.094 37.094-37.094zm116.93 0c20.496 0 37.094 16.598 37.094 37.094 0 20.496-16.598 37.094-37.094 37.094s-37.094-16.598-37.094-37.094c0-20.496 16.598-37.094 37.094-37.094zm116.93 0c20.496 0 37.094 16.598 37.094 37.094 0 20.496-16.598 37.094-37.094 37.094-20.496 0-37.094-16.598-37.094-37.094 0-20.496 16.598-37.094 37.094-37.094zm116.93 0c20.496 0 37.094 16.598 37.094 37.094 0 20.496-16.598 37.094-37.094 37.094s-37.094-16.598-37.094-37.094c0-20.496 16.598-37.094 37.094-37.094zm116.93 0c20.496 0 37.094 16.598 37.094 37.094 0 20.496-16.598 37.094-37.094 37.094-20.496 0-37.094-16.598-37.094-37.094 0-20.496 16.598-37.094 37.094-37.094zm116.93 0c20.496 0 37.094 16.598 37.094 37.094 0 20.496-16.598 37.094-37.094 37.094s-37.094-16.598-37.094-37.094c0-20.496 16.598-37.094 37.094-37.094zm116.93 0c20.496 0 37.094 16.598 37.094 37.094 0 20.496-16.598 37.094-37.094 37.094-20.496 0-37.094-16.598-37.094-37.094 0-20.496 16.598-37.094 37.094-37.094zm-1052.4 17.914c-10.582 0-19.18 8.5977-19.18 19.18 0 10.582 8.5977 19.18 19.18 19.18s19.18-8.5977 19.18-19.18c0-10.582-8.5977-19.18-19.18-19.18zm116.93 0c-10.582 0-19.18 8.5977-19.18 19.18 0 10.582 8.5977 19.18 19.18 19.18 10.582 0 19.18-8.5977 19.18-19.18 0-10.582-8.5977-19.18-19.18-19.18zm116.93 0c-10.582 0-19.18 8.5977-19.18 19.18 0 10.582 8.5977 19.18 19.18 19.18s19.18-8.5977 19.18-19.18c0-10.582-8.5977-19.18-19.18-19.18zm116.93 0c-10.582 0-19.18 8.5977-19.18 19.18 0 10.582 8.5977 19.18 19.18 19.18 10.582 0 19.18-8.5977 19.18-19.18 0-10.582-8.5977-19.18-19.18-19.18zm116.93 0c-10.582 0-19.18 8.5977-19.18 19.18 0 10.582 8.5977 19.18 19.18 19.18s19.18-8.5977 19.18-19.18c0-10.582-8.5977-19.18-19.18-19.18zm116.93 0c-10.582 0-19.18 8.5977-19.18 19.18 0 10.582 8.5977 19.18 19.18 19.18 10.582 0 19.18-8.5977 19.18-19.18 0-10.582-8.5977-19.18-19.18-19.18zm116.93 0c-10.582 0-19.18 8.5977-19.18 19.18 0 10.582 8.5977 19.18 19.18 19.18s19.18-8.5977 19.18-19.18c0-10.582-8.5977-19.18-19.18-19.18zm116.93 0c-10.582 0-19.18 8.5977-19.18 19.18 0 10.582 8.5977 19.18 19.18 19.18 10.582 0 19.18-8.5977 19.18-19.18 0-10.582-8.5977-19.18-19.18-19.18zm116.93 0c-10.582 0-19.18 8.5977-19.18 19.18 0 10.582 8.5977 19.18 19.18 19.18s19.18-8.5977 19.18-19.18c0-10.582-8.5977-19.18-19.18-19.18zm116.93 0c-10.582 0-19.18 8.5977-19.18 19.18 0 10.582 8.5977 19.18 19.18 19.18 10.582 0 19.18-8.5977 19.18-19.18 0-10.582-8.5977-19.18-19.18-19.18zm-1052.4 1.582c9.7305 0 17.598 7.8711 17.598 17.598 0 9.7305-7.8711 17.598-17.598 17.598-9.7305 0-17.598-7.8711-17.598-17.598 0-9.7305 7.8711-17.598 17.598-17.598zm116.93 0c9.7305 0 17.598 7.8711 17.598 17.598 0 9.7305-7.8711 17.598-17.598 17.598-9.7305 0-17.598-7.8711-17.598-17.598 0-9.7305 7.8711-17.598 17.598-17.598zm116.93 0c9.7305 0 17.598 7.8711 17.598 17.598 0 9.7305-7.8711 17.598-17.598 17.598-9.7305 0-17.598-7.8711-17.598-17.598 0-9.7305 7.8711-17.598 17.598-17.598zm116.93 0c9.7305 0 17.598 7.8711 17.598 17.598 0 9.7305-7.8711 17.598-17.598 17.598-9.7305 0-17.598-7.8711-17.598-17.598 0-9.7305 7.8711-17.598 17.598-17.598zm116.93 0c9.7305 0 17.598 7.8711 17.598 17.598 0 9.7305-7.8711 17.598-17.598 17.598-9.7305 0-17.598-7.8711-17.598-17.598 0-9.7305 7.8711-17.598 17.598-17.598zm116.93 0c9.7305 0 17.598 7.8711 17.598 17.598 0 9.7305-7.8711 17.598-17.598 17.598-9.7305 0-17.598-7.8711-17.598-17.598 0-9.7305 7.8711-17.598 17.598-17.598zm116.93 0c9.7305 0 17.598 7.8711 17.598 17.598 0 9.7305-7.8711 17.598-17.598 17.598-9.7305 0-17.598-7.8711-17.598-17.598 0-9.7305 7.8711-17.598 17.598-17.598zm116.93 0c9.7305 0 17.598 7.8711 17.598 17.598 0 9.7305-7.8711 17.598-17.598 17.598-9.7305 0-17.598-7.8711-17.598-17.598 0-9.7305 7.8711-17.598 17.598-17.598zm116.93 0c9.7305 0 17.598 7.8711 17.598 17.598 0 9.7305-7.8711 17.598-17.598 17.598-9.7305 0-17.598-7.8711-17.598-17.598 0-9.7305 7.8711-17.598 17.598-17.598zm116.93 0c9.7305 0 17.598 7.8711 17.598 17.598 0 9.7305-7.8711 17.598-17.598 17.598-9.7305 0-17.598-7.8711-17.598-17.598 0-9.7305 7.8711-17.598 17.598-17.598zm-1052.4 77.645c31.426 0 56.887 25.457 56.887 56.887 0 31.426-25.457 56.887-56.887 56.887-31.426 0-56.887-25.457-56.887-56.887 0-31.426 25.461-56.887 56.887-56.887zm116.93 0c31.426 0 56.887 25.457 56.887 56.887 0 31.426-25.457 56.887-56.887 56.887-31.426 0-56.887-25.457-56.887-56.887 0-31.426 25.457-56.887 56.887-56.887zm116.93 0c31.426 0 56.887 25.457 56.887 56.887 0 31.426-25.457 56.887-56.887 56.887-31.426 0-56.887-25.457-56.887-56.887 0-31.426 25.457-56.887 56.887-56.887zm116.93 0c31.426 0 56.887 25.457 56.887 56.887 0 31.426-25.457 56.887-56.887 56.887-31.426 0-56.887-25.457-56.887-56.887 0-31.426 25.457-56.887 56.887-56.887zm116.93 0c31.426 0 56.887 25.457 56.887 56.887 0 31.426-25.457 56.887-56.887 56.887-31.426 0-56.887-25.457-56.887-56.887 0-31.426 25.457-56.887 56.887-56.887zm116.93 0c31.426 0 56.887 25.457 56.887 56.887 0 31.426-25.457 56.887-56.887 56.887-31.426 0-56.887-25.457-56.887-56.887 0-31.426 25.457-56.887 56.887-56.887zm116.93 0c31.426 0 56.887 25.457 56.887 56.887 0 31.426-25.457 56.887-56.887 56.887-31.426 0-56.887-25.457-56.887-56.887 0-31.426 25.457-56.887 56.887-56.887zm116.93 0c31.426 0 56.887 25.457 56.887 56.887 0 31.426-25.457 56.887-56.887 56.887-31.426 0-56.887-25.457-56.887-56.887 0-31.426 25.457-56.887 56.887-56.887zm116.93 0c31.426 0 56.887 25.457 56.887 56.887 0 31.426-25.457 56.887-56.887 56.887-31.426 0-56.887-25.457-56.887-56.887 0-31.426 25.457-56.887 56.887-56.887zm116.93 0c31.426 0 56.887 25.457 56.887 56.887 0 31.426-25.457 56.887-56.887 56.887-31.426 0-56.887-25.457-56.887-56.887 0-31.426 25.457-56.887 56.887-56.887zm-1052.4 18.211c-21.352 0-38.676 17.324-38.676 38.676 0 21.352 17.324 38.676 38.676 38.676s38.676-17.324 38.676-38.676c0-21.352-17.324-38.676-38.676-38.676zm116.93 0c-21.352 0-38.676 17.324-38.676 38.676 0 21.352 17.324 38.676 38.676 38.676 21.352 0 38.676-17.324 38.676-38.676 0-21.352-17.324-38.676-38.676-38.676zm116.93 0c-21.352 0-38.676 17.324-38.676 38.676 0 21.352 17.324 38.676 38.676 38.676s38.676-17.324 38.676-38.676c0-21.352-17.324-38.676-38.676-38.676zm116.93 0c-21.352 0-38.676 17.324-38.676 38.676 0 21.352 17.324 38.676 38.676 38.676 21.352 0 38.676-17.324 38.676-38.676 0-21.352-17.324-38.676-38.676-38.676zm116.93 0c-21.352 0-38.676 17.324-38.676 38.676 0 21.352 17.324 38.676 38.676 38.676s38.676-17.324 38.676-38.676c0-21.352-17.324-38.676-38.676-38.676zm116.93 0c-21.352 0-38.676 17.324-38.676 38.676 0 21.352 17.324 38.676 38.676 38.676 21.352 0 38.676-17.324 38.676-38.676 0-21.352-17.324-38.676-38.676-38.676zm116.93 0c-21.352 0-38.676 17.324-38.676 38.676 0 21.352 17.324 38.676 38.676 38.676s38.676-17.324 38.676-38.676c0-21.352-17.324-38.676-38.676-38.676zm116.93 0c-21.352 0-38.676 17.324-38.676 38.676 0 21.352 17.324 38.676 38.676 38.676 21.352 0 38.676-17.324 38.676-38.676 0-21.352-17.324-38.676-38.676-38.676zm116.93 0c-21.352 0-38.676 17.324-38.676 38.676 0 21.352 17.324 38.676 38.676 38.676s38.676-17.324 38.676-38.676c0-21.352-17.324-38.676-38.676-38.676zm116.93 0c-21.352 0-38.676 17.324-38.676 38.676 0 21.352 17.324 38.676 38.676 38.676 21.352 0 38.676-17.324 38.676-38.676 0-21.352-17.324-38.676-38.676-38.676zm-1052.4 1.5781c20.496 0 37.094 16.598 37.094 37.094s-16.598 37.094-37.094 37.094-37.094-16.598-37.094-37.094c0-20.492 16.598-37.094 37.094-37.094zm116.93 0c20.496 0 37.094 16.598 37.094 37.094s-16.598 37.094-37.094 37.094c-20.496 0-37.094-16.598-37.094-37.094s16.598-37.094 37.094-37.094zm116.93 0c20.496 0 37.094 16.598 37.094 37.094s-16.598 37.094-37.094 37.094-37.094-16.598-37.094-37.094 16.598-37.094 37.094-37.094zm116.93 0c20.496 0 37.094 16.598 37.094 37.094s-16.598 37.094-37.094 37.094c-20.496 0-37.094-16.598-37.094-37.094s16.598-37.094 37.094-37.094zm116.93 0c20.496 0 37.094 16.598 37.094 37.094s-16.598 37.094-37.094 37.094-37.094-16.598-37.094-37.094 16.598-37.094 37.094-37.094zm116.93 0c20.496 0 37.094 16.598 37.094 37.094s-16.598 37.094-37.094 37.094c-20.496 0-37.094-16.598-37.094-37.094s16.598-37.094 37.094-37.094zm116.93 0c20.496 0 37.094 16.598 37.094 37.094s-16.598 37.094-37.094 37.094-37.094-16.598-37.094-37.094 16.598-37.094 37.094-37.094zm116.93 0c20.496 0 37.094 16.598 37.094 37.094s-16.598 37.094-37.094 37.094c-20.496 0-37.094-16.598-37.094-37.094s16.598-37.094 37.094-37.094zm116.93 0c20.496 0 37.094 16.598 37.094 37.094s-16.598 37.094-37.094 37.094-37.094-16.598-37.094-37.094 16.598-37.094 37.094-37.094zm116.93 0c20.496 0 37.094 16.598 37.094 37.094s-16.598 37.094-37.094 37.094c-20.496 0-37.094-16.598-37.094-37.094s16.598-37.094 37.094-37.094zm-1052.4 17.918c-10.582 0-19.18 8.5977-19.18 19.18s8.5977 19.18 19.18 19.18 19.18-8.5977 19.18-19.18-8.5977-19.18-19.18-19.18zm116.93 0c-10.582 0-19.18 8.5977-19.18 19.18s8.5977 19.18 19.18 19.18c10.582 0 19.18-8.5977 19.18-19.18s-8.5977-19.18-19.18-19.18zm116.93 0c-10.582 0-19.18 8.5977-19.18 19.18s8.5977 19.18 19.18 19.18 19.18-8.5977 19.18-19.18-8.5977-19.18-19.18-19.18zm116.93 0c-10.582 0-19.18 8.5977-19.18 19.18s8.5977 19.18 19.18 19.18c10.582 0 19.18-8.5977 19.18-19.18s-8.5977-19.18-19.18-19.18zm116.93 0c-10.582 0-19.18 8.5977-19.18 19.18s8.5977 19.18 19.18 19.18 19.18-8.5977 19.18-19.18-8.5977-19.18-19.18-19.18zm116.93 0c-10.582 0-19.18 8.5977-19.18 19.18s8.5977 19.18 19.18 19.18c10.582 0 19.18-8.5977 19.18-19.18s-8.5977-19.18-19.18-19.18zm116.93 0c-10.582 0-19.18 8.5977-19.18 19.18s8.5977 19.18 19.18 19.18 19.18-8.5977 19.18-19.18-8.5977-19.18-19.18-19.18zm116.93 0c-10.582 0-19.18 8.5977-19.18 19.18s8.5977 19.18 19.18 19.18c10.582 0 19.18-8.5977 19.18-19.18s-8.5977-19.18-19.18-19.18zm116.93 0c-10.582 0-19.18 8.5977-19.18 19.18s8.5977 19.18 19.18 19.18 19.18-8.5977 19.18-19.18-8.5977-19.18-19.18-19.18zm116.93 0c-10.582 0-19.18 8.5977-19.18 19.18s8.5977 19.18 19.18 19.18c10.582 0 19.18-8.5977 19.18-19.18s-8.5977-19.18-19.18-19.18zm-1052.4 1.5781c9.7305 0 17.598 7.8711 17.598 17.598 0 9.7305-7.8711 17.598-17.598 17.598-9.7305 0-17.598-7.8711-17.598-17.598 0-9.7305 7.8711-17.598 17.598-17.598zm116.93 0c9.7305 0 17.598 7.8711 17.598 17.598 0 9.7305-7.8711 17.598-17.598 17.598-9.7305 0-17.598-7.8711-17.598-17.598 0-9.7305 7.8711-17.598 17.598-17.598zm116.93 0c9.7305 0 17.598 7.8711 17.598 17.598 0 9.7305-7.8711 17.598-17.598 17.598-9.7305 0-17.598-7.8711-17.598-17.598 0-9.7305 7.8711-17.598 17.598-17.598zm116.93 0c9.7305 0 17.598 7.8711 17.598 17.598 0 9.7305-7.8711 17.598-17.598 17.598-9.7305 0-17.598-7.8711-17.598-17.598 0-9.7305 7.8711-17.598 17.598-17.598zm116.93 0c9.7305 0 17.598 7.8711 17.598 17.598 0 9.7305-7.8711 17.598-17.598 17.598-9.7305 0-17.598-7.8711-17.598-17.598 0-9.7305 7.8711-17.598 17.598-17.598zm116.93 0c9.7305 0 17.598 7.8711 17.598 17.598 0 9.7305-7.8711 17.598-17.598 17.598-9.7305 0-17.598-7.8711-17.598-17.598 0-9.7305 7.8711-17.598 17.598-17.598zm116.93 0c9.7305 0 17.598 7.8711 17.598 17.598 0 9.7305-7.8711 17.598-17.598 17.598-9.7305 0-17.598-7.8711-17.598-17.598 0-9.7305 7.8711-17.598 17.598-17.598zm116.93 0c9.7305 0 17.598 7.8711 17.598 17.598 0 9.7305-7.8711 17.598-17.598 17.598-9.7305 0-17.598-7.8711-17.598-17.598 0-9.7305 7.8711-17.598 17.598-17.598zm116.93 0c9.7305 0 17.598 7.8711 17.598 17.598 0 9.7305-7.8711 17.598-17.598 17.598-9.7305 0-17.598-7.8711-17.598-17.598 0-9.7305 7.8711-17.598 17.598-17.598zm116.93 0c9.7305 0 17.598 7.8711 17.598 17.598 0 9.7305-7.8711 17.598-17.598 17.598-9.7305 0-17.598-7.8711-17.598-17.598 0-9.7305 7.8711-17.598 17.598-17.598zm-1052.4 77.648c31.426 0 56.887 25.457 56.887 56.887 0 31.426-25.457 56.887-56.887 56.887-31.426 0-56.887-25.457-56.887-56.887s25.461-56.887 56.887-56.887zm116.93 0c31.426 0 56.887 25.457 56.887 56.887 0 31.426-25.457 56.887-56.887 56.887-31.426 0-56.887-25.457-56.887-56.887 0-31.426 25.457-56.887 56.887-56.887zm116.93 0c31.426 0 56.887 25.457 56.887 56.887 0 31.426-25.457 56.887-56.887 56.887-31.426 0-56.887-25.457-56.887-56.887 0-31.426 25.457-56.887 56.887-56.887zm116.93 0c31.426 0 56.887 25.457 56.887 56.887 0 31.426-25.457 56.887-56.887 56.887-31.426 0-56.887-25.457-56.887-56.887 0-31.426 25.457-56.887 56.887-56.887zm116.93 0c31.426 0 56.887 25.457 56.887 56.887 0 31.426-25.457 56.887-56.887 56.887-31.426 0-56.887-25.457-56.887-56.887 0-31.426 25.457-56.887 56.887-56.887zm116.93 0c31.426 0 56.887 25.457 56.887 56.887 0 31.426-25.457 56.887-56.887 56.887-31.426 0-56.887-25.457-56.887-56.887 0-31.426 25.457-56.887 56.887-56.887zm116.93 0c31.426 0 56.887 25.457 56.887 56.887 0 31.426-25.457 56.887-56.887 56.887-31.426 0-56.887-25.457-56.887-56.887 0-31.426 25.457-56.887 56.887-56.887zm116.93 0c31.426 0 56.887 25.457 56.887 56.887 0 31.426-25.457 56.887-56.887 56.887-31.426 0-56.887-25.457-56.887-56.887 0-31.426 25.457-56.887 56.887-56.887zm116.93 0c31.426 0 56.887 25.457 56.887 56.887 0 31.426-25.457 56.887-56.887 56.887-31.426 0-56.887-25.457-56.887-56.887 0-31.426 25.457-56.887 56.887-56.887zm116.93 0c31.426 0 56.887 25.457 56.887 56.887 0 31.426-25.457 56.887-56.887 56.887-31.426 0-56.887-25.457-56.887-56.887 0-31.426 25.457-56.887 56.887-56.887zm-1052.4 18.207c-21.352 0-38.676 17.324-38.676 38.676 0 21.352 17.324 38.676 38.676 38.676s38.676-17.324 38.676-38.676c0-21.352-17.324-38.676-38.676-38.676zm116.93 0c-21.352 0-38.676 17.324-38.676 38.676 0 21.352 17.324 38.676 38.676 38.676 21.352 0 38.676-17.324 38.676-38.676 0-21.352-17.324-38.676-38.676-38.676zm116.93 0c-21.352 0-38.676 17.324-38.676 38.676 0 21.352 17.324 38.676 38.676 38.676s38.676-17.324 38.676-38.676c0-21.352-17.324-38.676-38.676-38.676zm116.93 0c-21.352 0-38.676 17.324-38.676 38.676 0 21.352 17.324 38.676 38.676 38.676 21.352 0 38.676-17.324 38.676-38.676 0-21.352-17.324-38.676-38.676-38.676zm116.93 0c-21.352 0-38.676 17.324-38.676 38.676 0 21.352 17.324 38.676 38.676 38.676s38.676-17.324 38.676-38.676c0-21.352-17.324-38.676-38.676-38.676zm116.93 0c-21.352 0-38.676 17.324-38.676 38.676 0 21.352 17.324 38.676 38.676 38.676 21.352 0 38.676-17.324 38.676-38.676 0-21.352-17.324-38.676-38.676-38.676zm116.93 0c-21.352 0-38.676 17.324-38.676 38.676 0 21.352 17.324 38.676 38.676 38.676s38.676-17.324 38.676-38.676c0-21.352-17.324-38.676-38.676-38.676zm116.93 0c-21.352 0-38.676 17.324-38.676 38.676 0 21.352 17.324 38.676 38.676 38.676 21.352 0 38.676-17.324 38.676-38.676 0-21.352-17.324-38.676-38.676-38.676zm116.93 0c-21.352 0-38.676 17.324-38.676 38.676 0 21.352 17.324 38.676 38.676 38.676s38.676-17.324 38.676-38.676c0-21.352-17.324-38.676-38.676-38.676zm116.93 0c-21.352 0-38.676 17.324-38.676 38.676 0 21.352 17.324 38.676 38.676 38.676 21.352 0 38.676-17.324 38.676-38.676 0-21.352-17.324-38.676-38.676-38.676zm-1052.4 1.582c20.496 0 37.094 16.598 37.094 37.094 0 20.496-16.598 37.094-37.094 37.094s-37.094-16.598-37.094-37.094c0-20.496 16.598-37.094 37.094-37.094zm116.93 0c20.496 0 37.094 16.598 37.094 37.094 0 20.496-16.598 37.094-37.094 37.094-20.496 0-37.094-16.598-37.094-37.094 0-20.496 16.598-37.094 37.094-37.094zm116.93 0c20.496 0 37.094 16.598 37.094 37.094 0 20.496-16.598 37.094-37.094 37.094s-37.094-16.598-37.094-37.094c0-20.496 16.598-37.094 37.094-37.094zm116.93 0c20.496 0 37.094 16.598 37.094 37.094 0 20.496-16.598 37.094-37.094 37.094-20.496 0-37.094-16.598-37.094-37.094 0-20.496 16.598-37.094 37.094-37.094zm116.93 0c20.496 0 37.094 16.598 37.094 37.094 0 20.496-16.598 37.094-37.094 37.094s-37.094-16.598-37.094-37.094c0-20.496 16.598-37.094 37.094-37.094zm116.93 0c20.496 0 37.094 16.598 37.094 37.094 0 20.496-16.598 37.094-37.094 37.094-20.496 0-37.094-16.598-37.094-37.094 0-20.496 16.598-37.094 37.094-37.094zm116.93 0c20.496 0 37.094 16.598 37.094 37.094 0 20.496-16.598 37.094-37.094 37.094s-37.094-16.598-37.094-37.094c0-20.496 16.598-37.094 37.094-37.094zm116.93 0c20.496 0 37.094 16.598 37.094 37.094 0 20.496-16.598 37.094-37.094 37.094-20.496 0-37.094-16.598-37.094-37.094 0-20.496 16.598-37.094 37.094-37.094zm116.93 0c20.496 0 37.094 16.598 37.094 37.094 0 20.496-16.598 37.094-37.094 37.094s-37.094-16.598-37.094-37.094c0-20.496 16.598-37.094 37.094-37.094zm116.93 0c20.496 0 37.094 16.598 37.094 37.094 0 20.496-16.598 37.094-37.094 37.094-20.496 0-37.094-16.598-37.094-37.094 0-20.496 16.598-37.094 37.094-37.094zm-1052.4 17.914c-10.582 0-19.18 8.5977-19.18 19.18s8.5977 19.18 19.18 19.18 19.18-8.5977 19.18-19.18-8.5977-19.18-19.18-19.18zm116.93 0c-10.582 0-19.18 8.5977-19.18 19.18s8.5977 19.18 19.18 19.18c10.582 0 19.18-8.5977 19.18-19.18s-8.5977-19.18-19.18-19.18zm116.93 0c-10.582 0-19.18 8.5977-19.18 19.18s8.5977 19.18 19.18 19.18 19.18-8.5977 19.18-19.18-8.5977-19.18-19.18-19.18zm116.93 0c-10.582 0-19.18 8.5977-19.18 19.18s8.5977 19.18 19.18 19.18c10.582 0 19.18-8.5977 19.18-19.18s-8.5977-19.18-19.18-19.18zm116.93 0c-10.582 0-19.18 8.5977-19.18 19.18s8.5977 19.18 19.18 19.18 19.18-8.5977 19.18-19.18-8.5977-19.18-19.18-19.18zm116.93 0c-10.582 0-19.18 8.5977-19.18 19.18s8.5977 19.18 19.18 19.18c10.582 0 19.18-8.5977 19.18-19.18s-8.5977-19.18-19.18-19.18zm116.93 0c-10.582 0-19.18 8.5977-19.18 19.18s8.5977 19.18 19.18 19.18 19.18-8.5977 19.18-19.18-8.5977-19.18-19.18-19.18zm116.93 0c-10.582 0-19.18 8.5977-19.18 19.18s8.5977 19.18 19.18 19.18c10.582 0 19.18-8.5977 19.18-19.18s-8.5977-19.18-19.18-19.18zm116.93 0c-10.582 0-19.18 8.5977-19.18 19.18s8.5977 19.18 19.18 19.18 19.18-8.5977 19.18-19.18-8.5977-19.18-19.18-19.18zm116.93 0c-10.582 0-19.18 8.5977-19.18 19.18s8.5977 19.18 19.18 19.18c10.582 0 19.18-8.5977 19.18-19.18s-8.5977-19.18-19.18-19.18zm-1052.4 1.582c9.7305 0 17.598 7.8711 17.598 17.598 0 9.7305-7.8711 17.598-17.598 17.598-9.7305 0-17.598-7.8711-17.598-17.598 0-9.7305 7.8711-17.598 17.598-17.598zm116.93 0c9.7305 0 17.598 7.8711 17.598 17.598 0 9.7305-7.8711 17.598-17.598 17.598-9.7305 0-17.598-7.8711-17.598-17.598 0-9.7305 7.8711-17.598 17.598-17.598zm116.93 0c9.7305 0 17.598 7.8711 17.598 17.598 0 9.7305-7.8711 17.598-17.598 17.598-9.7305 0-17.598-7.8711-17.598-17.598 0-9.7305 7.8711-17.598 17.598-17.598zm116.93 0c9.7305 0 17.598 7.8711 17.598 17.598 0 9.7305-7.8711 17.598-17.598 17.598-9.7305 0-17.598-7.8711-17.598-17.598 0-9.7305 7.8711-17.598 17.598-17.598zm116.93 0c9.7305 0 17.598 7.8711 17.598 17.598 0 9.7305-7.8711 17.598-17.598 17.598-9.7305 0-17.598-7.8711-17.598-17.598 0-9.7305 7.8711-17.598 17.598-17.598zm116.93 0c9.7305 0 17.598 7.8711 17.598 17.598 0 9.7305-7.8711 17.598-17.598 17.598-9.7305 0-17.598-7.8711-17.598-17.598 0-9.7305 7.8711-17.598 17.598-17.598zm116.93 0c9.7305 0 17.598 7.8711 17.598 17.598 0 9.7305-7.8711 17.598-17.598 17.598-9.7305 0-17.598-7.8711-17.598-17.598 0-9.7305 7.8711-17.598 17.598-17.598zm116.93 0c9.7305 0 17.598 7.8711 17.598 17.598 0 9.7305-7.8711 17.598-17.598 17.598-9.7305 0-17.598-7.8711-17.598-17.598 0-9.7305 7.8711-17.598 17.598-17.598zm116.93 0c9.7305 0 17.598 7.8711 17.598 17.598 0 9.7305-7.8711 17.598-17.598 17.598-9.7305 0-17.598-7.8711-17.598-17.598 0-9.7305 7.8711-17.598 17.598-17.598zm116.93 0c9.7305 0 17.598 7.8711 17.598 17.598 0 9.7305-7.8711 17.598-17.598 17.598-9.7305 0-17.598-7.8711-17.598-17.598 0-9.7305 7.8711-17.598 17.598-17.598zm-1052.4 77.645c31.426 0 56.887 25.457 56.887 56.887 0 31.426-25.457 56.887-56.887 56.887-31.426 0-56.887-25.457-56.887-56.887 0-31.43 25.461-56.887 56.887-56.887zm116.93 0c31.426 0 56.887 25.457 56.887 56.887 0 31.426-25.457 56.887-56.887 56.887-31.426 0-56.887-25.457-56.887-56.887 0-31.426 25.457-56.887 56.887-56.887zm116.93 0c31.426 0 56.887 25.457 56.887 56.887 0 31.426-25.457 56.887-56.887 56.887-31.426 0-56.887-25.457-56.887-56.887 0-31.426 25.457-56.887 56.887-56.887zm116.93 0c31.426 0 56.887 25.457 56.887 56.887 0 31.426-25.457 56.887-56.887 56.887-31.426 0-56.887-25.457-56.887-56.887 0-31.426 25.457-56.887 56.887-56.887zm116.93 0c31.426 0 56.887 25.457 56.887 56.887 0 31.426-25.457 56.887-56.887 56.887-31.426 0-56.887-25.457-56.887-56.887 0-31.426 25.457-56.887 56.887-56.887zm116.93 0c31.426 0 56.887 25.457 56.887 56.887 0 31.426-25.457 56.887-56.887 56.887-31.426 0-56.887-25.457-56.887-56.887 0-31.426 25.457-56.887 56.887-56.887zm116.93 0c31.426 0 56.887 25.457 56.887 56.887 0 31.426-25.457 56.887-56.887 56.887-31.426 0-56.887-25.457-56.887-56.887 0-31.426 25.457-56.887 56.887-56.887zm116.93 0c31.426 0 56.887 25.457 56.887 56.887 0 31.426-25.457 56.887-56.887 56.887-31.426 0-56.887-25.457-56.887-56.887 0-31.426 25.457-56.887 56.887-56.887zm116.93 0c31.426 0 56.887 25.457 56.887 56.887 0 31.426-25.457 56.887-56.887 56.887-31.426 0-56.887-25.457-56.887-56.887 0-31.426 25.457-56.887 56.887-56.887zm116.93 0c31.426 0 56.887 25.457 56.887 56.887 0 31.426-25.457 56.887-56.887 56.887-31.426 0-56.887-25.457-56.887-56.887 0-31.426 25.457-56.887 56.887-56.887zm-1052.4 18.211c-21.352 0-38.676 17.324-38.676 38.676 0 21.352 17.324 38.676 38.676 38.676s38.676-17.324 38.676-38.676c0-21.352-17.324-38.676-38.676-38.676zm116.93 0c-21.352 0-38.676 17.324-38.676 38.676 0 21.352 17.324 38.676 38.676 38.676 21.352 0 38.676-17.324 38.676-38.676 0-21.352-17.324-38.676-38.676-38.676zm116.93 0c-21.352 0-38.676 17.324-38.676 38.676 0 21.352 17.324 38.676 38.676 38.676s38.676-17.324 38.676-38.676c0-21.352-17.324-38.676-38.676-38.676zm116.93 0c-21.352 0-38.676 17.324-38.676 38.676 0 21.352 17.324 38.676 38.676 38.676 21.352 0 38.676-17.324 38.676-38.676 0-21.352-17.324-38.676-38.676-38.676zm116.93 0c-21.352 0-38.676 17.324-38.676 38.676 0 21.352 17.324 38.676 38.676 38.676s38.676-17.324 38.676-38.676c0-21.352-17.324-38.676-38.676-38.676zm116.93 0c-21.352 0-38.676 17.324-38.676 38.676 0 21.352 17.324 38.676 38.676 38.676 21.352 0 38.676-17.324 38.676-38.676 0-21.352-17.324-38.676-38.676-38.676zm116.93 0c-21.352 0-38.676 17.324-38.676 38.676 0 21.352 17.324 38.676 38.676 38.676s38.676-17.324 38.676-38.676c0-21.352-17.324-38.676-38.676-38.676zm116.93 0c-21.352 0-38.676 17.324-38.676 38.676 0 21.352 17.324 38.676 38.676 38.676 21.352 0 38.676-17.324 38.676-38.676 0-21.352-17.324-38.676-38.676-38.676zm116.93 0c-21.352 0-38.676 17.324-38.676 38.676 0 21.352 17.324 38.676 38.676 38.676s38.676-17.324 38.676-38.676c0-21.352-17.324-38.676-38.676-38.676zm116.93 0c-21.352 0-38.676 17.324-38.676 38.676 0 21.352 17.324 38.676 38.676 38.676 21.352 0 38.676-17.324 38.676-38.676 0-21.352-17.324-38.676-38.676-38.676zm-1052.4 1.5781c20.496 0 37.094 16.598 37.094 37.094s-16.598 37.094-37.094 37.094-37.094-16.598-37.094-37.094 16.598-37.094 37.094-37.094zm116.93 0c20.496 0 37.094 16.598 37.094 37.094s-16.598 37.094-37.094 37.094c-20.496 0-37.094-16.598-37.094-37.094s16.598-37.094 37.094-37.094zm116.93 0c20.496 0 37.094 16.598 37.094 37.094s-16.598 37.094-37.094 37.094-37.094-16.598-37.094-37.094 16.598-37.094 37.094-37.094zm116.93 0c20.496 0 37.094 16.598 37.094 37.094s-16.598 37.094-37.094 37.094c-20.496 0-37.094-16.598-37.094-37.094s16.598-37.094 37.094-37.094zm116.93 0c20.496 0 37.094 16.598 37.094 37.094s-16.598 37.094-37.094 37.094-37.094-16.598-37.094-37.094 16.598-37.094 37.094-37.094zm116.93 0c20.496 0 37.094 16.598 37.094 37.094s-16.598 37.094-37.094 37.094c-20.496 0-37.094-16.598-37.094-37.094s16.598-37.094 37.094-37.094zm116.93 0c20.496 0 37.094 16.598 37.094 37.094s-16.598 37.094-37.094 37.094-37.094-16.598-37.094-37.094 16.598-37.094 37.094-37.094zm116.93 0c20.496 0 37.094 16.598 37.094 37.094s-16.598 37.094-37.094 37.094c-20.496 0-37.094-16.598-37.094-37.094s16.598-37.094 37.094-37.094zm116.93 0c20.496 0 37.094 16.598 37.094 37.094s-16.598 37.094-37.094 37.094-37.094-16.598-37.094-37.094 16.598-37.094 37.094-37.094zm116.93 0c20.496 0 37.094 16.598 37.094 37.094s-16.598 37.094-37.094 37.094c-20.496 0-37.094-16.598-37.094-37.094s16.598-37.094 37.094-37.094zm-1052.4 17.918c-10.582 0-19.18 8.5977-19.18 19.18 0 10.582 8.5977 19.18 19.18 19.18s19.18-8.5977 19.18-19.18c0-10.582-8.5977-19.18-19.18-19.18zm116.93 0c-10.582 0-19.18 8.5977-19.18 19.18 0 10.582 8.5977 19.18 19.18 19.18 10.582 0 19.18-8.5977 19.18-19.18 0-10.582-8.5977-19.18-19.18-19.18zm116.93 0c-10.582 0-19.18 8.5977-19.18 19.18 0 10.582 8.5977 19.18 19.18 19.18s19.18-8.5977 19.18-19.18c0-10.582-8.5977-19.18-19.18-19.18zm116.93 0c-10.582 0-19.18 8.5977-19.18 19.18 0 10.582 8.5977 19.18 19.18 19.18 10.582 0 19.18-8.5977 19.18-19.18 0-10.582-8.5977-19.18-19.18-19.18zm116.93 0c-10.582 0-19.18 8.5977-19.18 19.18 0 10.582 8.5977 19.18 19.18 19.18s19.18-8.5977 19.18-19.18c0-10.582-8.5977-19.18-19.18-19.18zm116.93 0c-10.582 0-19.18 8.5977-19.18 19.18 0 10.582 8.5977 19.18 19.18 19.18 10.582 0 19.18-8.5977 19.18-19.18 0-10.582-8.5977-19.18-19.18-19.18zm116.93 0c-10.582 0-19.18 8.5977-19.18 19.18 0 10.582 8.5977 19.18 19.18 19.18s19.18-8.5977 19.18-19.18c0-10.582-8.5977-19.18-19.18-19.18zm116.93 0c-10.582 0-19.18 8.5977-19.18 19.18 0 10.582 8.5977 19.18 19.18 19.18 10.582 0 19.18-8.5977 19.18-19.18 0-10.582-8.5977-19.18-19.18-19.18zm116.93 0c-10.582 0-19.18 8.5977-19.18 19.18 0 10.582 8.5977 19.18 19.18 19.18s19.18-8.5977 19.18-19.18c0-10.582-8.5977-19.18-19.18-19.18zm116.93 0c-10.582 0-19.18 8.5977-19.18 19.18 0 10.582 8.5977 19.18 19.18 19.18 10.582 0 19.18-8.5977 19.18-19.18 0-10.582-8.5977-19.18-19.18-19.18zm-1052.4 1.5781c9.7305 0 17.598 7.8711 17.598 17.598 0 9.7305-7.8711 17.598-17.598 17.598-9.7305 0-17.598-7.8711-17.598-17.598 0-9.7305 7.8711-17.598 17.598-17.598zm116.93 0c9.7305 0 17.598 7.8711 17.598 17.598 0 9.7305-7.8711 17.598-17.598 17.598-9.7305 0-17.598-7.8711-17.598-17.598 0-9.7305 7.8711-17.598 17.598-17.598zm116.93 0c9.7305 0 17.598 7.8711 17.598 17.598 0 9.7305-7.8711 17.598-17.598 17.598-9.7305 0-17.598-7.8711-17.598-17.598 0-9.7305 7.8711-17.598 17.598-17.598zm116.93 0c9.7305 0 17.598 7.8711 17.598 17.598 0 9.7305-7.8711 17.598-17.598 17.598-9.7305 0-17.598-7.8711-17.598-17.598 0-9.7305 7.8711-17.598 17.598-17.598zm116.93 0c9.7305 0 17.598 7.8711 17.598 17.598 0 9.7305-7.8711 17.598-17.598 17.598-9.7305 0-17.598-7.8711-17.598-17.598 0-9.7305 7.8711-17.598 17.598-17.598zm116.93 0c9.7305 0 17.598 7.8711 17.598 17.598 0 9.7305-7.8711 17.598-17.598 17.598-9.7305 0-17.598-7.8711-17.598-17.598 0-9.7305 7.8711-17.598 17.598-17.598zm116.93 0c9.7305 0 17.598 7.8711 17.598 17.598 0 9.7305-7.8711 17.598-17.598 17.598-9.7305 0-17.598-7.8711-17.598-17.598 0-9.7305 7.8711-17.598 17.598-17.598zm116.93 0c9.7305 0 17.598 7.8711 17.598 17.598 0 9.7305-7.8711 17.598-17.598 17.598-9.7305 0-17.598-7.8711-17.598-17.598 0-9.7305 7.8711-17.598 17.598-17.598zm116.93 0c9.7305 0 17.598 7.8711 17.598 17.598 0 9.7305-7.8711 17.598-17.598 17.598-9.7305 0-17.598-7.8711-17.598-17.598 0-9.7305 7.8711-17.598 17.598-17.598zm116.93 0c9.7305 0 17.598 7.8711 17.598 17.598 0 9.7305-7.8711 17.598-17.598 17.598-9.7305 0-17.598-7.8711-17.598-17.598 0-9.7305 7.8711-17.598 17.598-17.598zm-1052.4 77.645c31.426 0 56.887 25.457 56.887 56.887 0 31.426-25.457 56.887-56.887 56.887-31.426 0-56.887-25.457-56.887-56.887 0-31.426 25.461-56.887 56.887-56.887zm116.93 0c31.426 0 56.887 25.457 56.887 56.887 0 31.426-25.457 56.887-56.887 56.887-31.426 0-56.887-25.457-56.887-56.887 0-31.426 25.457-56.887 56.887-56.887zm116.93 0c31.426 0 56.887 25.457 56.887 56.887 0 31.426-25.457 56.887-56.887 56.887-31.426 0-56.887-25.457-56.887-56.887 0-31.426 25.457-56.887 56.887-56.887zm116.93 0c31.426 0 56.887 25.457 56.887 56.887 0 31.426-25.457 56.887-56.887 56.887-31.426 0-56.887-25.457-56.887-56.887 0-31.426 25.457-56.887 56.887-56.887zm116.93 0c31.426 0 56.887 25.457 56.887 56.887 0 31.426-25.457 56.887-56.887 56.887-31.426 0-56.887-25.457-56.887-56.887 0-31.426 25.457-56.887 56.887-56.887zm116.93 0c31.426 0 56.887 25.457 56.887 56.887 0 31.426-25.457 56.887-56.887 56.887-31.426 0-56.887-25.457-56.887-56.887 0-31.426 25.457-56.887 56.887-56.887zm116.93 0c31.426 0 56.887 25.457 56.887 56.887 0 31.426-25.457 56.887-56.887 56.887-31.426 0-56.887-25.457-56.887-56.887 0-31.426 25.457-56.887 56.887-56.887zm116.93 0c31.426 0 56.887 25.457 56.887 56.887 0 31.426-25.457 56.887-56.887 56.887-31.426 0-56.887-25.457-56.887-56.887 0-31.426 25.457-56.887 56.887-56.887zm116.93 0c31.426 0 56.887 25.457 56.887 56.887 0 31.426-25.457 56.887-56.887 56.887-31.426 0-56.887-25.457-56.887-56.887 0-31.426 25.457-56.887 56.887-56.887zm116.93 0c31.426 0 56.887 25.457 56.887 56.887 0 31.426-25.457 56.887-56.887 56.887-31.426 0-56.887-25.457-56.887-56.887 0-31.426 25.457-56.887 56.887-56.887zm-1052.4 18.211c-21.352 0-38.676 17.324-38.676 38.676s17.324 38.676 38.676 38.676 38.676-17.324 38.676-38.676-17.324-38.676-38.676-38.676zm116.93 0c-21.352 0-38.676 17.324-38.676 38.676s17.324 38.676 38.676 38.676c21.352 0 38.676-17.324 38.676-38.676s-17.324-38.676-38.676-38.676zm116.93 0c-21.352 0-38.676 17.324-38.676 38.676s17.324 38.676 38.676 38.676 38.676-17.324 38.676-38.676-17.324-38.676-38.676-38.676zm116.93 0c-21.352 0-38.676 17.324-38.676 38.676s17.324 38.676 38.676 38.676c21.352 0 38.676-17.324 38.676-38.676s-17.324-38.676-38.676-38.676zm116.93 0c-21.352 0-38.676 17.324-38.676 38.676s17.324 38.676 38.676 38.676 38.676-17.324 38.676-38.676-17.324-38.676-38.676-38.676zm116.93 0c-21.352 0-38.676 17.324-38.676 38.676s17.324 38.676 38.676 38.676c21.352 0 38.676-17.324 38.676-38.676s-17.324-38.676-38.676-38.676zm116.93 0c-21.352 0-38.676 17.324-38.676 38.676s17.324 38.676 38.676 38.676 38.676-17.324 38.676-38.676-17.324-38.676-38.676-38.676zm116.93 0c-21.352 0-38.676 17.324-38.676 38.676s17.324 38.676 38.676 38.676c21.352 0 38.676-17.324 38.676-38.676s-17.324-38.676-38.676-38.676zm116.93 0c-21.352 0-38.676 17.324-38.676 38.676s17.324 38.676 38.676 38.676 38.676-17.324 38.676-38.676-17.324-38.676-38.676-38.676zm116.93 0c-21.352 0-38.676 17.324-38.676 38.676s17.324 38.676 38.676 38.676c21.352 0 38.676-17.324 38.676-38.676s-17.324-38.676-38.676-38.676zm-1052.4 1.582c20.496 0 37.094 16.598 37.094 37.094s-16.598 37.094-37.094 37.094-37.094-16.598-37.094-37.094 16.598-37.094 37.094-37.094zm116.93 0c20.496 0 37.094 16.598 37.094 37.094s-16.598 37.094-37.094 37.094c-20.496 0-37.094-16.598-37.094-37.094s16.598-37.094 37.094-37.094zm116.93 0c20.496 0 37.094 16.598 37.094 37.094s-16.598 37.094-37.094 37.094-37.094-16.598-37.094-37.094 16.598-37.094 37.094-37.094zm116.93 0c20.496 0 37.094 16.598 37.094 37.094s-16.598 37.094-37.094 37.094c-20.496 0-37.094-16.598-37.094-37.094s16.598-37.094 37.094-37.094zm116.93 0c20.496 0 37.094 16.598 37.094 37.094s-16.598 37.094-37.094 37.094-37.094-16.598-37.094-37.094 16.598-37.094 37.094-37.094zm116.93 0c20.496 0 37.094 16.598 37.094 37.094s-16.598 37.094-37.094 37.094c-20.496 0-37.094-16.598-37.094-37.094s16.598-37.094 37.094-37.094zm116.93 0c20.496 0 37.094 16.598 37.094 37.094s-16.598 37.094-37.094 37.094-37.094-16.598-37.094-37.094 16.598-37.094 37.094-37.094zm116.93 0c20.496 0 37.094 16.598 37.094 37.094s-16.598 37.094-37.094 37.094c-20.496 0-37.094-16.598-37.094-37.094s16.598-37.094 37.094-37.094zm116.93 0c20.496 0 37.094 16.598 37.094 37.094s-16.598 37.094-37.094 37.094-37.094-16.598-37.094-37.094 16.598-37.094 37.094-37.094zm116.93 0c20.496 0 37.094 16.598 37.094 37.094s-16.598 37.094-37.094 37.094c-20.496 0-37.094-16.598-37.094-37.094s16.598-37.094 37.094-37.094zm-1052.4 17.914c-10.582 0-19.18 8.5977-19.18 19.18s8.5977 19.18 19.18 19.18 19.18-8.5977 19.18-19.18-8.5977-19.18-19.18-19.18zm116.93 0c-10.582 0-19.18 8.5977-19.18 19.18s8.5977 19.18 19.18 19.18c10.582 0 19.18-8.5977 19.18-19.18s-8.5977-19.18-19.18-19.18zm116.93 0c-10.582 0-19.18 8.5977-19.18 19.18s8.5977 19.18 19.18 19.18 19.18-8.5977 19.18-19.18-8.5977-19.18-19.18-19.18zm116.93 0c-10.582 0-19.18 8.5977-19.18 19.18s8.5977 19.18 19.18 19.18c10.582 0 19.18-8.5977 19.18-19.18s-8.5977-19.18-19.18-19.18zm116.93 0c-10.582 0-19.18 8.5977-19.18 19.18s8.5977 19.18 19.18 19.18 19.18-8.5977 19.18-19.18-8.5977-19.18-19.18-19.18zm116.93 0c-10.582 0-19.18 8.5977-19.18 19.18s8.5977 19.18 19.18 19.18c10.582 0 19.18-8.5977 19.18-19.18s-8.5977-19.18-19.18-19.18zm116.93 0c-10.582 0-19.18 8.5977-19.18 19.18s8.5977 19.18 19.18 19.18 19.18-8.5977 19.18-19.18-8.5977-19.18-19.18-19.18zm116.93 0c-10.582 0-19.18 8.5977-19.18 19.18s8.5977 19.18 19.18 19.18c10.582 0 19.18-8.5977 19.18-19.18s-8.5977-19.18-19.18-19.18zm116.93 0c-10.582 0-19.18 8.5977-19.18 19.18s8.5977 19.18 19.18 19.18 19.18-8.5977 19.18-19.18-8.5977-19.18-19.18-19.18zm116.93 0c-10.582 0-19.18 8.5977-19.18 19.18s8.5977 19.18 19.18 19.18c10.582 0 19.18-8.5977 19.18-19.18s-8.5977-19.18-19.18-19.18zm-1052.4 1.582c9.7305 0 17.598 7.8711 17.598 17.598 0 9.7305-7.8711 17.598-17.598 17.598-9.7305 0-17.598-7.8711-17.598-17.598 0-9.7305 7.8711-17.598 17.598-17.598zm116.93 0c9.7305 0 17.598 7.8711 17.598 17.598 0 9.7305-7.8711 17.598-17.598 17.598-9.7305 0-17.598-7.8711-17.598-17.598 0-9.7305 7.8711-17.598 17.598-17.598zm116.93 0c9.7305 0 17.598 7.8711 17.598 17.598 0 9.7305-7.8711 17.598-17.598 17.598-9.7305 0-17.598-7.8711-17.598-17.598 0-9.7305 7.8711-17.598 17.598-17.598zm116.93 0c9.7305 0 17.598 7.8711 17.598 17.598 0 9.7305-7.8711 17.598-17.598 17.598-9.7305 0-17.598-7.8711-17.598-17.598 0-9.7305 7.8711-17.598 17.598-17.598zm116.93 0c9.7305 0 17.598 7.8711 17.598 17.598 0 9.7305-7.8711 17.598-17.598 17.598-9.7305 0-17.598-7.8711-17.598-17.598 0-9.7305 7.8711-17.598 17.598-17.598zm116.93 0c9.7305 0 17.598 7.8711 17.598 17.598 0 9.7305-7.8711 17.598-17.598 17.598-9.7305 0-17.598-7.8711-17.598-17.598 0-9.7305 7.8711-17.598 17.598-17.598zm116.93 0c9.7305 0 17.598 7.8711 17.598 17.598 0 9.7305-7.8711 17.598-17.598 17.598-9.7305 0-17.598-7.8711-17.598-17.598 0-9.7305 7.8711-17.598 17.598-17.598zm116.93 0c9.7305 0 17.598 7.8711 17.598 17.598 0 9.7305-7.8711 17.598-17.598 17.598-9.7305 0-17.598-7.8711-17.598-17.598 0-9.7305 7.8711-17.598 17.598-17.598zm116.93 0c9.7305 0 17.598 7.8711 17.598 17.598 0 9.7305-7.8711 17.598-17.598 17.598-9.7305 0-17.598-7.8711-17.598-17.598 0-9.7305 7.8711-17.598 17.598-17.598zm116.93 0c9.7305 0 17.598 7.8711 17.598 17.598 0 9.7305-7.8711 17.598-17.598 17.598-9.7305 0-17.598-7.8711-17.598-17.598 0-9.7305 7.8711-17.598 17.598-17.598zm-1052.4 77.645c31.426 0 56.887 25.457 56.887 56.887 0 31.426-25.457 56.887-56.887 56.887-31.426 0-56.887-25.457-56.887-56.887 0-31.43 25.461-56.887 56.887-56.887zm116.93 0c31.426 0 56.887 25.457 56.887 56.887 0 31.426-25.457 56.887-56.887 56.887-31.426 0-56.887-25.457-56.887-56.887 0-31.426 25.457-56.887 56.887-56.887zm116.93 0c31.426 0 56.887 25.457 56.887 56.887 0 31.426-25.457 56.887-56.887 56.887-31.426 0-56.887-25.457-56.887-56.887 0-31.426 25.457-56.887 56.887-56.887zm116.93 0c31.426 0 56.887 25.457 56.887 56.887 0 31.426-25.457 56.887-56.887 56.887-31.426 0-56.887-25.457-56.887-56.887 0-31.426 25.457-56.887 56.887-56.887zm116.93 0c31.426 0 56.887 25.457 56.887 56.887 0 31.426-25.457 56.887-56.887 56.887-31.426 0-56.887-25.457-56.887-56.887 0-31.426 25.457-56.887 56.887-56.887zm116.93 0c31.426 0 56.887 25.457 56.887 56.887 0 31.426-25.457 56.887-56.887 56.887-31.426 0-56.887-25.457-56.887-56.887 0-31.426 25.457-56.887 56.887-56.887zm116.93 0c31.426 0 56.887 25.457 56.887 56.887 0 31.426-25.457 56.887-56.887 56.887-31.426 0-56.887-25.457-56.887-56.887 0-31.426 25.457-56.887 56.887-56.887zm116.93 0c31.426 0 56.887 25.457 56.887 56.887 0 31.426-25.457 56.887-56.887 56.887-31.426 0-56.887-25.457-56.887-56.887 0-31.426 25.457-56.887 56.887-56.887zm116.93 0c31.426 0 56.887 25.457 56.887 56.887 0 31.426-25.457 56.887-56.887 56.887-31.426 0-56.887-25.457-56.887-56.887 0-31.426 25.457-56.887 56.887-56.887zm116.93 0c31.426 0 56.887 25.457 56.887 56.887 0 31.426-25.457 56.887-56.887 56.887-31.426 0-56.887-25.457-56.887-56.887 0-31.426 25.457-56.887 56.887-56.887zm-1052.4 18.207c-21.352 0-38.676 17.324-38.676 38.676 0 21.352 17.324 38.676 38.676 38.676s38.676-17.324 38.676-38.676c0-21.352-17.324-38.676-38.676-38.676zm116.93 0c-21.352 0-38.676 17.324-38.676 38.676 0 21.352 17.324 38.676 38.676 38.676 21.352 0 38.676-17.324 38.676-38.676 0-21.352-17.324-38.676-38.676-38.676zm116.93 0c-21.352 0-38.676 17.324-38.676 38.676 0 21.352 17.324 38.676 38.676 38.676s38.676-17.324 38.676-38.676c0-21.352-17.324-38.676-38.676-38.676zm116.93 0c-21.352 0-38.676 17.324-38.676 38.676 0 21.352 17.324 38.676 38.676 38.676 21.352 0 38.676-17.324 38.676-38.676 0-21.352-17.324-38.676-38.676-38.676zm116.93 0c-21.352 0-38.676 17.324-38.676 38.676 0 21.352 17.324 38.676 38.676 38.676s38.676-17.324 38.676-38.676c0-21.352-17.324-38.676-38.676-38.676zm116.93 0c-21.352 0-38.676 17.324-38.676 38.676 0 21.352 17.324 38.676 38.676 38.676 21.352 0 38.676-17.324 38.676-38.676 0-21.352-17.324-38.676-38.676-38.676zm116.93 0c-21.352 0-38.676 17.324-38.676 38.676 0 21.352 17.324 38.676 38.676 38.676s38.676-17.324 38.676-38.676c0-21.352-17.324-38.676-38.676-38.676zm116.93 0c-21.352 0-38.676 17.324-38.676 38.676 0 21.352 17.324 38.676 38.676 38.676 21.352 0 38.676-17.324 38.676-38.676 0-21.352-17.324-38.676-38.676-38.676zm116.93 0c-21.352 0-38.676 17.324-38.676 38.676 0 21.352 17.324 38.676 38.676 38.676s38.676-17.324 38.676-38.676c0-21.352-17.324-38.676-38.676-38.676zm116.93 0c-21.352 0-38.676 17.324-38.676 38.676 0 21.352 17.324 38.676 38.676 38.676 21.352 0 38.676-17.324 38.676-38.676 0-21.352-17.324-38.676-38.676-38.676zm-1052.4 1.582c20.496 0 37.094 16.598 37.094 37.094 0 20.496-16.598 37.094-37.094 37.094s-37.094-16.598-37.094-37.094c0-20.496 16.598-37.094 37.094-37.094zm116.93 0c20.496 0 37.094 16.598 37.094 37.094 0 20.496-16.598 37.094-37.094 37.094-20.496 0-37.094-16.598-37.094-37.094 0-20.496 16.598-37.094 37.094-37.094zm116.93 0c20.496 0 37.094 16.598 37.094 37.094 0 20.496-16.598 37.094-37.094 37.094s-37.094-16.598-37.094-37.094c0-20.496 16.598-37.094 37.094-37.094zm116.93 0c20.496 0 37.094 16.598 37.094 37.094 0 20.496-16.598 37.094-37.094 37.094-20.496 0-37.094-16.598-37.094-37.094 0-20.496 16.598-37.094 37.094-37.094zm116.93 0c20.496 0 37.094 16.598 37.094 37.094 0 20.496-16.598 37.094-37.094 37.094s-37.094-16.598-37.094-37.094c0-20.496 16.598-37.094 37.094-37.094zm116.93 0c20.496 0 37.094 16.598 37.094 37.094 0 20.496-16.598 37.094-37.094 37.094-20.496 0-37.094-16.598-37.094-37.094 0-20.496 16.598-37.094 37.094-37.094zm116.93 0c20.496 0 37.094 16.598 37.094 37.094 0 20.496-16.598 37.094-37.094 37.094s-37.094-16.598-37.094-37.094c0-20.496 16.598-37.094 37.094-37.094zm116.93 0c20.496 0 37.094 16.598 37.094 37.094 0 20.496-16.598 37.094-37.094 37.094-20.496 0-37.094-16.598-37.094-37.094 0-20.496 16.598-37.094 37.094-37.094zm116.93 0c20.496 0 37.094 16.598 37.094 37.094 0 20.496-16.598 37.094-37.094 37.094s-37.094-16.598-37.094-37.094c0-20.496 16.598-37.094 37.094-37.094zm116.93 0c20.496 0 37.094 16.598 37.094 37.094 0 20.496-16.598 37.094-37.094 37.094-20.496 0-37.094-16.598-37.094-37.094 0-20.496 16.598-37.094 37.094-37.094zm-1052.4 17.914c-10.582 0-19.18 8.5977-19.18 19.18 0 10.582 8.5977 19.18 19.18 19.18s19.18-8.5977 19.18-19.18c0-10.582-8.5977-19.18-19.18-19.18zm116.93 0c-10.582 0-19.18 8.5977-19.18 19.18 0 10.582 8.5977 19.18 19.18 19.18 10.582 0 19.18-8.5977 19.18-19.18 0-10.582-8.5977-19.18-19.18-19.18zm116.93 0c-10.582 0-19.18 8.5977-19.18 19.18 0 10.582 8.5977 19.18 19.18 19.18s19.18-8.5977 19.18-19.18c0-10.582-8.5977-19.18-19.18-19.18zm116.93 0c-10.582 0-19.18 8.5977-19.18 19.18 0 10.582 8.5977 19.18 19.18 19.18 10.582 0 19.18-8.5977 19.18-19.18 0-10.582-8.5977-19.18-19.18-19.18zm116.93 0c-10.582 0-19.18 8.5977-19.18 19.18 0 10.582 8.5977 19.18 19.18 19.18s19.18-8.5977 19.18-19.18c0-10.582-8.5977-19.18-19.18-19.18zm116.93 0c-10.582 0-19.18 8.5977-19.18 19.18 0 10.582 8.5977 19.18 19.18 19.18 10.582 0 19.18-8.5977 19.18-19.18 0-10.582-8.5977-19.18-19.18-19.18zm116.93 0c-10.582 0-19.18 8.5977-19.18 19.18 0 10.582 8.5977 19.18 19.18 19.18s19.18-8.5977 19.18-19.18c0-10.582-8.5977-19.18-19.18-19.18zm116.93 0c-10.582 0-19.18 8.5977-19.18 19.18 0 10.582 8.5977 19.18 19.18 19.18 10.582 0 19.18-8.5977 19.18-19.18 0-10.582-8.5977-19.18-19.18-19.18zm116.93 0c-10.582 0-19.18 8.5977-19.18 19.18 0 10.582 8.5977 19.18 19.18 19.18s19.18-8.5977 19.18-19.18c0-10.582-8.5977-19.18-19.18-19.18zm116.93 0c-10.582 0-19.18 8.5977-19.18 19.18 0 10.582 8.5977 19.18 19.18 19.18 10.582 0 19.18-8.5977 19.18-19.18 0-10.582-8.5977-19.18-19.18-19.18zm-1052.4 1.582c9.7305 0 17.598 7.8711 17.598 17.598 0 9.7305-7.8711 17.598-17.598 17.598-9.7305 0-17.598-7.8711-17.598-17.598 0-9.7305 7.8711-17.598 17.598-17.598zm116.93 0c9.7305 0 17.598 7.8711 17.598 17.598 0 9.7305-7.8711 17.598-17.598 17.598-9.7305 0-17.598-7.8711-17.598-17.598 0-9.7305 7.8711-17.598 17.598-17.598zm116.93 0c9.7305 0 17.598 7.8711 17.598 17.598 0 9.7305-7.8711 17.598-17.598 17.598-9.7305 0-17.598-7.8711-17.598-17.598 0-9.7305 7.8711-17.598 17.598-17.598zm116.93 0c9.7305 0 17.598 7.8711 17.598 17.598 0 9.7305-7.8711 17.598-17.598 17.598-9.7305 0-17.598-7.8711-17.598-17.598 0-9.7305 7.8711-17.598 17.598-17.598zm116.93 0c9.7305 0 17.598 7.8711 17.598 17.598 0 9.7305-7.8711 17.598-17.598 17.598-9.7305 0-17.598-7.8711-17.598-17.598 0-9.7305 7.8711-17.598 17.598-17.598zm116.93 0c9.7305 0 17.598 7.8711 17.598 17.598 0 9.7305-7.8711 17.598-17.598 17.598-9.7305 0-17.598-7.8711-17.598-17.598 0-9.7305 7.8711-17.598 17.598-17.598zm116.93 0c9.7305 0 17.598 7.8711 17.598 17.598 0 9.7305-7.8711 17.598-17.598 17.598-9.7305 0-17.598-7.8711-17.598-17.598 0-9.7305 7.8711-17.598 17.598-17.598zm116.93 0c9.7305 0 17.598 7.8711 17.598 17.598 0 9.7305-7.8711 17.598-17.598 17.598-9.7305 0-17.598-7.8711-17.598-17.598 0-9.7305 7.8711-17.598 17.598-17.598zm116.93 0c9.7305 0 17.598 7.8711 17.598 17.598 0 9.7305-7.8711 17.598-17.598 17.598-9.7305 0-17.598-7.8711-17.598-17.598 0-9.7305 7.8711-17.598 17.598-17.598zm116.93 0c9.7305 0 17.598 7.8711 17.598 17.598 0 9.7305-7.8711 17.598-17.598 17.598-9.7305 0-17.598-7.8711-17.598-17.598 0-9.7305 7.8711-17.598 17.598-17.598zm-1052.4 77.645c31.426 0 56.887 25.457 56.887 56.887 0 31.426-25.457 56.887-56.887 56.887-31.426 0-56.887-25.457-56.887-56.887 0-31.43 25.461-56.887 56.887-56.887zm116.93 0c31.426 0 56.887 25.457 56.887 56.887 0 31.426-25.457 56.887-56.887 56.887-31.426 0-56.887-25.457-56.887-56.887 0-31.426 25.457-56.887 56.887-56.887zm116.93 0c31.426 0 56.887 25.457 56.887 56.887 0 31.426-25.457 56.887-56.887 56.887-31.426 0-56.887-25.457-56.887-56.887 0-31.426 25.457-56.887 56.887-56.887zm116.93 0c31.426 0 56.887 25.457 56.887 56.887 0 31.426-25.457 56.887-56.887 56.887-31.426 0-56.887-25.457-56.887-56.887 0-31.426 25.457-56.887 56.887-56.887zm116.93 0c31.426 0 56.887 25.457 56.887 56.887 0 31.426-25.457 56.887-56.887 56.887-31.426 0-56.887-25.457-56.887-56.887 0-31.426 25.457-56.887 56.887-56.887zm116.93 0c31.426 0 56.887 25.457 56.887 56.887 0 31.426-25.457 56.887-56.887 56.887-31.426 0-56.887-25.457-56.887-56.887 0-31.426 25.457-56.887 56.887-56.887zm116.93 0c31.426 0 56.887 25.457 56.887 56.887 0 31.426-25.457 56.887-56.887 56.887-31.426 0-56.887-25.457-56.887-56.887 0-31.426 25.457-56.887 56.887-56.887zm116.93 0c31.426 0 56.887 25.457 56.887 56.887 0 31.426-25.457 56.887-56.887 56.887-31.426 0-56.887-25.457-56.887-56.887 0-31.426 25.457-56.887 56.887-56.887zm116.93 0c31.426 0 56.887 25.457 56.887 56.887 0 31.426-25.457 56.887-56.887 56.887-31.426 0-56.887-25.457-56.887-56.887 0-31.426 25.457-56.887 56.887-56.887zm116.93 0c31.426 0 56.887 25.457 56.887 56.887 0 31.426-25.457 56.887-56.887 56.887-31.426 0-56.887-25.457-56.887-56.887 0-31.426 25.457-56.887 56.887-56.887zm-1052.4 18.211c-21.352 0-38.676 17.324-38.676 38.676 0 21.352 17.324 38.676 38.676 38.676s38.676-17.324 38.676-38.676c0-21.352-17.324-38.676-38.676-38.676zm116.93 0c-21.352 0-38.676 17.324-38.676 38.676 0 21.352 17.324 38.676 38.676 38.676 21.352 0 38.676-17.324 38.676-38.676 0-21.352-17.324-38.676-38.676-38.676zm116.93 0c-21.352 0-38.676 17.324-38.676 38.676 0 21.352 17.324 38.676 38.676 38.676s38.676-17.324 38.676-38.676c0-21.352-17.324-38.676-38.676-38.676zm116.93 0c-21.352 0-38.676 17.324-38.676 38.676 0 21.352 17.324 38.676 38.676 38.676 21.352 0 38.676-17.324 38.676-38.676 0-21.352-17.324-38.676-38.676-38.676zm116.93 0c-21.352 0-38.676 17.324-38.676 38.676 0 21.352 17.324 38.676 38.676 38.676s38.676-17.324 38.676-38.676c0-21.352-17.324-38.676-38.676-38.676zm116.93 0c-21.352 0-38.676 17.324-38.676 38.676 0 21.352 17.324 38.676 38.676 38.676 21.352 0 38.676-17.324 38.676-38.676 0-21.352-17.324-38.676-38.676-38.676zm116.93 0c-21.352 0-38.676 17.324-38.676 38.676 0 21.352 17.324 38.676 38.676 38.676s38.676-17.324 38.676-38.676c0-21.352-17.324-38.676-38.676-38.676zm116.93 0c-21.352 0-38.676 17.324-38.676 38.676 0 21.352 17.324 38.676 38.676 38.676 21.352 0 38.676-17.324 38.676-38.676 0-21.352-17.324-38.676-38.676-38.676zm116.93 0c-21.352 0-38.676 17.324-38.676 38.676 0 21.352 17.324 38.676 38.676 38.676s38.676-17.324 38.676-38.676c0-21.352-17.324-38.676-38.676-38.676zm116.93 0c-21.352 0-38.676 17.324-38.676 38.676 0 21.352 17.324 38.676 38.676 38.676 21.352 0 38.676-17.324 38.676-38.676 0-21.352-17.324-38.676-38.676-38.676zm-1052.4 1.5781c20.496 0 37.094 16.598 37.094 37.094s-16.598 37.094-37.094 37.094-37.094-16.598-37.094-37.094 16.598-37.094 37.094-37.094zm116.93 0c20.496 0 37.094 16.598 37.094 37.094s-16.598 37.094-37.094 37.094c-20.496 0-37.094-16.598-37.094-37.094s16.598-37.094 37.094-37.094zm116.93 0c20.496 0 37.094 16.598 37.094 37.094s-16.598 37.094-37.094 37.094-37.094-16.598-37.094-37.094 16.598-37.094 37.094-37.094zm116.93 0c20.496 0 37.094 16.598 37.094 37.094s-16.598 37.094-37.094 37.094c-20.496 0-37.094-16.598-37.094-37.094s16.598-37.094 37.094-37.094zm116.93 0c20.496 0 37.094 16.598 37.094 37.094s-16.598 37.094-37.094 37.094-37.094-16.598-37.094-37.094 16.598-37.094 37.094-37.094zm116.93 0c20.496 0 37.094 16.598 37.094 37.094s-16.598 37.094-37.094 37.094c-20.496 0-37.094-16.598-37.094-37.094s16.598-37.094 37.094-37.094zm116.93 0c20.496 0 37.094 16.598 37.094 37.094s-16.598 37.094-37.094 37.094-37.094-16.598-37.094-37.094 16.598-37.094 37.094-37.094zm116.93 0c20.496 0 37.094 16.598 37.094 37.094s-16.598 37.094-37.094 37.094c-20.496 0-37.094-16.598-37.094-37.094s16.598-37.094 37.094-37.094zm116.93 0c20.496 0 37.094 16.598 37.094 37.094s-16.598 37.094-37.094 37.094-37.094-16.598-37.094-37.094 16.598-37.094 37.094-37.094zm116.93 0c20.496 0 37.094 16.598 37.094 37.094s-16.598 37.094-37.094 37.094c-20.496 0-37.094-16.598-37.094-37.094s16.598-37.094 37.094-37.094zm-1052.4 17.918c-10.582 0-19.18 8.5977-19.18 19.18s8.5977 19.18 19.18 19.18 19.18-8.5977 19.18-19.18-8.5977-19.18-19.18-19.18zm116.93 0c-10.582 0-19.18 8.5977-19.18 19.18s8.5977 19.18 19.18 19.18c10.582 0 19.18-8.5977 19.18-19.18s-8.5977-19.18-19.18-19.18zm116.93 0c-10.582 0-19.18 8.5977-19.18 19.18s8.5977 19.18 19.18 19.18 19.18-8.5977 19.18-19.18-8.5977-19.18-19.18-19.18zm116.93 0c-10.582 0-19.18 8.5977-19.18 19.18s8.5977 19.18 19.18 19.18c10.582 0 19.18-8.5977 19.18-19.18s-8.5977-19.18-19.18-19.18zm116.93 0c-10.582 0-19.18 8.5977-19.18 19.18s8.5977 19.18 19.18 19.18 19.18-8.5977 19.18-19.18-8.5977-19.18-19.18-19.18zm116.93 0c-10.582 0-19.18 8.5977-19.18 19.18s8.5977 19.18 19.18 19.18c10.582 0 19.18-8.5977 19.18-19.18s-8.5977-19.18-19.18-19.18zm116.93 0c-10.582 0-19.18 8.5977-19.18 19.18s8.5977 19.18 19.18 19.18 19.18-8.5977 19.18-19.18-8.5977-19.18-19.18-19.18zm116.93 0c-10.582 0-19.18 8.5977-19.18 19.18s8.5977 19.18 19.18 19.18c10.582 0 19.18-8.5977 19.18-19.18s-8.5977-19.18-19.18-19.18zm116.93 0c-10.582 0-19.18 8.5977-19.18 19.18s8.5977 19.18 19.18 19.18 19.18-8.5977 19.18-19.18-8.5977-19.18-19.18-19.18zm116.93 0c-10.582 0-19.18 8.5977-19.18 19.18s8.5977 19.18 19.18 19.18c10.582 0 19.18-8.5977 19.18-19.18s-8.5977-19.18-19.18-19.18zm-1052.4 1.5781c9.7305 0 17.598 7.8711 17.598 17.598 0 9.7305-7.8711 17.598-17.598 17.598-9.7305 0-17.598-7.8711-17.598-17.598 0-9.7305 7.8711-17.598 17.598-17.598zm116.93 0c9.7305 0 17.598 7.8711 17.598 17.598 0 9.7305-7.8711 17.598-17.598 17.598-9.7305 0-17.598-7.8711-17.598-17.598 0-9.7305 7.8711-17.598 17.598-17.598zm116.93 0c9.7305 0 17.598 7.8711 17.598 17.598 0 9.7305-7.8711 17.598-17.598 17.598-9.7305 0-17.598-7.8711-17.598-17.598 0-9.7305 7.8711-17.598 17.598-17.598zm116.93 0c9.7305 0 17.598 7.8711 17.598 17.598 0 9.7305-7.8711 17.598-17.598 17.598-9.7305 0-17.598-7.8711-17.598-17.598 0-9.7305 7.8711-17.598 17.598-17.598zm116.93 0c9.7305 0 17.598 7.8711 17.598 17.598 0 9.7305-7.8711 17.598-17.598 17.598-9.7305 0-17.598-7.8711-17.598-17.598 0-9.7305 7.8711-17.598 17.598-17.598zm116.93 0c9.7305 0 17.598 7.8711 17.598 17.598 0 9.7305-7.8711 17.598-17.598 17.598-9.7305 0-17.598-7.8711-17.598-17.598 0-9.7305 7.8711-17.598 17.598-17.598zm116.93 0c9.7305 0 17.598 7.8711 17.598 17.598 0 9.7305-7.8711 17.598-17.598 17.598-9.7305 0-17.598-7.8711-17.598-17.598 0-9.7305 7.8711-17.598 17.598-17.598zm116.93 0c9.7305 0 17.598 7.8711 17.598 17.598 0 9.7305-7.8711 17.598-17.598 17.598-9.7305 0-17.598-7.8711-17.598-17.598 0-9.7305 7.8711-17.598 17.598-17.598zm116.93 0c9.7305 0 17.598 7.8711 17.598 17.598 0 9.7305-7.8711 17.598-17.598 17.598-9.7305 0-17.598-7.8711-17.598-17.598 0-9.7305 7.8711-17.598 17.598-17.598zm116.93 0c9.7305 0 17.598 7.8711 17.598 17.598 0 9.7305-7.8711 17.598-17.598 17.598-9.7305 0-17.598-7.8711-17.598-17.598 0-9.7305 7.8711-17.598 17.598-17.598zm-1052.4 77.645c31.426 0 56.887 25.457 56.887 56.887 0 31.426-25.457 56.887-56.887 56.887-31.426 0-56.887-25.457-56.887-56.887 0-31.426 25.461-56.887 56.887-56.887zm116.93 0c31.426 0 56.887 25.457 56.887 56.887 0 31.426-25.457 56.887-56.887 56.887-31.426 0-56.887-25.457-56.887-56.887 0-31.426 25.457-56.887 56.887-56.887zm116.93 0c31.426 0 56.887 25.457 56.887 56.887 0 31.426-25.457 56.887-56.887 56.887-31.426 0-56.887-25.457-56.887-56.887 0-31.426 25.457-56.887 56.887-56.887zm116.93 0c31.426 0 56.887 25.457 56.887 56.887 0 31.426-25.457 56.887-56.887 56.887-31.426 0-56.887-25.457-56.887-56.887 0-31.426 25.457-56.887 56.887-56.887zm116.93 0c31.426 0 56.887 25.457 56.887 56.887 0 31.426-25.457 56.887-56.887 56.887-31.426 0-56.887-25.457-56.887-56.887 0-31.426 25.457-56.887 56.887-56.887zm116.93 0c31.426 0 56.887 25.457 56.887 56.887 0 31.426-25.457 56.887-56.887 56.887-31.426 0-56.887-25.457-56.887-56.887 0-31.426 25.457-56.887 56.887-56.887zm116.93 0c31.426 0 56.887 25.457 56.887 56.887 0 31.426-25.457 56.887-56.887 56.887-31.426 0-56.887-25.457-56.887-56.887 0-31.426 25.457-56.887 56.887-56.887zm116.93 0c31.426 0 56.887 25.457 56.887 56.887 0 31.426-25.457 56.887-56.887 56.887-31.426 0-56.887-25.457-56.887-56.887 0-31.426 25.457-56.887 56.887-56.887zm116.93 0c31.426 0 56.887 25.457 56.887 56.887 0 31.426-25.457 56.887-56.887 56.887-31.426 0-56.887-25.457-56.887-56.887 0-31.426 25.457-56.887 56.887-56.887zm116.93 0c31.426 0 56.887 25.457 56.887 56.887 0 31.426-25.457 56.887-56.887 56.887-31.426 0-56.887-25.457-56.887-56.887 0-31.426 25.457-56.887 56.887-56.887zm-1052.4 18.211c-21.352 0-38.676 17.324-38.676 38.676 0 21.352 17.324 38.676 38.676 38.676s38.676-17.324 38.676-38.676c0-21.352-17.324-38.676-38.676-38.676zm116.93 0c-21.352 0-38.676 17.324-38.676 38.676 0 21.352 17.324 38.676 38.676 38.676 21.352 0 38.676-17.324 38.676-38.676 0-21.352-17.324-38.676-38.676-38.676zm116.93 0c-21.352 0-38.676 17.324-38.676 38.676 0 21.352 17.324 38.676 38.676 38.676s38.676-17.324 38.676-38.676c0-21.352-17.324-38.676-38.676-38.676zm116.93 0c-21.352 0-38.676 17.324-38.676 38.676 0 21.352 17.324 38.676 38.676 38.676 21.352 0 38.676-17.324 38.676-38.676 0-21.352-17.324-38.676-38.676-38.676zm116.93 0c-21.352 0-38.676 17.324-38.676 38.676 0 21.352 17.324 38.676 38.676 38.676s38.676-17.324 38.676-38.676c0-21.352-17.324-38.676-38.676-38.676zm116.93 0c-21.352 0-38.676 17.324-38.676 38.676 0 21.352 17.324 38.676 38.676 38.676 21.352 0 38.676-17.324 38.676-38.676 0-21.352-17.324-38.676-38.676-38.676zm116.93 0c-21.352 0-38.676 17.324-38.676 38.676 0 21.352 17.324 38.676 38.676 38.676s38.676-17.324 38.676-38.676c0-21.352-17.324-38.676-38.676-38.676zm116.93 0c-21.352 0-38.676 17.324-38.676 38.676 0 21.352 17.324 38.676 38.676 38.676 21.352 0 38.676-17.324 38.676-38.676 0-21.352-17.324-38.676-38.676-38.676zm116.93 0c-21.352 0-38.676 17.324-38.676 38.676 0 21.352 17.324 38.676 38.676 38.676s38.676-17.324 38.676-38.676c0-21.352-17.324-38.676-38.676-38.676zm116.93 0c-21.352 0-38.676 17.324-38.676 38.676 0 21.352 17.324 38.676 38.676 38.676 21.352 0 38.676-17.324 38.676-38.676 0-21.352-17.324-38.676-38.676-38.676zm-1052.4 1.582c20.496 0 37.094 16.598 37.094 37.094 0 20.496-16.598 37.094-37.094 37.094s-37.094-16.598-37.094-37.094c0-20.496 16.598-37.094 37.094-37.094zm116.93 0c20.496 0 37.094 16.598 37.094 37.094 0 20.496-16.598 37.094-37.094 37.094-20.496 0-37.094-16.598-37.094-37.094 0-20.496 16.598-37.094 37.094-37.094zm116.93 0c20.496 0 37.094 16.598 37.094 37.094 0 20.496-16.598 37.094-37.094 37.094s-37.094-16.598-37.094-37.094c0-20.496 16.598-37.094 37.094-37.094zm116.93 0c20.496 0 37.094 16.598 37.094 37.094 0 20.496-16.598 37.094-37.094 37.094-20.496 0-37.094-16.598-37.094-37.094 0-20.496 16.598-37.094 37.094-37.094zm116.93 0c20.496 0 37.094 16.598 37.094 37.094 0 20.496-16.598 37.094-37.094 37.094s-37.094-16.598-37.094-37.094c0-20.496 16.598-37.094 37.094-37.094zm116.93 0c20.496 0 37.094 16.598 37.094 37.094 0 20.496-16.598 37.094-37.094 37.094-20.496 0-37.094-16.598-37.094-37.094 0-20.496 16.598-37.094 37.094-37.094zm116.93 0c20.496 0 37.094 16.598 37.094 37.094 0 20.496-16.598 37.094-37.094 37.094s-37.094-16.598-37.094-37.094c0-20.496 16.598-37.094 37.094-37.094zm116.93 0c20.496 0 37.094 16.598 37.094 37.094 0 20.496-16.598 37.094-37.094 37.094-20.496 0-37.094-16.598-37.094-37.094 0-20.496 16.598-37.094 37.094-37.094zm116.93 0c20.496 0 37.094 16.598 37.094 37.094 0 20.496-16.598 37.094-37.094 37.094s-37.094-16.598-37.094-37.094c0-20.496 16.598-37.094 37.094-37.094zm116.93 0c20.496 0 37.094 16.598 37.094 37.094 0 20.496-16.598 37.094-37.094 37.094-20.496 0-37.094-16.598-37.094-37.094 0-20.496 16.598-37.094 37.094-37.094zm-1052.4 17.914c-10.582 0-19.18 8.5977-19.18 19.18s8.5977 19.18 19.18 19.18 19.18-8.5977 19.18-19.18-8.5977-19.18-19.18-19.18zm116.93 0c-10.582 0-19.18 8.5977-19.18 19.18s8.5977 19.18 19.18 19.18c10.582 0 19.18-8.5977 19.18-19.18s-8.5977-19.18-19.18-19.18zm116.93 0c-10.582 0-19.18 8.5977-19.18 19.18s8.5977 19.18 19.18 19.18 19.18-8.5977 19.18-19.18-8.5977-19.18-19.18-19.18zm116.93 0c-10.582 0-19.18 8.5977-19.18 19.18s8.5977 19.18 19.18 19.18c10.582 0 19.18-8.5977 19.18-19.18s-8.5977-19.18-19.18-19.18zm116.93 0c-10.582 0-19.18 8.5977-19.18 19.18s8.5977 19.18 19.18 19.18 19.18-8.5977 19.18-19.18-8.5977-19.18-19.18-19.18zm116.93 0c-10.582 0-19.18 8.5977-19.18 19.18s8.5977 19.18 19.18 19.18c10.582 0 19.18-8.5977 19.18-19.18s-8.5977-19.18-19.18-19.18zm116.93 0c-10.582 0-19.18 8.5977-19.18 19.18s8.5977 19.18 19.18 19.18 19.18-8.5977 19.18-19.18-8.5977-19.18-19.18-19.18zm116.93 0c-10.582 0-19.18 8.5977-19.18 19.18s8.5977 19.18 19.18 19.18c10.582 0 19.18-8.5977 19.18-19.18s-8.5977-19.18-19.18-19.18zm116.93 0c-10.582 0-19.18 8.5977-19.18 19.18s8.5977 19.18 19.18 19.18 19.18-8.5977 19.18-19.18-8.5977-19.18-19.18-19.18zm116.93 0c-10.582 0-19.18 8.5977-19.18 19.18s8.5977 19.18 19.18 19.18c10.582 0 19.18-8.5977 19.18-19.18s-8.5977-19.18-19.18-19.18zm-1052.4 1.582c9.7305 0 17.598 7.8711 17.598 17.598 0 9.7305-7.8711 17.598-17.598 17.598-9.7305 0-17.598-7.8711-17.598-17.598 0-9.7305 7.8711-17.598 17.598-17.598zm116.93 0c9.7305 0 17.598 7.8711 17.598 17.598 0 9.7305-7.8711 17.598-17.598 17.598-9.7305 0-17.598-7.8711-17.598-17.598 0-9.7305 7.8711-17.598 17.598-17.598zm116.93 0c9.7305 0 17.598 7.8711 17.598 17.598 0 9.7305-7.8711 17.598-17.598 17.598-9.7305 0-17.598-7.8711-17.598-17.598 0-9.7305 7.8711-17.598 17.598-17.598zm116.93 0c9.7305 0 17.598 7.8711 17.598 17.598 0 9.7305-7.8711 17.598-17.598 17.598-9.7305 0-17.598-7.8711-17.598-17.598 0-9.7305 7.8711-17.598 17.598-17.598zm116.93 0c9.7305 0 17.598 7.8711 17.598 17.598 0 9.7305-7.8711 17.598-17.598 17.598-9.7305 0-17.598-7.8711-17.598-17.598 0-9.7305 7.8711-17.598 17.598-17.598zm116.93 0c9.7305 0 17.598 7.8711 17.598 17.598 0 9.7305-7.8711 17.598-17.598 17.598-9.7305 0-17.598-7.8711-17.598-17.598 0-9.7305 7.8711-17.598 17.598-17.598zm116.93 0c9.7305 0 17.598 7.8711 17.598 17.598 0 9.7305-7.8711 17.598-17.598 17.598-9.7305 0-17.598-7.8711-17.598-17.598 0-9.7305 7.8711-17.598 17.598-17.598zm116.93 0c9.7305 0 17.598 7.8711 17.598 17.598 0 9.7305-7.8711 17.598-17.598 17.598-9.7305 0-17.598-7.8711-17.598-17.598 0-9.7305 7.8711-17.598 17.598-17.598zm116.93 0c9.7305 0 17.598 7.8711 17.598 17.598 0 9.7305-7.8711 17.598-17.598 17.598-9.7305 0-17.598-7.8711-17.598-17.598 0-9.7305 7.8711-17.598 17.598-17.598zm116.93 0c9.7305 0 17.598 7.8711 17.598 17.598 0 9.7305-7.8711 17.598-17.598 17.598-9.7305 0-17.598-7.8711-17.598-17.598 0-9.7305 7.8711-17.598 17.598-17.598zm-1052.4 77.645c31.426 0 56.887 25.457 56.887 56.887 0 31.426-25.457 56.887-56.887 56.887-31.426 0-56.887-25.457-56.887-56.887 0-31.43 25.461-56.887 56.887-56.887zm116.93 0c31.426 0 56.887 25.457 56.887 56.887 0 31.426-25.457 56.887-56.887 56.887-31.426 0-56.887-25.457-56.887-56.887 0-31.426 25.457-56.887 56.887-56.887zm116.93 0c31.426 0 56.887 25.457 56.887 56.887 0 31.426-25.457 56.887-56.887 56.887-31.426 0-56.887-25.457-56.887-56.887 0-31.426 25.457-56.887 56.887-56.887zm116.93 0c31.426 0 56.887 25.457 56.887 56.887 0 31.426-25.457 56.887-56.887 56.887-31.426 0-56.887-25.457-56.887-56.887 0-31.426 25.457-56.887 56.887-56.887zm116.93 0c31.426 0 56.887 25.457 56.887 56.887 0 31.426-25.457 56.887-56.887 56.887-31.426 0-56.887-25.457-56.887-56.887 0-31.426 25.457-56.887 56.887-56.887zm116.93 0c31.426 0 56.887 25.457 56.887 56.887 0 31.426-25.457 56.887-56.887 56.887-31.426 0-56.887-25.457-56.887-56.887 0-31.426 25.457-56.887 56.887-56.887zm116.93 0c31.426 0 56.887 25.457 56.887 56.887 0 31.426-25.457 56.887-56.887 56.887-31.426 0-56.887-25.457-56.887-56.887 0-31.426 25.457-56.887 56.887-56.887zm116.93 0c31.426 0 56.887 25.457 56.887 56.887 0 31.426-25.457 56.887-56.887 56.887-31.426 0-56.887-25.457-56.887-56.887 0-31.426 25.457-56.887 56.887-56.887zm116.93 0c31.426 0 56.887 25.457 56.887 56.887 0 31.426-25.457 56.887-56.887 56.887-31.426 0-56.887-25.457-56.887-56.887 0-31.426 25.457-56.887 56.887-56.887zm116.93 0c31.426 0 56.887 25.457 56.887 56.887 0 31.426-25.457 56.887-56.887 56.887-31.426 0-56.887-25.457-56.887-56.887 0-31.426 25.457-56.887 56.887-56.887zm-1052.4 18.207c-21.352 0-38.676 17.324-38.676 38.676 0 21.352 17.324 38.676 38.676 38.676s38.676-17.324 38.676-38.676c0-21.352-17.324-38.676-38.676-38.676zm116.93 0c-21.352 0-38.676 17.324-38.676 38.676 0 21.352 17.324 38.676 38.676 38.676 21.352 0 38.676-17.324 38.676-38.676 0-21.352-17.324-38.676-38.676-38.676zm116.93 0c-21.352 0-38.676 17.324-38.676 38.676 0 21.352 17.324 38.676 38.676 38.676s38.676-17.324 38.676-38.676c0-21.352-17.324-38.676-38.676-38.676zm116.93 0c-21.352 0-38.676 17.324-38.676 38.676 0 21.352 17.324 38.676 38.676 38.676 21.352 0 38.676-17.324 38.676-38.676 0-21.352-17.324-38.676-38.676-38.676zm116.93 0c-21.352 0-38.676 17.324-38.676 38.676 0 21.352 17.324 38.676 38.676 38.676s38.676-17.324 38.676-38.676c0-21.352-17.324-38.676-38.676-38.676zm116.93 0c-21.352 0-38.676 17.324-38.676 38.676 0 21.352 17.324 38.676 38.676 38.676 21.352 0 38.676-17.324 38.676-38.676 0-21.352-17.324-38.676-38.676-38.676zm116.93 0c-21.352 0-38.676 17.324-38.676 38.676 0 21.352 17.324 38.676 38.676 38.676s38.676-17.324 38.676-38.676c0-21.352-17.324-38.676-38.676-38.676zm116.93 0c-21.352 0-38.676 17.324-38.676 38.676 0 21.352 17.324 38.676 38.676 38.676 21.352 0 38.676-17.324 38.676-38.676 0-21.352-17.324-38.676-38.676-38.676zm116.93 0c-21.352 0-38.676 17.324-38.676 38.676 0 21.352 17.324 38.676 38.676 38.676s38.676-17.324 38.676-38.676c0-21.352-17.324-38.676-38.676-38.676zm116.93 0c-21.352 0-38.676 17.324-38.676 38.676 0 21.352 17.324 38.676 38.676 38.676 21.352 0 38.676-17.324 38.676-38.676 0-21.352-17.324-38.676-38.676-38.676zm-1052.4 1.582c20.496 0 37.094 16.598 37.094 37.094s-16.598 37.094-37.094 37.094-37.094-16.598-37.094-37.094 16.598-37.094 37.094-37.094zm116.93 0c20.496 0 37.094 16.598 37.094 37.094s-16.598 37.094-37.094 37.094c-20.496 0-37.094-16.598-37.094-37.094s16.598-37.094 37.094-37.094zm116.93 0c20.496 0 37.094 16.598 37.094 37.094s-16.598 37.094-37.094 37.094-37.094-16.598-37.094-37.094 16.598-37.094 37.094-37.094zm116.93 0c20.496 0 37.094 16.598 37.094 37.094s-16.598 37.094-37.094 37.094c-20.496 0-37.094-16.598-37.094-37.094s16.598-37.094 37.094-37.094zm116.93 0c20.496 0 37.094 16.598 37.094 37.094s-16.598 37.094-37.094 37.094-37.094-16.598-37.094-37.094 16.598-37.094 37.094-37.094zm116.93 0c20.496 0 37.094 16.598 37.094 37.094s-16.598 37.094-37.094 37.094c-20.496 0-37.094-16.598-37.094-37.094s16.598-37.094 37.094-37.094zm116.93 0c20.496 0 37.094 16.598 37.094 37.094s-16.598 37.094-37.094 37.094-37.094-16.598-37.094-37.094 16.598-37.094 37.094-37.094zm116.93 0c20.496 0 37.094 16.598 37.094 37.094s-16.598 37.094-37.094 37.094c-20.496 0-37.094-16.598-37.094-37.094s16.598-37.094 37.094-37.094zm116.93 0c20.496 0 37.094 16.598 37.094 37.094s-16.598 37.094-37.094 37.094-37.094-16.598-37.094-37.094 16.598-37.094 37.094-37.094zm116.93 0c20.496 0 37.094 16.598 37.094 37.094s-16.598 37.094-37.094 37.094c-20.496 0-37.094-16.598-37.094-37.094s16.598-37.094 37.094-37.094zm-1052.4 17.914c-10.582 0-19.18 8.5977-19.18 19.18 0 10.582 8.5977 19.18 19.18 19.18s19.18-8.5977 19.18-19.18c0-10.582-8.5977-19.18-19.18-19.18zm116.93 0c-10.582 0-19.18 8.5977-19.18 19.18 0 10.582 8.5977 19.18 19.18 19.18 10.582 0 19.18-8.5977 19.18-19.18 0-10.582-8.5977-19.18-19.18-19.18zm116.93 0c-10.582 0-19.18 8.5977-19.18 19.18 0 10.582 8.5977 19.18 19.18 19.18s19.18-8.5977 19.18-19.18c0-10.582-8.5977-19.18-19.18-19.18zm116.93 0c-10.582 0-19.18 8.5977-19.18 19.18 0 10.582 8.5977 19.18 19.18 19.18 10.582 0 19.18-8.5977 19.18-19.18 0-10.582-8.5977-19.18-19.18-19.18zm116.93 0c-10.582 0-19.18 8.5977-19.18 19.18 0 10.582 8.5977 19.18 19.18 19.18s19.18-8.5977 19.18-19.18c0-10.582-8.5977-19.18-19.18-19.18zm116.93 0c-10.582 0-19.18 8.5977-19.18 19.18 0 10.582 8.5977 19.18 19.18 19.18 10.582 0 19.18-8.5977 19.18-19.18 0-10.582-8.5977-19.18-19.18-19.18zm116.93 0c-10.582 0-19.18 8.5977-19.18 19.18 0 10.582 8.5977 19.18 19.18 19.18s19.18-8.5977 19.18-19.18c0-10.582-8.5977-19.18-19.18-19.18zm116.93 0c-10.582 0-19.18 8.5977-19.18 19.18 0 10.582 8.5977 19.18 19.18 19.18 10.582 0 19.18-8.5977 19.18-19.18 0-10.582-8.5977-19.18-19.18-19.18zm116.93 0c-10.582 0-19.18 8.5977-19.18 19.18 0 10.582 8.5977 19.18 19.18 19.18s19.18-8.5977 19.18-19.18c0-10.582-8.5977-19.18-19.18-19.18zm116.93 0c-10.582 0-19.18 8.5977-19.18 19.18 0 10.582 8.5977 19.18 19.18 19.18 10.582 0 19.18-8.5977 19.18-19.18 0-10.582-8.5977-19.18-19.18-19.18zm-1052.4 1.582c9.7305 0 17.598 7.8711 17.598 17.598 0 9.7305-7.8711 17.598-17.598 17.598-9.7305 0-17.598-7.8711-17.598-17.598 0-9.7305 7.8711-17.598 17.598-17.598zm116.93 0c9.7305 0 17.598 7.8711 17.598 17.598 0 9.7305-7.8711 17.598-17.598 17.598-9.7305 0-17.598-7.8711-17.598-17.598 0-9.7305 7.8711-17.598 17.598-17.598zm116.93 0c9.7305 0 17.598 7.8711 17.598 17.598 0 9.7305-7.8711 17.598-17.598 17.598-9.7305 0-17.598-7.8711-17.598-17.598 0-9.7305 7.8711-17.598 17.598-17.598zm116.93 0c9.7305 0 17.598 7.8711 17.598 17.598 0 9.7305-7.8711 17.598-17.598 17.598-9.7305 0-17.598-7.8711-17.598-17.598 0-9.7305 7.8711-17.598 17.598-17.598zm116.93 0c9.7305 0 17.598 7.8711 17.598 17.598 0 9.7305-7.8711 17.598-17.598 17.598-9.7305 0-17.598-7.8711-17.598-17.598 0-9.7305 7.8711-17.598 17.598-17.598zm116.93 0c9.7305 0 17.598 7.8711 17.598 17.598 0 9.7305-7.8711 17.598-17.598 17.598-9.7305 0-17.598-7.8711-17.598-17.598 0-9.7305 7.8711-17.598 17.598-17.598zm116.93 0c9.7305 0 17.598 7.8711 17.598 17.598 0 9.7305-7.8711 17.598-17.598 17.598-9.7305 0-17.598-7.8711-17.598-17.598 0-9.7305 7.8711-17.598 17.598-17.598zm116.93 0c9.7305 0 17.598 7.8711 17.598 17.598 0 9.7305-7.8711 17.598-17.598 17.598-9.7305 0-17.598-7.8711-17.598-17.598 0-9.7305 7.8711-17.598 17.598-17.598zm116.93 0c9.7305 0 17.598 7.8711 17.598 17.598 0 9.7305-7.8711 17.598-17.598 17.598-9.7305 0-17.598-7.8711-17.598-17.598 0-9.7305 7.8711-17.598 17.598-17.598zm116.93 0c9.7305 0 17.598 7.8711 17.598 17.598 0 9.7305-7.8711 17.598-17.598 17.598-9.7305 0-17.598-7.8711-17.598-17.598 0-9.7305 7.8711-17.598 17.598-17.598z" fill="#3e0920"/>
</svg>
