<?xml version="1.0" encoding="UTF-8"?>
<svg width="1200pt" height="1200pt" version="1.1" viewBox="0 0 1200 1200" xmlns="http://www.w3.org/2000/svg">
 <path d="m988.93 1200h-27.789v-311.12h-450.06v-375.03h-449.94v-513.85h27.789v486.06h449.94v375.03h450.06z" fill="#c8e464"/>
 <path d="m38.906 513.85h-38.906v-27.789h11.117v-447.16h-11.117v-27.789h38.906z" fill="#c8e464"/>
 <path d="m1038.9 1200h-27.793v-361.14h-450.06v-374.91h-449.94v-463.96h27.664v436.04h450.06v375.03h450.07z" fill="#c8e464"/>
 <path d="m1088.8 1200h-27.793v-411.16h-449.93v-374.91h-449.94v-413.94h27.664v386.15h450.06v375.03h449.94z" fill="#c8e464"/>
 <path d="m1138.9 1200h-27.789v-461.18h-449.94v-374.91h-450.06v-363.91h27.789v336.12h450.06v375.03h449.94z" fill="#c8e464"/>
 <path d="m1200 1188.9h-38.906v-477.73h38.906v27.664h-11.117v422.27h11.117z" fill="#c8e464"/>
 <path d="m338.91 313.89h-77.812v-313.89h27.789v286.11h22.234v-286.11h27.789z" fill="#c8e464"/>
 <path d="m1200 688.93h-488.84v-375.03h-350.02v-313.89h27.789v286.11h349.89v375.03h461.18z" fill="#c8e464"/>
 <path d="m1200 638.91h-438.82v-375.03h-350.02v-263.88h27.664v236.09h350.02v375.03h411.16z" fill="#c8e464"/>
 <path d="m1200 588.88h-388.93v-375.03h-349.89v-213.85h27.664v186.06h350.02v375.03h361.14z" fill="#c8e464"/>
 <path d="m588.88 163.83h-77.809v-163.83h27.789v136.17h22.23v-136.17h27.789z" fill="#c8e464"/>
 <path d="m688.93 163.83h-77.809v-163.83h27.789v136.17h22.23v-136.17h27.789z" fill="#c8e464"/>
 <path d="m788.84 163.83h-77.688v-163.83h27.664v136.17h22.359v-136.17h27.664z" fill="#c8e464"/>
 <path d="m1200 538.86h-338.91v-375.03h-50.02v-163.83h27.789v136.17h50.02v374.91h311.12z" fill="#c8e464"/>
 <path d="m1200 488.84h-288.88v-374.91h-50.023v-113.94h27.789v86.148h50.023v375.03h261.09z" fill="#c8e464"/>
 <path d="m911.12 0h27.789v50.02h-27.789z" fill="#c8e464"/>
 <path d="m1200 438.82h-238.86v-438.82h27.789v411.16h211.07z" fill="#c8e464"/>
 <path d="m1200 388.93h-188.84v-388.93h27.793v361.14h161.05z" fill="#c8e464"/>
 <path d="m1188.9 338.91h-127.83v-338.91h27.793v311.12h72.25v-311.12h27.789z" fill="#c8e464"/>
 <path d="m1111.1 0h27.789v274.99h-27.789z" fill="#c8e464"/>
 <path d="m938.91 1200h-27.789v-261.09h-449.94v-375.03h-461.18v-27.789h488.84v375.03h450.06z" fill="#c8e464"/>
 <path d="m888.88 1200h-27.789v-211.07h-449.94v-375.03h-411.16v-27.789h438.82v375.03h450.06z" fill="#c8e464"/>
 <path d="m388.93 713.94h-388.93v-27.789h361.14v-22.234h-361.14v-27.789h388.93z" fill="#c8e464"/>
 <path d="m388.93 1200h-27.789v-436.04h-361.14v-27.914h388.93z" fill="#c8e464"/>
 <path d="m838.86 1200h-27.789v-161.05h-372.25v161.05h-27.664v-188.84h427.71z" fill="#c8e464"/>
 <path d="m788.84 1200h-27.664v-111.16h-272.34v111.16h-27.664v-138.95h327.66z" fill="#c8e464"/>
 <path d="m738.82 1200h-27.664v-61.137h-172.29v61.137h-27.789v-88.926h227.75z" fill="#c8e464"/>
 <path d="m688.93 1200h-27.789v-11.117h-72.254v11.117h-27.789v-38.906h127.83z" fill="#c8e464"/>
 <path d="m338.91 1200h-27.789v-386.15h-311.12v-27.789h338.91z" fill="#c8e464"/>
 <path d="m288.88 1200h-27.789v-336.12h-22.23v336.12h-27.789v-363.91h77.809z" fill="#c8e464"/>
 <path d="m188.84 1200h-27.664v-336.12h-161.18v-27.789h188.84z" fill="#c8e464"/>
 <path d="m0 886.11h125.05v27.789h-125.05z" fill="#c8e464"/>
 <path d="m138.82 1200h-27.664v-236.09h-111.16v-27.789h138.82z" fill="#c8e464"/>
 <path d="m88.926 1200h-27.789v-186.06h-61.137v-27.789h88.926z" fill="#c8e464"/>
 <path d="m38.906 1188.9h-38.906v-27.789h11.117v-97.262h-11.117v-27.664h38.906z" fill="#c8e464"/>
</svg>
