<?xml version="1.0" encoding="UTF-8"?>
<svg width="1200pt" height="1200pt" version="1.1" viewBox="0 0 1200 1200" xmlns="http://www.w3.org/2000/svg">
 <path d="m84 84v1032h1032v-1032zm950.16 48-188.16 188.16-188.16-188.16zm-410.16 33.84 188.16 188.16-188.16 188.16zm33.84 410.16 188.16-188.16 188.16 188.16zm376.32 48-188.16 188.16-188.16-188.16zm-492-492-188.16 188.16-188.16-188.16zm-376.32 444 188.16-188.16 188.16 188.16zm376.32 48-188.16 188.16-188.16-188.16zm-410.16-458.16 188.16 188.16-188.16 188.16zm0 492 188.16 188.16-188.16 188.16zm33.84 410.16 188.16-188.16 188.16 188.16zm410.16-33.84-188.16-188.16 188.16-188.16zm0-492-188.16-188.16 188.16-188.16zm48 115.68 188.16 188.16-188.16 188.16zm33.84 410.16 188.16-188.16 188.16 188.16zm410.16-33.84-188.16-188.16 188.16-188.16zm0-492-188.16-188.16 188.16-188.16z" fill="#3e0920"/>
</svg>
