<?xml version="1.0" encoding="UTF-8"?>
<svg width="1200pt" height="1200pt" version="1.1" viewBox="0 0 1200 1200" xmlns="http://www.w3.org/2000/svg">
 <path d="m800.16 585.48h-443.04c-23.398 0-42.48-19.078-42.48-42.48v-367.44c0-23.398 19.078-42.48 42.48-42.48h443.04c23.398 0 42.48 19.078 42.48 42.48v367.44c0 23.398-19.078 42.48-42.48 42.48zm-443.04-440.4c-16.801 0-30.48 13.68-30.48 30.48v367.44c0 16.801 13.68 30.48 30.48 30.48h443.04c16.801 0 30.48-13.68 30.48-30.48v-367.44c0-16.801-13.68-30.48-30.48-30.48z" fill="#fff"/>
 <path d="m646.8 565.44h-136.32c-93.602 0-169.8-76.199-169.8-169.8v-68.398c0-93.602 76.199-169.8 169.8-169.8h136.32c93.602 0 169.8 76.199 169.8 169.8v68.398c0 93.602-76.199 169.8-169.8 169.8zm-136.32-395.88c-87 0-157.8 70.801-157.8 157.8v68.398c0 87 70.801 157.8 157.8 157.8h136.32c87 0 157.8-70.801 157.8-157.8v-68.398c0-87-70.801-157.8-157.8-157.8z" fill="#fff"/>
 <path d="m852.12 709.08v-12h-0.12109v-34.801l-546.72 0.003906v172.44h546.6v-35.879h0.12109v-12h-0.12109v-17.879h0.12109v-12h-0.12109v-18h0.12109v-12h-0.12109v-17.879h0.12109zm-12.121-12h-25.68v-22.801h25.68zm-458.76 41.879h16.801v18h-16.801zm-12 18h-16.922v-18h16.922zm69.719-18h16.922v18h-16.922zm-12 18h-16.922v-18h16.922zm40.922-18h16.801v18h-16.801zm28.801 0h16.922v18h-16.922zm28.922 0h16.801v18h-16.801zm28.801 0h16.922v18h-16.922zm28.922 0h16.801v18h-16.801zm28.801 0h16.922v18h-16.922zm28.922 0h16.922v18h-16.922zm28.922 0h16.801v18h-16.801zm28.801 0h16.922v18h-16.922zm28.922 0h16.801v18h-16.801zm0-12v-17.879h16.801v17.879zm-12 0h-16.922v-17.879h16.922zm-28.922 0h-16.801v-17.879h16.801zm-28.801 0h-16.922v-17.879h16.922zm-28.922 0h-16.922v-17.879h16.922zm-28.922 0h-16.801v-17.879h16.801zm-28.801 0h-16.922v-17.879h16.922zm-28.922 0h-16.801v-17.879h16.801zm-28.801 0h-16.922v-17.879h16.922zm-28.922 0h-16.801v-17.879h16.801zm-28.801 0h-16.922v-17.879h16.922zm-28.922 0h-16.922v-17.879h16.922zm-28.922 0h-16.801v-17.879h16.801zm0 42v17.879h-16.801v-17.879zm12 0h16.922v17.879h-16.922zm28.922 0h16.922v17.879h-16.922zm28.922 0h16.801v17.879h-16.801zm28.801 0h16.922v17.879h-16.922zm28.922 0h16.801v17.879h-16.801zm28.801 0h16.922v17.879h-16.922zm28.922 0h16.801v17.879h-16.801zm28.801 0h16.922v17.879h-16.922zm28.922 0h16.922v17.879h-16.922zm28.922 0h16.801v17.879h-16.801zm28.801 0h16.922v17.879h-16.922zm28.922 0h16.801v17.879h-16.801zm28.801 0h16.922v17.879h-16.922zm0-12v-18h16.922v18zm0-30v-17.879h16.922v17.879zm0-29.879v-22.801h16.922v22.801zm-12 0h-16.801v-22.801h16.801zm-28.801 0h-16.922v-22.801h16.922zm-28.922 0h-16.801v-22.801h16.801zm-28.801 0h-16.922v-22.801h16.922zm-28.922 0h-16.922v-22.801h16.922zm-28.922 0h-16.801v-22.801h16.801zm-28.801 0h-16.922v-22.801h16.922zm-28.922 0h-16.801v-22.801h16.801zm-28.801 0h-16.922v-22.801h16.922zm-28.922 0h-16.801v-22.801h16.801zm-28.801 0h-16.922v-22.801h16.922zm-28.922 0h-16.922v-22.801h16.922zm-28.922 0h-16.801v-22.801h16.801zm-28.801 0h-16.922v-22.801h16.922zm0 12v17.879h-16.922v-17.879zm-28.922 17.879h-23.039v-17.879h23.039zm0 12v18h-23.039v-18zm0 30v17.879h-23.039v-17.879zm12 0h16.922v17.879h-16.922zm16.922 29.879v23.879h-16.922v-23.879zm12 0h16.801v23.879h-16.801zm28.801 0h16.922v23.879h-16.922zm28.922 0h16.922v23.879h-16.922zm28.922 0h16.801v23.879h-16.801zm28.801 0h16.922v23.879h-16.922zm28.922 0h16.801v23.879h-16.801zm28.801 0h16.922v23.879h-16.922zm28.922 0h16.801v23.879h-16.801zm28.801 0h16.922v23.879h-16.922zm28.922 0h16.922v23.879h-16.922zm28.922 0h16.801v23.879h-16.801zm28.801 0h16.922v23.879h-16.922zm28.922 0h16.801v23.879h-16.801zm28.801 0h16.922v23.879h-16.922zm28.922 0h16.922v23.879h-16.922zm0-12v-17.879h16.922v17.879zm0-29.879v-18h16.922v18zm0-30v-17.879h16.922v17.879zm0-29.879v-22.801h16.922v22.801zm-445.08-22.801v22.801h-23.039v-22.801zm-23.039 124.56h23.039v23.879h-23.039zm522.6 23.879h-25.68v-23.879h25.68zm0-35.879h-25.68v-17.879h25.68zm0-29.879h-25.68v-18h25.68zm0-30h-25.68v-17.879h25.68z" fill="#fff"/>
 <path d="m445.44 601.92-41.039 41.039c5.1602 4.4414 11.641 7.0781 18.961 7.0781 16.199 0 29.281-13.078 29.281-29.281 0-7.3203-2.7617-13.801-7.0781-18.961z" fill="#fff"/>
 <path d="m441.12 597.72c-4.9219-3.8398-11.039-6.1211-17.762-6.1211-16.199 0-29.281 13.078-29.281 29.281 0 6.7188 2.3984 12.84 6.1211 17.762z" fill="#fff"/>
 <path d="m401.28 643.32s-0.71875-0.12109-1.0781-0.48047c-0.60156-0.60156-0.60156-1.5586 0-2.1602l44.16-44.16s1.5586-0.60156 2.1602 0c0.60156 0.60156 0.60156 1.5586 0 2.1602l-44.16 44.16s-0.71875 0.48047-1.0781 0.48047z" fill="#fff"/>
 <path d="m665.64 651.48c-7.8008 0-15.121-3-20.762-8.5195-5.6406-5.5195-8.7617-12.961-8.8789-20.879-0.12109-16.32 13.078-29.762 29.398-29.879h0.23828c16.199 0 29.52 13.078 29.641 29.398 0 7.9219-3 15.359-8.5195 21-5.5195 5.6406-12.961 8.7617-20.879 8.8789zm0-56.16h-0.23828c-14.641 0-26.52 12.121-26.398 26.762 0 7.0781 2.8789 13.801 7.9219 18.719 5.0391 4.9219 11.641 7.6797 18.602 7.6797h0.23828c7.0781 0 13.801-2.8789 18.719-7.9219 5.0391-5.0391 7.6797-11.762 7.6797-18.84 0-14.641-12-26.398-26.641-26.398z" fill="#fff"/>
 <path d="m687.84 621.84c0 12.195-9.8867 22.082-22.078 22.082-12.195 0-22.082-9.8867-22.082-22.082 0-12.195 9.8867-22.078 22.082-22.078 12.191 0 22.078 9.8828 22.078 22.078z" fill="#fff"/>
 <path d="m732.72 651.48c-7.8008 0-15.121-3-20.762-8.5195-5.6406-5.5195-8.7617-12.961-8.8789-20.879-0.12109-16.32 13.078-29.762 29.398-29.879h0.23828c16.199 0 29.52 13.078 29.641 29.398 0 7.9219-3 15.359-8.5195 21-5.5195 5.6406-12.961 8.7617-20.879 8.8789zm0-56.16h-0.23828c-14.641 0-26.52 12.121-26.398 26.762 0 7.0781 2.8789 13.801 7.9219 18.719 5.0391 4.9219 11.641 7.6797 18.602 7.6797h0.23828c7.0781 0 13.801-2.8789 18.719-7.9219 5.0391-5.0391 7.6797-11.762 7.6797-18.84 0-14.641-12-26.398-26.641-26.398z" fill="#fff"/>
 <path d="m754.8 621.84c0 12.195-9.8867 22.082-22.082 22.082-12.191 0-22.078-9.8867-22.078-22.082 0-12.195 9.8867-22.078 22.078-22.078 12.195 0 22.082 9.8828 22.082 22.078z" fill="#fff"/>
 <path d="m850.2 93.48h-543.12c-22.801 0-41.281 18.48-41.281 41.281v690.72c0 22.801 18.48 41.281 41.281 41.281h88.199l-18.961 164.28c-0.12109 1.4414 0.96094 2.6406 2.3984 2.6406l23.16-0.48047c1.0781 0 2.0391-0.83984 2.2812-1.9219l26.641-132.96c1.1992-5.8789 5.6406-10.441 11.398-11.879l81.48-19.68h131.04l85.922 20.762c5.7617 1.4414 10.199 6 11.398 11.879l26.641 132.96c0.23828 1.0781 1.1992 1.9219 2.2812 1.9219l23.16 0.48047c1.4414 0 2.6406-1.1992 2.3984-2.6406l-19.078-165.36h63c22.801 0 41.281-18.48 41.281-41.281v-690.72c0-22.801-18.48-41.281-41.281-41.281zm29.281 732c0 16.199-13.078 29.281-29.281 29.281h-543.12c-16.199 0-29.281-13.078-29.281-29.281l0.003906-690.72c0-16.199 13.078-29.281 29.281-29.281h543.24c16.199 0 29.281 13.078 29.281 29.281v690.72z" fill="#fff"/>
</svg>
